<?xml version="1.0" encoding="UTF-8"?>
<svg version="1.1" xmlns="http://www.w3.org/2000/svg" width="512" height="512">
<path d="M0 0 C1.45616276 -0.00463558 2.91232432 -0.00966123 4.3684845 -0.01504517 C8.30437238 -0.02809399 12.24024327 -0.03459854 16.17614937 -0.03905582 C18.63865 -0.04199683 21.10114608 -0.04610337 23.56364441 -0.05056 C31.27900815 -0.06421087 38.99436138 -0.07389108 46.70973635 -0.07776189 C55.59732259 -0.08224642 64.48475533 -0.0998227 73.3722949 -0.12876248 C80.25745312 -0.15040004 87.14256818 -0.16046716 94.02776003 -0.16180301 C98.13373519 -0.16284891 102.23956557 -0.16871181 106.34550476 -0.18662262 C110.20664199 -0.20314086 114.0675261 -0.20524076 117.92868614 -0.19648361 C119.34116483 -0.19571543 120.75365736 -0.20002705 122.16610146 -0.20994186 C129.60115596 -0.25905199 135.82426219 -0.21718241 142.54101562 3.16113281 C147.8658498 8.6225012 147.88738905 13.66287195 147.82226562 20.98925781 C147.33828044 26.44753517 144.898409 28.93616806 140.97851562 32.47363281 C137.15148864 35.12311304 134.24247435 35.28822963 129.70050049 35.29916382 C127.87150963 35.30734383 127.87150963 35.30734383 126.00556946 35.31568909 C124.651825 35.31680892 123.29808049 35.31785943 121.94433594 35.31884766 C120.51997216 35.32351672 119.09560987 35.32866044 117.67124939 35.33424377 C114.60033559 35.34552726 111.52943151 35.35396069 108.45850372 35.36036301 C103.589792 35.37106072 98.72114936 35.3913148 93.85247803 35.41348267 C80.00601403 35.47533276 66.15955266 35.5292618 52.31298828 35.5625 C44.6679847 35.58093204 37.02309567 35.60998192 29.37817645 35.65050471 C25.33844591 35.67144655 21.298859 35.68701344 17.25907135 35.68931198 C13.44717213 35.69148313 9.63557095 35.70759906 5.82376289 35.73370171 C3.78347013 35.74415234 1.74311877 35.74018039 -0.29719543 35.73551941 C-13.43569041 35.85182105 -25.80921266 37.77817406 -37.45898438 44.16113281 C-38.36132812 44.65355469 -39.26367188 45.14597656 -40.19335938 45.65332031 C-56.21454234 55.11215432 -66.35062052 69.41173298 -71.45898438 87.16113281 C-72.22598728 90.52257203 -72.58636974 93.62795057 -72.59599876 97.07330799 C-72.60107331 98.04178002 -72.60614785 99.01025205 -72.61137617 100.00807172 C-72.6121228 101.59237998 -72.6121228 101.59237998 -72.61288452 103.20869446 C-72.61726678 104.33690509 -72.62164903 105.46511571 -72.62616408 106.62751454 C-72.6395423 110.41647298 -72.64572885 114.20540816 -72.65185547 117.99438477 C-72.65923292 120.70804626 -72.66802167 123.42170291 -72.67663574 126.13536072 C-72.7011315 134.28618081 -72.71578472 142.43700695 -72.72869581 150.58785251 C-72.73241044 152.89231779 -72.73638347 155.19678248 -72.74044847 157.50124717 C-72.76569265 171.82845601 -72.78773392 186.15566587 -72.80017662 200.48289204 C-72.80310607 203.79987402 -72.80606776 207.11685598 -72.80908203 210.43383789 C-72.80982808 211.25820432 -72.81057413 212.08257075 -72.81134279 212.93191799 C-72.82397971 226.26776711 -72.85718164 239.6034824 -72.89888386 252.93926904 C-72.94140121 266.6488159 -72.96488311 280.35829445 -72.97009718 294.06790704 C-72.9735007 301.75796662 -72.98512968 309.44781725 -73.01819992 317.13781166 C-73.04633697 323.69123272 -73.05714054 330.24440197 -73.04600446 336.79787872 C-73.04085176 340.13582879 -73.04626149 343.47282968 -73.06847 346.81077194 C-73.20843021 369.06966626 -70.8278888 387.98543082 -54.79492188 404.81738281 C-54.0240625 405.59082031 -53.25320312 406.36425781 -52.45898438 407.16113281 C-51.770625 407.87269531 -51.08226562 408.58425781 -50.37304688 409.31738281 C-37.390099 421.86595697 -19.8374295 426.31973295 -2.2142334 426.30157471 C-1.30412018 426.30454583 -0.39400697 426.30751695 0.54368544 426.31057811 C3.58251847 426.31922491 6.62131191 426.32076996 9.66015625 426.32226562 C11.84372033 426.32689673 14.02728361 426.33192178 16.21084595 426.33731079 C22.13686913 426.35041061 28.062881 426.3568753 33.9889164 426.36132145 C37.69589514 426.36425673 41.40287082 426.36836244 45.10984802 426.37282562 C57.38811265 426.38728057 69.66636881 426.39661245 81.94464117 426.40069214 C82.60582951 426.4009149 83.26701784 426.40113767 83.94824219 426.40136719 C84.61024673 426.40158862 85.27225127 426.40181005 85.95431656 426.40203819 C95.99984588 426.40573571 106.04531498 426.42053978 116.09082031 426.44238281 C127.7775527 426.46770973 139.46423775 426.48256289 151.15099859 426.48406863 C157.32908412 426.48511367 163.50707333 426.49095697 169.68513489 426.50888824 C175.50298439 426.52544571 181.32066597 426.52748731 187.13853073 426.51874924 C189.26404141 426.5179829 191.3895614 426.52226783 193.51504898 426.53220749 C209.46848456 426.60238687 224.21224569 426.01192592 238.54101562 418.16113281 C239.89453125 417.4225 239.89453125 417.4225 241.27539062 416.66894531 C257.29657359 407.2101113 267.43265177 392.91053264 272.54101562 375.16113281 C273.61638314 370.83105032 273.68808187 366.60785681 273.68577576 362.17277527 C273.6893026 361.37377141 273.69282945 360.57476755 273.69646317 359.75155145 C273.70712839 357.07711889 273.71082736 354.40272198 273.71459961 351.72827148 C273.72090658 349.80950267 273.72767254 347.89073531 273.73486328 345.9719696 C273.74952344 341.84085075 273.76125217 337.70973751 273.77081108 333.57860374 C273.78627343 327.04401887 273.81022263 320.50948228 273.83570862 313.97492981 C273.90688473 295.39339245 273.96668446 276.81182757 274.01782227 258.23022461 C274.04614209 247.9670996 274.08153136 237.70402277 274.12447602 227.44094831 C274.15121993 220.94771043 274.16914263 214.45452703 274.18051326 207.96124494 C274.18965295 203.91719842 274.20702125 199.87321799 274.2266922 195.82921028 C274.23415193 193.95717281 274.23824781 192.08511838 274.23868752 190.2130661 C274.23977455 187.65206076 274.25306259 185.09138928 274.26927185 182.53044128 C274.266655 181.79452875 274.26403814 181.05861621 274.26134199 180.3004033 C274.32077617 174.26403376 275.0687194 168.61495985 278.22851562 163.34863281 C282.61800433 159.19641377 286.70922999 157.98999532 292.60351562 157.78613281 C298.56387513 158.00287316 301.95882112 159.65085624 306.29101562 163.78613281 C309.18353436 167.46921133 309.86429014 171.61596163 310.54101562 176.16113281 C309.55101562 176.16113281 308.56101562 176.16113281 307.54101562 176.16113281 C307.54101562 235.56113281 307.54101562 294.96113281 307.54101562 356.16113281 C308.53101563 356.16113281 309.52101563 356.16113281 310.54101562 356.16113281 C309.93369894 378.72294763 304.32220052 399.93191622 290.54101562 418.16113281 C289.47367187 419.57845703 289.47367187 419.57845703 288.38476562 421.02441406 C270.9648525 443.19800066 246.60990498 455.85714482 218.858181 459.73083115 C210.20672567 460.7086757 201.44860655 460.42010701 192.75634766 460.38818359 C190.58682256 460.38761846 188.41729709 460.38793803 186.24777222 460.3890686 C180.3975141 460.38963914 174.54733908 460.3779335 168.69710016 460.36392069 C162.56856877 460.35136322 156.44003519 460.35023889 150.31149292 460.34786987 C138.72383642 460.34166979 127.13621795 460.32527899 115.54857814 460.30517089 C102.34899361 460.28276595 89.1494072 460.27180693 75.94980836 460.26178002 C48.81352308 460.24091139 21.67727149 460.20576419 -5.45898438 460.16113281 C-5.45898438 460.82113281 -5.45898438 461.48113281 -5.45898438 462.16113281 C-33.36449368 463.12339175 -58.87627 451.26953066 -79.05664062 432.55566406 C-100.53840456 411.14375952 -109.49315831 383.76927961 -109.59738988 353.83405668 C-109.59584127 352.86117835 -109.59429267 351.88830003 -109.59269714 350.88594055 C-109.5949627 349.81779135 -109.59722826 348.74964216 -109.59956247 347.6491248 C-109.60584236 344.10534598 -109.605077 340.561606 -109.60424805 337.01782227 C-109.60724329 334.46238659 -109.61064666 331.90695136 -109.61442566 329.35151672 C-109.62231961 323.15111071 -109.62547869 316.95071869 -109.62603804 310.75030813 C-109.62651508 305.70449572 -109.6285792 300.65868641 -109.63173866 295.61287498 C-109.64053437 281.27145501 -109.64515973 266.93004249 -109.64440819 252.58861981 C-109.64436823 251.8172781 -109.64432828 251.0459364 -109.64428711 250.2512207 C-109.64424623 249.47892493 -109.64420535 248.70662915 -109.64416323 247.91093048 C-109.64375705 235.40396981 -109.65332224 222.89703929 -109.66742548 210.39008734 C-109.68183006 197.51313191 -109.68869342 184.63619114 -109.6878317 171.75922745 C-109.68750114 164.54383614 -109.69018599 157.32847643 -109.70100975 150.11309242 C-109.71113183 143.32257855 -109.71073793 136.53214212 -109.70349312 129.74162102 C-109.70245308 127.26057462 -109.7047753 124.77952397 -109.71085358 122.2984848 C-109.79211138 86.81000428 -104.13663997 56.22013973 -78.45898438 30.16113281 C-56.87214583 8.54128687 -29.97957612 0.02233406 0 0 Z " fill="#8C8C8C" transform="translate(155.458984375,24.8388671875)"/>
<path d="M0 0 C3.74897838 2.12093597 5.74091402 4.48182804 7.6875 8.375 C9.02129236 14.0173325 8.81433794 19.69970227 8.78515625 25.4609375 C8.7837413 26.51785797 8.78232635 27.57477844 8.78086853 28.66372681 C8.7752894 32.02584716 8.76274069 35.38789991 8.75 38.75 C8.74498231 41.03515529 8.74041987 43.32031162 8.73632812 45.60546875 C8.72532679 51.1953354 8.70860944 56.78516287 8.6875 62.375 C9.29613892 62.36611755 9.90477783 62.35723511 10.53186035 62.3480835 C16.89126148 62.2592932 23.25048525 62.19913458 29.61035156 62.15527344 C31.98086709 62.13521174 34.35133345 62.10795574 36.72167969 62.07324219 C40.13749351 62.02448582 43.55265055 62.00197601 46.96875 61.984375 C48.02114868 61.96372986 49.07354736 61.94308472 50.15783691 61.92181396 C57.84692759 61.91949191 63.27482184 63.32155112 69.0625 68.5 C72.22632949 74.09754449 73.46940908 79.8417273 71.75 86.125 C69.91120681 90.77558008 66.86779774 93.71481053 62.6875 96.375 C59.70868573 97.36793809 57.77262761 97.49619785 54.6652832 97.48852539 C53.64445145 97.48844986 52.62361969 97.48837433 51.57185364 97.48829651 C50.47177475 97.48313522 49.37169586 97.47797394 48.23828125 97.47265625 C47.1105278 97.4712413 45.98277435 97.46982635 44.82084656 97.46836853 C41.21387088 97.4627647 37.60695696 97.45021153 34 97.4375 C31.55664152 97.43248549 29.11328207 97.4279225 26.66992188 97.42382812 C20.67576013 97.41279403 14.68163448 97.39605215 8.6875 97.375 C8.69749275 98.25037415 8.69749275 98.25037415 8.70768738 99.14343262 C8.77430191 105.24335189 8.81940861 111.34316702 8.85229492 117.44335938 C8.86733716 119.71683961 8.88777603 121.99029104 8.91381836 124.26367188 C8.95040221 127.54043711 8.96727248 130.81681706 8.98046875 134.09375 C9.00369453 135.60672668 9.00369453 135.60672668 9.02738953 137.15026855 C9.02913052 144.52929144 8.23360629 150.35987413 3.3125 156.1875 C-1.88851189 160.52167658 -5.09314129 161.89801871 -11.8828125 161.65625 C-16.88378233 161.0773596 -19.56217534 159.12532466 -23.0625 155.625 C-27.76919391 148.82644213 -27.58933054 142.19755149 -27.5078125 134.19140625 C-27.5049826 133.13590073 -27.50215271 132.0803952 -27.49923706 130.99290466 C-27.48809415 127.64098496 -27.46300024 124.28933816 -27.4375 120.9375 C-27.4274626 118.65690492 -27.41833808 116.37630562 -27.41015625 114.09570312 C-27.38817412 108.52204322 -27.35475537 102.94854111 -27.3125 97.375 C-28.25091232 97.38499275 -28.25091232 97.38499275 -29.20828247 97.39518738 C-35.72962293 97.46164563 -42.2508669 97.50684426 -48.77246094 97.53979492 C-51.20511789 97.55486534 -53.63774774 97.57532523 -56.0703125 97.60131836 C-59.57038061 97.6377774 -63.0700889 97.6547442 -66.5703125 97.66796875 C-68.19720505 97.69119453 -68.19720505 97.69119453 -69.85696411 97.71488953 C-77.11362003 97.71650064 -81.59257471 96.90947584 -87.0625 91.8125 C-90.5217895 87.30087 -91.59875083 81.73406581 -91.12109375 76.12890625 C-90.18660779 71.67536506 -88.60190609 68.48660036 -85.3125 65.375 C-79.08090511 61.90275973 -73.49955074 61.98123449 -66.47265625 62.08203125 C-65.35056259 62.08627609 -64.22846893 62.09052094 -63.07237244 62.09489441 C-59.50633233 62.11161903 -55.94086785 62.14926078 -52.375 62.1875 C-49.94987798 62.20255483 -47.52474706 62.21624183 -45.09960938 62.22851562 C-39.1703782 62.26150222 -33.24148024 62.31163992 -27.3125 62.375 C-27.31694122 61.80394531 -27.32138245 61.23289063 -27.32595825 60.64453125 C-27.37037577 54.67434199 -27.40044261 48.70420006 -27.42236328 42.73388672 C-27.43238997 40.50893241 -27.44601472 38.28399117 -27.46337891 36.05908203 C-27.48777392 32.85185509 -27.49901671 29.64480315 -27.5078125 26.4375 C-27.51813507 25.45072266 -27.52845764 24.46394531 -27.53909302 23.44726562 C-27.54024087 16.30183293 -27.16622423 10.18206812 -23.125 4.0625 C-16.55027539 -2.22001463 -8.27755235 -3.67720263 0 0 Z " fill="#8C8C8C" transform="translate(393.3125,26.625)"/>
<path d="M0 0 C0.33 0.99 0.66 1.98 1 3 C57.1 3 113.2 3 171 3 C171 2.01 171 1.02 171 0 C182.11107754 1.639693 182.11107754 1.639693 186 6 C188.99773957 11.27188683 189.91903096 16.05693311 189 22 C187.27938983 27.23583524 184.82291318 31.15009676 180 34 C174.69354002 35.5551273 170.08722192 36.25063268 164.52404785 36.25396729 C163.81640242 36.25708727 163.10875699 36.26020725 162.37966776 36.26342177 C160.03232141 36.27133483 157.68523843 36.26510458 155.33789062 36.25878906 C153.6452774 36.2615019 151.95266536 36.26506448 150.26005554 36.26940918 C145.67953007 36.27850056 141.09909503 36.27500236 136.51856804 36.26865101 C131.71635577 36.26357417 126.91415106 36.26828714 122.11193848 36.27142334 C114.04873266 36.27505808 105.98556352 36.27027681 97.92236328 36.26074219 C88.61105932 36.24985859 79.29984296 36.25338452 69.98854113 36.264395 C61.98236865 36.2734819 53.97622249 36.27474629 45.97004652 36.26951766 C41.19342075 36.26640568 36.41683611 36.26596738 31.64021301 36.27259064 C27.14875517 36.27838388 22.65740986 36.27433105 18.16596413 36.26280212 C16.521286 36.26016611 14.87659834 36.26090247 13.23192406 36.26532745 C10.97980717 36.27082637 8.72804659 36.26389668 6.47595215 36.25396729 C5.21795555 36.25321323 3.95995895 36.25245918 2.66384125 36.25168228 C-3.70824112 35.81396129 -9.44990262 34.81010294 -14 30 C-16.99773957 24.72811317 -17.91903096 19.94306689 -17 14 C-15.27938983 8.76416476 -12.82291318 4.84990324 -8 2 C-5.33818122 1.13751123 -2.75144498 0.55961593 0 0 Z " fill="#8C8C8C" transform="translate(170,238)"/>
<path d="M0 0 C0 0.66 0 1.32 0 2 C56.1 2 112.2 2 170 2 C170 1.34 170 0.68 170 0 C175.79626333 0.3997423 179.50026517 1.01159868 184 5 C187.3337991 9.5762087 188.67533803 14.11597603 188.3828125 19.76171875 C187.43723329 25.2904625 185.31142322 28.95621417 180.9375 32.4375 C176.4154799 34.84282984 172.81176708 35.14671229 167.80815125 35.14044189 C167.07069839 35.14341302 166.33324553 35.14638414 165.57344562 35.1494453 C163.09542043 35.15813633 160.61744353 35.15964088 158.1394043 35.16113281 C156.36546729 35.1657607 154.59153128 35.17078532 152.81759644 35.17617798 C147.9931453 35.18930674 143.16870807 35.19574785 138.34424186 35.20018864 C135.33084472 35.20311856 132.31745139 35.20722321 129.30405617 35.21169281 C119.87794852 35.22536891 110.45184958 35.23503505 101.0257327 35.2388947 C90.14072049 35.24337606 79.25583383 35.26092713 68.3708598 35.2898953 C59.95973219 35.31150365 51.54863992 35.32159853 43.13748485 35.32293582 C38.11265637 35.32398444 33.08794588 35.32990446 28.06314659 35.34775543 C23.33617732 35.36422148 18.60941492 35.36639874 13.88242722 35.35761642 C12.14821507 35.35684527 10.41399186 35.36119912 8.67980766 35.37107468 C6.31055838 35.38377462 3.94204393 35.37792838 1.57279968 35.36749268 C0.88806145 35.37554908 0.20332322 35.38360548 -0.50216466 35.39190602 C-5.70988021 35.33833355 -9.72729727 34.02437892 -13.64453125 30.53515625 C-18.10063927 24.91658527 -18.6488443 20.01486387 -18 13 C-16.20810842 7.62432525 -12.66858549 4.08227042 -8 1 C-5.10245547 0.01885126 -3.1671415 0 0 0 Z " fill="#8D8D8D" transform="translate(171,345)"/>
<path d="M0 0 C0.91738953 -0.0049649 1.83477905 -0.00992981 2.77996826 -0.01504517 C5.8190587 -0.02966647 8.85809694 -0.03646886 11.8972168 -0.04199219 C14.00847882 -0.0477438 16.11974082 -0.05350154 18.23100281 -0.05926514 C22.66035201 -0.06977513 27.08968305 -0.07561777 31.51904297 -0.07910156 C37.19186648 -0.0845853 42.86444985 -0.10861088 48.53719807 -0.13707352 C52.89953815 -0.15570693 57.26182049 -0.16090588 61.62419701 -0.16243744 C63.71535746 -0.16546306 65.80651692 -0.17348851 67.89763832 -0.18662262 C70.8251733 -0.20369705 73.75212279 -0.20179931 76.6796875 -0.1953125 C77.54172287 -0.20452728 78.40375824 -0.21374207 79.29191589 -0.22323608 C85.7887968 -0.17819182 89.9172434 1.18876059 94.78393555 5.72363281 C97.85176571 9.74766977 98.85314192 14.15917583 99.03393555 19.16113281 C98.3576579 24.01803589 96.86757441 27.81274035 93.15893555 31.09863281 C87.30873574 34.95976469 82.86542982 35.45591418 76.02441406 35.43579102 C75.12623962 35.44090195 74.22806519 35.44601288 73.30267334 35.45127869 C70.33932802 35.4651569 67.37621572 35.46421929 64.4128418 35.46191406 C62.34927789 35.46580185 60.28571478 35.47013669 58.22215271 35.47489929 C53.89888921 35.48235761 49.57570738 35.48207293 45.25244141 35.47680664 C39.71641295 35.47101135 34.18071898 35.48794646 28.64474583 35.51115131 C24.38362173 35.52589329 20.12257811 35.52675973 15.86143303 35.52364159 C13.82051875 35.52415452 11.77959993 35.52938708 9.7387104 35.53945351 C6.88320385 35.55180996 4.02834795 35.54503094 1.17285156 35.53344727 C-0.08743614 35.54491287 -0.08743614 35.54491287 -1.3731842 35.55661011 C-7.69705948 35.49999816 -11.76809426 34.05240949 -16.65356445 29.84863281 C-19.98291707 25.97938518 -21.74310613 22.88109702 -22.40356445 17.78613281 C-21.68322361 11.81759438 -19.48398497 7.1872386 -14.90356445 3.22363281 C-10.02284531 -0.20325509 -5.75384168 0.0074092 0 0 Z " fill="#8C8C8C" transform="translate(174.966064453125,131.8388671875)"/>
</svg>
