<?xml version="1.0" encoding="UTF-8"?>
<svg version="1.1" xmlns="http://www.w3.org/2000/svg" width="512" height="512">
<path d="M0 0 C0.70235916 -0.00350607 1.40471831 -0.00701215 2.12836108 -0.01062447 C4.48765158 -0.01994653 6.84669569 -0.01501312 9.20599651 -0.01015663 C10.91227965 -0.01389249 12.61856107 -0.01849375 14.32483977 -0.02388728 C19.01836925 -0.03614069 23.71182757 -0.03585406 28.4053694 -0.03349853 C33.46547939 -0.03309095 38.52556638 -0.04412383 43.5856657 -0.05361366 C53.50114897 -0.07023743 63.41660845 -0.07572383 73.33210448 -0.07683842 C81.3906547 -0.07778823 89.44919706 -0.08189519 97.50774479 -0.08823967 C120.34741949 -0.10585576 143.18707538 -0.11507795 166.02675692 -0.11357872 C167.87428797 -0.11345885 167.87428797 -0.11345885 169.75914288 -0.11333656 C170.9923314 -0.1132548 172.22551992 -0.11317304 173.4960778 -0.1130888 C193.48488758 -0.11227578 213.47362202 -0.13141665 233.46241001 -0.1596133 C253.97911746 -0.18832663 274.49578815 -0.20215445 295.0125162 -0.20042574 C306.53417306 -0.19976131 318.05575094 -0.20527697 329.57738972 -0.22678185 C339.3867497 -0.24497322 349.19599492 -0.24935777 359.00536446 -0.235763 C364.01090429 -0.22922307 369.01622381 -0.22915316 374.02174282 -0.2464695 C378.60436107 -0.26215989 383.18658358 -0.25937791 387.76919194 -0.24190123 C389.42664532 -0.23882244 391.08412794 -0.24249677 392.74154685 -0.25362138 C402.26024629 -0.31327753 409.69688501 -0.33863588 417.18370342 6.22211266 C417.72253155 6.87308922 418.26135967 7.52406578 418.81651592 8.19476891 C419.3708128 8.84316734 419.92510967 9.49156578 420.49620342 10.15961266 C423.29198803 14.21727842 424.1914168 17.79920115 424.19878483 22.69154644 C424.20523372 23.77642072 424.21168261 24.861295 424.21832693 25.97904426 C424.21368112 27.75830347 424.21368112 27.75830347 424.20894146 29.57350731 C424.21347257 30.83803614 424.21800369 32.10256497 424.2226721 33.40541285 C424.23490594 36.91318535 424.2346412 40.42086249 424.23228335 43.92865145 C424.23187528 47.71267964 424.24291341 51.49667722 424.25239849 55.28069115 C424.26901162 62.69357499 424.27450818 70.10642702 424.27562325 77.51932792 C424.27657359 83.54507957 424.28068317 89.57082073 424.2870245 95.59656906 C424.30463787 112.68114215 424.31386323 129.7656901 424.31236355 146.85027234 C424.31228364 147.77131216 424.31220373 148.69235199 424.31212139 149.64130211 C424.31203963 150.5634667 424.31195787 151.48563129 424.31187363 152.43574025 C424.31106073 167.38067034 424.33019909 182.32549963 424.35839812 197.27040056 C424.38712503 212.61617308 424.40093852 227.96189643 424.39921057 243.30769652 C424.3985466 251.92301386 424.40404215 260.53822555 424.42556667 269.15351868 C424.44377595 276.48887908 424.44812794 283.82408594 424.43454783 291.15945915 C424.4280168 294.90125985 424.4279055 298.64276596 424.44525433 302.38453865 C424.46387902 306.44327534 424.45143416 310.50132969 424.43599224 314.56007957 C424.44627937 315.73956022 424.45656649 316.91904086 424.46716535 318.13426334 C424.40098188 325.99702976 423.30365346 331.4205553 417.97667217 337.49945641 C417.32569561 338.03828453 416.67471905 338.57711266 416.00401592 339.13226891 C415.35561749 339.68656578 414.70721905 340.24086266 414.03917217 340.81195641 C408.31373802 344.75685517 403.03086387 344.51771771 396.3024168 344.44153404 C394.67619636 344.43540576 394.67619636 344.43540576 393.01712298 344.42915368 C389.37755163 344.41335345 385.73822656 344.38345193 382.09874249 344.35394859 C379.49195658 344.34033019 376.88516486 344.32778817 374.27836895 344.31624413 C369.38872104 344.29407237 364.49911177 344.268511 359.60950229 344.23905751 C349.9986508 344.18163779 340.38790495 344.15382181 330.77690411 344.13721275 C329.26300406 344.13447167 327.74910402 344.1317269 326.23520398 344.12897849 C323.17031915 344.12350554 320.10543407 344.11819366 317.0405488 344.11297083 C309.16410869 344.09944978 301.28767334 344.08453095 293.41124249 344.06635094 C292.62092726 344.0645382 291.83061203 344.06272547 291.01634786 344.0608578 C278.21227026 344.03013073 265.40876641 343.9558113 252.60497501 343.86720619 C239.45246334 343.77737661 226.30054225 343.74097785 213.14772677 343.75233769 C205.03836298 343.75752956 196.93146242 343.72028212 188.82260939 343.62824079 C182.60472407 343.56197398 176.38889832 343.56934279 170.17080212 343.60394669 C167.62341885 343.60651989 165.07588076 343.58513438 162.52893353 343.53793335 C150.24067882 342.72994473 150.24067882 342.72994473 139.05338478 346.64964008 C135.61798149 350.3954321 133.84077944 354.5983453 131.94151592 359.25726891 C130.22017765 361.64248588 128.36353138 363.5642649 126.31651592 365.69476891 C125.84761944 366.18445152 125.37872295 366.67413414 124.89561749 367.17865562 C123.58387368 368.54426331 122.26306917 369.90115196 120.94151592 371.25726891 C120.08686749 372.22213219 120.08686749 372.22213219 119.21495342 373.20648766 C104.89771204 388.95545317 79.99268642 399.17996411 58.97569561 400.43427086 C44.18819235 400.72542738 30.11136574 400.86405865 15.94151592 396.25726891 C14.97133526 395.94378502 14.97133526 395.94378502 13.98155499 395.62396812 C-1.69105495 390.3537076 -14.3845654 381.79283003 -26.05848408 370.25726891 C-27.13162861 369.29240562 -27.13162861 369.29240562 -28.22645283 368.30805016 C-44.33460431 353.48597863 -54.93909891 329.01353237 -56.23548603 307.29144859 C-56.75525537 280.89296444 -53.71568942 254.36782578 -36.05848408 233.25726891 C-35.16540546 232.46175621 -34.27232685 231.66624352 -33.35218525 230.84662437 C-27.91615693 225.9143481 -24.53697155 221.95065794 -23.86094379 214.4398098 C-23.69906402 210.28687145 -23.75705923 206.16052896 -23.87098408 202.00726891 C-23.87795776 200.27941729 -23.87994701 198.55153806 -23.87684345 196.82367516 C-23.87999996 192.63234097 -23.95032301 188.44715434 -24.05848408 184.25726891 C-24.65959003 184.14262291 -25.26069599 184.02797691 -25.88001728 183.9098568 C-34.21691877 182.21114679 -39.2787181 179.00945064 -44.43348408 172.13226891 C-48.57334118 165.40217333 -49.71771793 157.846296 -48.55848408 150.06976891 C-46.54276496 142.12171186 -41.86223923 136.39660237 -35.47645283 131.44867516 C-33.06872931 130.26231704 -31.02209458 129.73927909 -28.40736103 129.18280602 C-27.59386692 129.00793159 -26.78037281 128.83305717 -25.94222736 128.65288353 C-25.32059208 128.5223307 -24.69895679 128.39177788 -24.05848408 128.25726891 C-24.06217125 127.69257896 -24.06585842 127.12788902 -24.06965733 126.54608727 C-24.15813923 112.78210201 -24.22400146 99.01816684 -24.26573277 85.25395775 C-24.28659343 78.59754944 -24.3148838 71.94140127 -24.36024189 65.28510094 C-24.40375284 58.85954332 -24.42763266 52.4341832 -24.43799305 46.00848961 C-24.44537489 43.55891372 -24.45978988 41.10934845 -24.4814043 38.6598568 C-24.51050696 35.2246433 -24.51443706 31.79024241 -24.51258564 28.35492516 C-24.52696674 27.34575539 -24.54134785 26.33658562 -24.55616474 25.29683495 C-24.51340658 17.94865733 -22.98248007 12.59399594 -18.09364033 7.01508141 C-17.44266376 6.47625328 -16.7916872 5.93742516 -16.12098408 5.38226891 C-15.47258564 4.82797203 -14.8241872 4.27367516 -14.15614033 3.70258141 C-9.5246885 0.51145072 -5.571784 0.00627283 0 0 Z M-6.05848408 19.25726891 C-9.02867596 23.71835178 -8.32371691 29.38763313 -8.28553486 34.55536461 C-8.28582691 35.58997322 -8.28611897 36.62458183 -8.28641987 37.69054222 C-8.28502832 41.10479732 -8.26947512 44.51883325 -8.25379658 47.93305016 C-8.25006583 50.30244897 -8.24721915 52.67184932 -8.24522114 55.04125023 C-8.23758956 61.27359854 -8.21794504 67.50585346 -8.19581318 73.7381649 C-8.17534459 80.09933776 -8.16621724 86.46052573 -8.15614033 92.82172203 C-8.13469879 105.30027866 -8.10056848 117.77876601 -8.05848408 130.25726891 C-3.22676936 130.25726891 -2.69488552 129.42479193 0.69151592 126.19476891 C1.57323467 125.36847984 2.45495342 124.54219078 3.36339092 123.69086266 C4.6395628 122.48623375 4.6395628 122.48623375 5.94151592 121.25726891 C7.26803033 120.08285483 8.60078199 118.91542322 9.94151592 117.75726891 C13.8275592 114.37265057 17.65352861 110.9240105 21.47276592 107.46430016 C24.3784159 104.86668586 27.34870953 102.35170864 30.34776592 99.86273766 C32.11856163 98.07892139 33.08715789 96.62068326 33.94151592 94.25726891 C33.61151592 93.26726891 33.28151592 92.27726891 32.94151592 91.25726891 C32.29236373 81.43260012 32.48263958 73.55278343 38.50401592 65.56976891 C43.4156041 60.24380356 50.54735497 56.67521297 57.81260967 56.19086266 C66.65637933 56.46672336 73.93492036 58.52518642 80.43760967 64.67133141 C86.0367629 70.88522846 87.97898524 78.07646759 87.94151592 86.25726891 C87.49787796 89.33348381 86.75298251 92.26151212 85.94151592 95.25726891 C85.59777546 96.92182031 85.26195453 98.58807509 84.94151592 100.25726891 C93.40588523 107.54410729 102.02198096 114.53311878 110.94151592 121.25726891 C111.63503155 121.87215172 112.32854717 122.48703453 113.04307842 123.12055016 C114.8761938 124.49991619 114.8761938 124.49991619 116.99229717 123.89398766 C117.73866436 123.58074547 118.48503155 123.26750328 119.25401592 122.94476891 C128.64124793 119.73224951 139.00396514 119.87969301 147.94151592 124.25726891 C149.15774639 123.22279625 149.15774639 123.22279625 150.39854717 122.16742516 C157.51883373 116.12091851 164.69561913 110.15312962 171.94151592 104.25726891 C174.70540724 101.99095577 177.46814051 99.72474274 180.21104717 97.43305016 C182.94151592 95.25726891 182.94151592 95.25726891 185.89073467 93.30023766 C188.61436476 91.43510185 190.84629153 89.81140307 192.94151592 87.25726891 C193.31750661 84.32543675 192.95552688 82.01870994 192.40635967 79.12055016 C191.32454242 72.4569195 193.054704 66.16487785 196.50401592 60.44476891 C200.40748104 55.08952243 205.66568593 51.34921224 211.94151592 49.25726891 C221.8781823 48.644331 229.63844978 48.72189148 238.12901592 54.38226891 C243.05395556 58.79587601 246.66480888 65.72812005 247.17979717 72.29633141 C247.3375167 79.91667509 246.9717999 85.6992807 242.94151592 92.25726891 C242.38464092 93.16476891 241.82776592 94.07226891 241.25401592 95.00726891 C234.0323112 102.03379242 226.29207917 103.45885078 216.56260967 103.53851891 C213.02943943 103.26409792 211.06628769 102.54625799 207.94151592 101.00726891 C205.5620117 100.01381131 205.5620117 100.01381131 202.94151592 100.25726891 C198.37905789 103.19972372 194.64249007 106.80330093 190.75157452 110.5673275 C187.98840232 113.14713299 185.01166038 115.41021815 182.00401592 117.69476891 C176.78132811 121.74709816 171.66612899 125.91379472 166.62901592 130.19476891 C165.97618633 130.73867271 165.32335674 131.28257652 164.65074444 131.84296227 C164.04931622 132.35995689 163.44788799 132.87695152 162.82823467 133.40961266 C162.29415997 133.86328209 161.76008526 134.31695152 161.20982647 134.78436852 C158.41031158 138.03547022 158.92540601 141.69851342 159.10924053 145.79096031 C159.45765225 154.64702788 158.4344929 161.25202852 152.29698467 168.08930016 C145.03344252 174.82816207 137.56017846 175.99885326 127.89854717 175.66742516 C119.88198459 174.83648826 114.27960137 171.45805306 109.19542217 165.29633141 C105.67586181 159.57293418 104.68950679 156.03780044 105.39219952 149.44476891 C106.15819407 142.17919512 106.15819407 142.17919512 103.80626202 135.48578453 C100.63626017 132.2142002 96.83317509 129.88299032 92.95665264 127.53412437 C89.56507606 125.38511231 86.49812407 122.84056548 83.37901592 120.31976891 C82.25401393 119.4340006 81.12777478 118.54980058 80.00010967 117.66742516 C76.94151592 115.25726891 76.94151592 115.25726891 74.62120342 112.94867516 C70.66587653 110.45209127 67.19511018 110.89774578 62.62901592 111.13226891 C53.37783204 111.52655772 53.37783204 111.52655772 48.67979717 109.98773766 C44.9310984 108.82196151 44.9310984 108.82196151 42.03526592 111.00336266 C41.17932842 111.89152672 40.32339092 112.77969078 39.44151592 113.69476891 C38.49555216 114.64073267 37.54893422 115.58604271 36.60167217 116.53070641 C35.72382061 117.43047203 34.84596905 118.33023766 33.94151592 119.25726891 C32.60216578 120.46145527 31.24962744 121.65128798 29.87901592 122.81976891 C26.01150728 126.18110054 22.20780918 129.61017918 18.41026592 133.05023766 C15.50461595 135.64785195 12.53432232 138.16282917 9.53526592 140.65180016 C7.76447022 142.43561642 6.79587396 143.89385455 5.94151592 146.25726891 C6.27151592 147.24726891 6.60151592 148.23726891 6.94151592 149.25726891 C7.7245178 158.48550529 7.70029126 166.57411478 1.94151592 174.25726891 C-1.0968208 177.44187129 -4.40669266 179.82274129 -8.05848408 182.25726891 C-8.47557765 184.87417647 -8.47557765 184.87417647 -8.35145283 187.92133141 C-8.34178486 189.04281578 -8.33211689 190.16430016 -8.32215595 191.31976891 C-8.29701923 192.49539391 -8.27188251 193.67101891 -8.24598408 194.88226891 C-8.22568134 196.65730797 -8.22568134 196.65730797 -8.20496845 198.46820641 C-8.16952324 201.3983443 -8.12011176 204.3275835 -8.05848408 207.25726891 C-4.54858584 205.87267146 -1.11924882 204.37080785 2.3091917 202.79486656 C26.29931307 191.88814391 54.66493849 188.83174309 79.94151592 197.25726891 C81.06944561 197.61949547 82.1973753 197.98172203 83.35948467 198.35492516 C95.33743539 202.57654459 106.26149122 209.06214119 115.94151592 217.25726891 C116.61569561 217.79867516 117.2898753 218.34008141 117.98448467 218.89789391 C137.34917148 234.92900793 148.61029516 260.52586706 151.25401592 285.13226891 C152.44217505 297.93972987 151.57514988 309.93847509 148.56260967 322.46430016 C147.83297842 325.26848068 147.83297842 325.26848068 147.94151592 328.25726891 C179.94268422 328.32569969 211.9438317 328.37879431 243.94505606 328.41046489 C247.72268473 328.41421704 251.50031325 328.4181 255.2779417 328.42206383 C256.03000276 328.42285076 256.78206382 328.42363769 257.55691461 328.42444847 C269.73581961 328.43750408 281.91468215 328.46115877 294.09356196 328.48872729 C306.58926541 328.51677718 319.08494661 328.53344428 331.58068025 328.53953439 C339.29186189 328.5436517 347.00292352 328.55665812 354.71406822 328.58101831 C360.62595894 328.59874367 366.53778799 328.60063557 372.44970608 328.59659195 C374.87570466 328.59741854 377.30170771 328.60340264 379.72767925 328.61488533 C383.03631914 328.62978018 386.3444428 328.62623312 389.65309429 328.61803246 C390.61613621 328.62677098 391.57917814 328.6355095 392.57140315 328.64451283 C397.71339979 328.60999361 401.62064616 328.37339815 405.94151592 325.25726891 C407.68435208 321.76072171 408.19222802 318.91785651 408.19599152 315.03604794 C408.20182371 313.9987078 408.2076559 312.96136766 408.21366483 311.89259297 C408.20988551 310.7595292 408.20610618 309.62646543 408.20221233 308.45906639 C408.20603788 307.25029616 408.20986343 306.04152593 408.2138049 304.79612631 C408.2223401 301.44406574 408.22190054 298.09222444 408.21762431 294.74017012 C408.21515895 291.12387411 408.22416886 287.50760394 408.2316618 283.89131737 C408.24441594 276.80796753 408.24620161 269.7246556 408.24386153 262.64129622 C408.24207908 256.88440645 408.24382645 251.12752819 408.24808598 245.3706398 C408.24897876 244.14199409 408.24897876 244.14199409 408.24988958 242.88852726 C408.25110132 241.22457731 408.25231545 239.56062737 408.25353196 237.89667743 C408.26441017 222.28966629 408.26224362 206.68267675 408.25614711 191.07566439 C408.25097722 176.79545149 408.26223478 162.51530678 408.28124533 148.23510737 C408.30061326 133.57413276 408.3088816 118.91319042 408.30512208 104.25220293 C408.3032085 96.02038449 408.3057128 87.78862411 408.31983662 79.5568161 C408.33173805 72.54933088 408.33316922 65.54193946 408.32104645 58.53445298 C408.31514913 54.95901847 408.31408171 51.38375562 408.32604885 47.80833244 C408.33886927 43.93295447 408.32846346 40.05783791 408.31573772 36.18245506 C408.32311201 35.05162201 408.33048629 33.92078897 408.33808404 32.75568825 C408.32867272 25.04576145 408.32867272 25.04576145 404.94151592 18.25726891 C400.95030077 16.1870357 397.55132476 16.00598492 393.09608841 16.00279331 C392.41676729 15.99958683 391.73744618 15.99638036 391.03753957 15.99307671 C388.75663106 15.98476201 386.47598413 15.99070606 384.19507122 15.99657249 C382.54511019 15.99355248 380.89515056 15.98966376 379.24519342 15.98497993 C374.70742028 15.97467187 370.16972589 15.97688888 365.63194621 15.98116052 C360.73956768 15.98362264 355.84720838 15.97462001 350.95483685 15.96712303 C341.36888882 15.95435988 331.78296878 15.95258434 322.19701368 15.95492329 C314.40732531 15.95670474 306.61764546 15.95496055 298.82795811 15.95069885 C297.7202234 15.95010366 296.61248869 15.94950847 295.47118626 15.94889525 C293.22098832 15.94768353 290.97079037 15.94646939 288.72059243 15.94525287 C267.60833023 15.93437119 246.49608399 15.93654285 225.38382088 15.94263772 C206.05972445 15.94780796 186.73567842 15.93654972 167.41159195 15.9175395 C147.57968228 15.89817893 127.74779647 15.88990193 107.91587728 15.89366275 C96.77771435 15.89557744 85.63959433 15.89306121 74.50143909 15.87894821 C65.0199505 15.86705615 55.53853122 15.86560507 46.05704171 15.87773838 C41.21785683 15.88364225 36.37879886 15.88468494 31.53962231 15.87273598 C27.11136423 15.86192855 22.68333982 15.86491893 18.25509291 15.87899766 C16.65151244 15.88165881 15.04791395 15.87923384 13.44435108 15.8712618 C11.26687889 15.86118636 9.09022377 15.86955067 6.91278458 15.8825388 C5.7026682 15.88248378 4.49255183 15.88242876 3.24576527 15.88237208 C-0.46307418 16.30317329 -2.87864826 17.33170788 -6.05848408 19.25726891 Z M209.94151592 70.25726891 C208.32721669 73.48586737 208.34580936 76.76720544 208.94151592 80.25726891 C210.67753697 83.28235036 212.77731729 85.67516959 215.94151592 87.25726891 C221.0652199 87.86455736 221.0652199 87.86455736 225.76573467 86.21039391 C227.92980339 84.42883612 229.67956408 82.78117259 230.94151592 80.25726891 C231.44526591 73.88040477 231.44526591 73.88040477 228.94151592 68.25726891 C225.50805477 65.42971266 222.40105987 64.6755515 217.94151592 64.82758141 C214.33083407 65.60331383 212.48886367 67.64779072 209.94151592 70.25726891 Z M50.94151592 76.25726891 C48.21238948 79.76614576 48.53001856 84.01096637 48.94151592 88.25726891 C49.80823626 91.17260096 50.71251303 92.06867829 53.06651592 94.00726891 C56.76001994 95.61314022 60.01940374 96.09991019 63.94151592 95.25726891 C66.95936584 93.50119245 69.3561981 91.42790456 70.94151592 88.25726891 C71.54880437 83.13356492 71.54880437 83.13356492 69.89464092 78.43305016 C68.11308314 76.26898144 66.4654196 74.51922075 63.94151592 73.25726891 C58.64847337 72.91018415 55.20793178 72.74374996 50.94151592 76.25726891 Z M122.94151592 140.25726891 C120.21238948 143.76614576 120.53001856 148.01096637 120.94151592 152.25726891 C121.80823626 155.17260096 122.71251303 156.06867829 125.06651592 158.00726891 C128.76001994 159.61314022 132.01940374 160.09991019 135.94151592 159.25726891 C138.95936584 157.50119245 141.3561981 155.42790456 142.94151592 152.25726891 C143.54880437 147.13356492 143.54880437 147.13356492 141.89464092 142.43305016 C140.11308314 140.26898144 138.4654196 138.51922075 135.94151592 137.25726891 C130.64847337 136.91018415 127.20793178 136.74374996 122.94151592 140.25726891 Z M-29.05848408 148.25726891 C-31.36917467 151.22815681 -31.52936217 154.50887995 -31.45301533 158.22211266 C-30.74496225 161.87454488 -28.68313775 163.69510698 -26.05848408 166.25726891 C-22.82988561 167.87156814 -19.54854754 167.85297547 -16.05848408 167.25726891 C-13.03340262 165.52124786 -10.64058339 163.42146753 -9.05848408 160.25726891 C-8.45119563 155.13356492 -8.45119563 155.13356492 -10.10535908 150.43305016 C-11.88691686 148.26898144 -13.5345804 146.51922075 -16.05848408 145.25726891 C-21.35152663 144.91018415 -24.79206822 144.74374996 -29.05848408 148.25726891 Z M-11.05848408 231.25726891 C-11.80485126 231.90308922 -12.55121845 232.54890953 -13.32020283 233.21430016 C-29.4646778 248.28036226 -39.0071491 270.8971439 -40.08973408 292.79242516 C-39.97102147 305.954685 -37.47102963 317.89540464 -33.05848408 330.25726891 C-31.86932392 329.61724937 -31.86932392 329.61724937 -30.65614033 328.96430016 C-23.52420214 325.138482 -16.36409952 321.37195697 -9.17591572 317.65277672 C3.62804819 311.02715547 16.30938543 304.20395533 28.94151592 297.25726891 C32.57151592 295.27726891 36.20151592 293.29726891 39.94151592 291.25726891 C39.94151592 264.19726891 39.94151592 237.13726891 39.94151592 209.25726891 C20.94298536 209.25726891 2.94505776 219.09475215 -11.05848408 231.25726891 Z M55.94151592 209.25726891 C55.94151592 235.32726891 55.94151592 261.39726891 55.94151592 288.25726891 C82.01151592 288.25726891 108.08151592 288.25726891 134.94151592 288.25726891 C132.52863136 264.12842328 121.97512529 243.78862228 103.36729717 228.08930016 C89.86178295 217.88948346 73.19902921 209.25726891 55.94151592 209.25726891 Z M29.98881817 314.77258873 C26.98011553 316.95446547 23.8215428 318.56274324 20.51182842 320.25336266 C19.44093975 320.82562584 18.37005108 321.39788902 17.26671124 321.98749352 C16.21064678 322.55089439 15.15458233 323.11429527 14.06651592 323.69476891 C1.33246008 330.50185251 -11.3701307 337.36533015 -24.05848408 344.25726891 C-18.81141255 358.35942083 -2.86823623 369.30687636 10.25401592 375.63226891 C31.92798915 385.54698471 55.54219923 386.70265815 78.03135967 378.78851891 C101.69557174 369.82971384 118.8291354 352.2802465 129.25401592 329.31976891 C132.53597713 321.33396138 134.94151592 312.93498985 134.94151592 304.25726891 C124.23953309 303.97658968 113.53845507 303.76470374 102.83351231 303.63552284 C97.86003345 303.57345236 92.88911005 303.48958745 87.91710186 303.35199547 C57.23487077 302.10174107 57.23487077 302.10174107 29.98881817 314.77258873 Z " fill="#8D8D8D" transform="translate(72.05848407745361,55.74273109436035)"/>
<path d="M0 0 C0.66 -0.0103125 1.32 -0.020625 2 -0.03125 C4.9169721 0.74357071 6.09366318 2.19235326 8 4.5 C8.50222206 7.03971767 8.50222206 7.03971767 8.50552368 9.95860291 C8.51654617 11.0675441 8.52756866 12.17648529 8.53892517 13.31903076 C8.53075272 14.53109192 8.52258026 15.74315308 8.51416016 16.99194336 C8.52484779 18.91197929 8.52484779 18.91197929 8.53575134 20.87080383 C8.55108457 23.65263309 8.55389233 26.43409356 8.54698563 29.21595573 C8.53619805 33.61584255 8.55358238 38.01534412 8.57479858 42.41517639 C8.60505944 49.37542532 8.61675326 56.33556016 8.62037504 63.29586941 C8.62702118 75.75726805 8.65605334 88.21858732 8.7054714 100.67988878 C8.72195845 105.05233782 8.72738819 109.42462093 8.72388101 113.79709804 C8.72354893 115.86292058 8.7276465 117.92867851 8.73365784 119.99449158 C8.74076718 122.51146462 8.74071018 125.02847221 8.73213196 127.54544067 C8.7375148 128.65720169 8.74289764 129.76896271 8.7484436 130.91441345 C8.74877909 131.8780226 8.74911457 132.84163176 8.74946022 133.83444118 C9.02466702 136.76243896 9.65625858 138.88711292 11 141.5 C13.52372901 142.86078035 13.52372901 142.86078035 16 143.5 C15.99111755 142.34821259 15.98223511 141.19642517 15.9730835 140.00973511 C15.89196962 129.1511444 15.83202101 118.29261523 15.79275131 107.43379021 C15.77188356 101.85123942 15.74358031 96.26893337 15.69824219 90.68652344 C15.65475612 85.29838788 15.63085678 79.91048761 15.62049103 74.52219009 C15.61310467 72.46728944 15.59868081 70.41240155 15.57707977 68.35760117 C15.54800944 65.47753906 15.54404556 62.59844712 15.54589844 59.71826172 C15.53151733 58.87021469 15.51713623 58.02216766 15.50231934 57.14842224 C15.54851969 50.50432836 17.59585109 46.87251537 22.375 42.15625 C28.11537997 39.53349019 33.76876141 39.92338641 40 40 C41.258125 39.98453125 42.51625 39.9690625 43.8125 39.953125 C55.44243645 40.00240439 55.44243645 40.00240439 60 44.5 C64.25973295 49.65294628 64.56134272 53.41636757 64.45410156 59.81005859 C64.45468567 60.72777039 64.45526978 61.64548218 64.45587158 62.59100342 C64.45309503 65.610539 64.42202303 68.62907533 64.390625 71.6484375 C64.38316109 73.74735983 64.37746887 75.84628915 64.37347412 77.94522095 C64.35822966 83.45928313 64.31895774 88.9729213 64.2746582 94.48681641 C64.23368007 100.11745468 64.21545765 105.74816172 64.1953125 111.37890625 C64.15246262 122.41945673 64.0842254 133.45969305 64 144.5 C66.64 144.5 69.28 144.5 72 144.5 C71.99631283 143.89739035 71.99262566 143.29478069 71.98882675 142.67391014 C71.90043207 128.00100423 71.83426919 113.32811406 71.79275131 98.6550045 C71.77213908 91.5591309 71.74404441 84.46343519 71.69824219 77.36767578 C71.65406682 70.52068012 71.63086615 63.67386946 71.62049103 56.82674026 C71.61309664 54.21363032 71.59865732 51.60053056 71.57707977 48.98749924 C71.54807023 45.3291711 71.54404316 41.67160813 71.54589844 38.01318359 C71.53151733 36.9313681 71.51713623 35.84955261 71.50231934 34.73495483 C71.53576362 28.64589053 71.94681217 25.13984111 76 20.5 C80.80458387 15.75863434 85.78063786 15.98027272 92.1875 15.953125 C93.445625 15.96859375 94.70375 15.9840625 96 16 C97.258125 15.98453125 98.51625 15.9690625 99.8125 15.953125 C111.44243645 16.00240439 111.44243645 16.00240439 116 20.5 C120.80193293 25.99695864 120.54843067 30.91729665 120.45410156 38.01318359 C120.45468567 39.16498108 120.45526978 40.31677856 120.45587158 41.503479 C120.45308984 45.30210742 120.42199167 49.09994653 120.390625 52.8984375 C120.38316298 55.53544689 120.37746987 58.17246184 120.37347412 60.80947876 C120.36106163 67.03554145 120.32826381 73.26132185 120.28807616 79.48726046 C120.24330434 86.57791397 120.22135788 93.66858124 120.20129442 100.759341 C120.15952936 115.33970602 120.08921119 129.91984906 120 144.5 C122.64 144.5 125.28 144.5 128 144.5 C127.99111755 143.63635834 127.98223511 142.77271667 127.9730835 141.88290405 C127.89283661 133.7320842 127.83198435 125.58139759 127.79275131 117.43027306 C127.77190282 113.23996462 127.74363584 109.04998341 127.69824219 104.85986328 C127.65468581 100.81387758 127.6308423 96.76820605 127.62049103 92.72200394 C127.61311714 91.18065065 127.59871743 89.63931398 127.57707977 88.09809494 C127.54791389 85.93400064 127.54404924 83.77119375 127.54589844 81.60693359 C127.53701599 80.37671478 127.52813354 79.14649597 127.51898193 77.8789978 C128.24768 72.76012735 130.76408643 69.71965155 134.375 66.15625 C140.11537997 63.53349019 145.76876141 63.92338641 152 64 C153.258125 63.98453125 154.51625 63.9690625 155.8125 63.953125 C167.44243645 64.00240439 167.44243645 64.00240439 172 68.5 C175.54007896 73.01231397 176.49535365 75.89351977 176.45410156 81.60693359 C176.45468567 82.29055969 176.45526978 82.97418579 176.45587158 83.67852783 C176.45310371 85.91902975 176.42207681 88.15817051 176.390625 90.3984375 C176.38315791 91.95927199 176.37746719 93.52011589 176.37347412 95.08096313 C176.35825441 99.17468478 176.31900507 103.26783222 176.2746582 107.36132812 C176.23362584 111.54419183 176.21544617 115.72714898 176.1953125 119.91015625 C176.15250648 128.10703335 176.08430054 136.3034451 176 144.5 C176.58491211 144.47905273 177.16982422 144.45810547 177.77246094 144.43652344 C180.43146465 144.35319885 183.09019355 144.30129103 185.75 144.25 C186.67039062 144.21648437 187.59078125 144.18296875 188.5390625 144.1484375 C195.37844715 144.04931598 195.37844715 144.04931598 198.60742188 146.390625 C200.10431184 148.65800391 200.54207857 149.80697165 200.5 152.5 C200.51546875 153.49 200.51546875 153.49 200.53125 154.5 C199.73628135 157.49282317 198.43305027 158.59649957 196 160.5 C193.35218564 160.89312705 191.11938238 161.0411623 188.47357178 161.00793457 C187.71217431 161.01417453 186.95077685 161.0204145 186.16630673 161.02684355 C183.61283555 161.04280882 181.06031434 161.0301558 178.50683594 161.01757812 C176.6768793 161.02299787 174.84692702 161.0301197 173.01698303 161.03881836 C168.04359237 161.05707733 163.07053307 161.04997219 158.0971365 161.03730202 C152.89183592 161.02718156 147.68656389 161.03656561 142.48126221 161.04284668 C133.7350149 161.05012845 124.98890259 161.04052418 116.24267578 161.02148438 C106.13839486 160.99974184 96.03443711 161.00674585 85.9301641 161.02879 C77.25314439 161.04696137 68.57622183 161.04949299 59.89918923 161.03903532 C54.71781132 161.03280645 49.53658509 161.03194756 44.35521698 161.04518127 C39.47957744 161.0567634 34.60435274 161.0486708 29.72875786 161.02560425 C27.94218318 161.02032861 26.15557341 161.02181128 24.36901283 161.03065491 C21.92366305 161.04164044 19.47962947 161.02781163 17.03436279 161.00793457 C16.33278667 161.01685746 15.63121055 161.02578034 14.90837455 161.03497362 C8.55933588 160.93536303 3.48191455 158.67491815 -1.2421875 154.53515625 C-2.05042969 153.55869141 -2.05042969 153.55869141 -2.875 152.5625 C-3.42929687 151.91410156 -3.98359375 151.26570312 -4.5546875 150.59765625 C-7.45473521 146.38866808 -8.25069019 142.71781726 -8.26742554 137.64866638 C-8.27595551 136.47800629 -8.28448547 135.30734619 -8.29327393 134.10121155 C-8.29236755 132.82571945 -8.29146118 131.55022736 -8.29052734 130.23608398 C-8.29651491 128.8723921 -8.30332099 127.5087036 -8.31088257 126.14501953 C-8.32852115 122.44886572 -8.33323688 118.75280456 -8.33451414 115.05661273 C-8.33593689 112.74708836 -8.3402087 110.43758746 -8.34550858 108.12806892 C-8.36399788 100.07047151 -8.37218008 92.0129402 -8.37060547 83.95532227 C-8.36940258 76.44402146 -8.39053634 68.93300732 -8.4220928 61.4217791 C-8.44822984 54.9707 -8.45897394 48.51971473 -8.45769465 42.06858307 C-8.45718449 38.21639515 -8.46289784 34.36446237 -8.48405075 30.51232719 C-8.50339151 26.89164551 -8.50358678 23.2714636 -8.48901749 19.65076447 C-8.4859245 17.68823838 -8.50263269 15.72571247 -8.51989746 13.76325989 C-8.507314 12.01149948 -8.507314 12.01149948 -8.49447632 10.22434998 C-8.49556585 9.20949744 -8.49665539 8.19464491 -8.49777794 7.14903927 C-7.6287834 2.52448587 -4.71043509 -0.07360055 0 0 Z M88 32.5 C88 69.46 88 106.42 88 144.5 C93.28 144.5 98.56 144.5 104 144.5 C104 107.54 104 70.58 104 32.5 C98.72 32.5 93.44 32.5 88 32.5 Z M32 56.5 C32 85.54 32 114.58 32 144.5 C37.28 144.5 42.56 144.5 48 144.5 C48 115.46 48 86.42 48 56.5 C42.72 56.5 37.44 56.5 32 56.5 Z M144 80.5 C144 101.62 144 122.74 144 144.5 C149.28 144.5 154.56 144.5 160 144.5 C160 123.38 160 102.26 160 80.5 C154.72 80.5 149.44 80.5 144 80.5 Z " fill="#8C8C8C" transform="translate(264,207.5)"/>
<path d="M0 0 C0.77444458 -0.00700928 1.54888916 -0.01401855 2.34680176 -0.02124023 C4.90344232 -0.03882686 7.45897344 -0.02719576 10.015625 -0.01367188 C11.79394747 -0.01636661 13.57226851 -0.02024888 15.35058594 -0.02526855 C19.07631468 -0.03116448 22.80165964 -0.02259774 26.52734375 -0.00390625 C31.30261787 0.01888354 36.07699276 0.00576094 40.85223389 -0.01819611 C44.52399468 -0.03265162 48.19554235 -0.02804927 51.86730957 -0.01768494 C53.62797146 -0.01501696 55.38865271 -0.01828992 57.14929199 -0.02760315 C59.61046587 -0.03776495 62.0701845 -0.0222744 64.53125 0 C65.2586438 -0.00809692 65.9860376 -0.01619385 66.73547363 -0.02453613 C70.17906688 0.03319039 71.96216633 0.28135145 74.71582031 2.42492676 C76.39732531 4.69540881 76.80921353 5.72791231 76.765625 8.51757812 C76.78109375 9.50757813 76.78109375 9.50757813 76.796875 10.51757812 C75.99974611 13.51853394 74.71165797 14.61346966 72.265625 16.51757812 C69.55182754 16.91240719 67.2431129 17.06534313 64.53125 17.03515625 C63.36958313 17.04567017 63.36958313 17.04567017 62.18444824 17.05639648 C59.62780768 17.07398311 57.07227656 17.06235201 54.515625 17.04882812 C52.73730253 17.05152286 50.95898149 17.05540513 49.18066406 17.0604248 C45.45493532 17.06632073 41.72959036 17.05775399 38.00390625 17.0390625 C33.22863213 17.01627271 28.45425724 17.02939531 23.67901611 17.05335236 C20.00725532 17.06780787 16.33570765 17.06320552 12.66394043 17.05284119 C10.90327854 17.05017321 9.14259729 17.05344617 7.38195801 17.0627594 C4.92078413 17.0729212 2.4610655 17.05743065 0 17.03515625 C-0.7273938 17.04325317 -1.4547876 17.0513501 -2.20422363 17.05969238 C-5.64781688 17.00196586 -7.43091633 16.7538048 -10.18457031 14.61022949 C-11.86607531 12.33974744 -12.27796353 11.30724394 -12.234375 8.51757812 C-12.24984375 7.52757812 -12.24984375 7.52757812 -12.265625 6.51757812 C-10.59962649 0.24558375 -5.60949142 -0.06244159 0 0 Z " fill="#8C8C8C" transform="translate(379.734375,167.482421875)"/>
<path d="M0 0 C0.77444458 -0.00700928 1.54888916 -0.01401855 2.34680176 -0.02124023 C4.90344232 -0.03882686 7.45897344 -0.02719576 10.015625 -0.01367188 C11.79394747 -0.01636661 13.57226851 -0.02024888 15.35058594 -0.02526855 C19.07631468 -0.03116448 22.80165964 -0.02259774 26.52734375 -0.00390625 C31.30261787 0.01888354 36.07699276 0.00576094 40.85223389 -0.01819611 C44.52399468 -0.03265162 48.19554235 -0.02804927 51.86730957 -0.01768494 C53.62797146 -0.01501696 55.38865271 -0.01828992 57.14929199 -0.02760315 C59.61046587 -0.03776495 62.0701845 -0.0222744 64.53125 0 C65.2586438 -0.00809692 65.9860376 -0.01619385 66.73547363 -0.02453613 C70.17906688 0.03319039 71.96216633 0.28135145 74.71582031 2.42492676 C76.39732531 4.69540881 76.80921353 5.72791231 76.765625 8.51757812 C76.78109375 9.50757813 76.78109375 9.50757813 76.796875 10.51757812 C75.99974611 13.51853394 74.71165797 14.61346966 72.265625 16.51757812 C69.55182754 16.91240719 67.2431129 17.06534313 64.53125 17.03515625 C63.36958313 17.04567017 63.36958313 17.04567017 62.18444824 17.05639648 C59.62780768 17.07398311 57.07227656 17.06235201 54.515625 17.04882812 C52.73730253 17.05152286 50.95898149 17.05540513 49.18066406 17.0604248 C45.45493532 17.06632073 41.72959036 17.05775399 38.00390625 17.0390625 C33.22863213 17.01627271 28.45425724 17.02939531 23.67901611 17.05335236 C20.00725532 17.06780787 16.33570765 17.06320552 12.66394043 17.05284119 C10.90327854 17.05017321 9.14259729 17.05344617 7.38195801 17.0627594 C4.92078413 17.0729212 2.4610655 17.05743065 0 17.03515625 C-0.7273938 17.04325317 -1.4547876 17.0513501 -2.20422363 17.05969238 C-5.64781688 17.00196586 -7.43091633 16.7538048 -10.18457031 14.61022949 C-11.86607531 12.33974744 -12.27796353 11.30724394 -12.234375 8.51757812 C-12.24984375 7.52757812 -12.24984375 7.52757812 -12.265625 6.51757812 C-10.59962649 0.24558375 -5.60949142 -0.06244159 0 0 Z " fill="#8C8C8C" transform="translate(379.734375,135.482421875)"/>
<path d="M0 0 C0.77444458 -0.00700928 1.54888916 -0.01401855 2.34680176 -0.02124023 C4.90344232 -0.03882686 7.45897344 -0.02719576 10.015625 -0.01367188 C11.79394747 -0.01636661 13.57226851 -0.02024888 15.35058594 -0.02526855 C19.07631468 -0.03116448 22.80165964 -0.02259774 26.52734375 -0.00390625 C31.30261787 0.01888354 36.07699276 0.00576094 40.85223389 -0.01819611 C44.52399468 -0.03265162 48.19554235 -0.02804927 51.86730957 -0.01768494 C53.62797146 -0.01501696 55.38865271 -0.01828992 57.14929199 -0.02760315 C59.61046587 -0.03776495 62.0701845 -0.0222744 64.53125 0 C65.2586438 -0.00809692 65.9860376 -0.01619385 66.73547363 -0.02453613 C70.17906688 0.03319039 71.96216633 0.28135145 74.71582031 2.42492676 C76.39732531 4.69540881 76.80921353 5.72791231 76.765625 8.51757812 C76.78109375 9.50757812 76.78109375 9.50757812 76.796875 10.51757812 C75.99974611 13.51853394 74.71165797 14.61346966 72.265625 16.51757812 C69.55182754 16.91240719 67.2431129 17.06534313 64.53125 17.03515625 C63.36958313 17.04567017 63.36958313 17.04567017 62.18444824 17.05639648 C59.62780768 17.07398311 57.07227656 17.06235201 54.515625 17.04882812 C52.73730253 17.05152286 50.95898149 17.05540513 49.18066406 17.0604248 C45.45493532 17.06632073 41.72959036 17.05775399 38.00390625 17.0390625 C33.22863213 17.01627271 28.45425724 17.02939531 23.67901611 17.05335236 C20.00725532 17.06780787 16.33570765 17.06320552 12.66394043 17.05284119 C10.90327854 17.05017321 9.14259729 17.05344617 7.38195801 17.0627594 C4.92078413 17.0729212 2.4610655 17.05743065 0 17.03515625 C-0.7273938 17.04325317 -1.4547876 17.0513501 -2.20422363 17.05969238 C-5.64781688 17.00196586 -7.43091633 16.7538048 -10.18457031 14.61022949 C-11.86607531 12.33974744 -12.27796353 11.30724394 -12.234375 8.51757812 C-12.24984375 7.52757813 -12.24984375 7.52757813 -12.265625 6.51757812 C-10.59962649 0.24558375 -5.60949142 -0.06244159 0 0 Z " fill="#8C8C8C" transform="translate(379.734375,103.482421875)"/>
<path d="M0 0 C2.5 1.5 2.5 1.5 4 4 C4.791013 8.02098277 4.62153384 10.96411027 2.5 14.5 C-1.03588973 16.62153384 -3.97901723 16.791013 -8 16 C-10.5 14.5 -10.5 14.5 -12 12 C-12.791013 7.97901723 -12.62153384 5.03588973 -10.5 1.5 C-6.96411027 -0.62153384 -4.02098277 -0.791013 0 0 Z " fill="#8C8C8C" transform="translate(356,168)"/>
<path d="M0 0 C2.5 1.5 2.5 1.5 4 4 C4.791013 8.02098277 4.62153384 10.96411027 2.5 14.5 C-1.03588973 16.62153384 -3.97901723 16.791013 -8 16 C-10.5 14.5 -10.5 14.5 -12 12 C-12.791013 7.97901723 -12.62153384 5.03588973 -10.5 1.5 C-6.96411027 -0.62153384 -4.02098277 -0.791013 0 0 Z " fill="#8C8C8C" transform="translate(356,136)"/>
<path d="M0 0 C2.5 1.5 2.5 1.5 4 4 C4.791013 8.02098277 4.62153384 10.96411027 2.5 14.5 C-1.03588973 16.62153384 -3.97901723 16.791013 -8 16 C-10.5 14.5 -10.5 14.5 -12 12 C-12.791013 7.97901723 -12.62153384 5.03588973 -10.5 1.5 C-6.96411027 -0.62153384 -4.02098277 -0.791013 0 0 Z " fill="#8C8C8C" transform="translate(356,104)"/>
</svg>
