<?xml version="1.0" encoding="UTF-8"?>
<svg version="1.1" xmlns="http://www.w3.org/2000/svg" width="200" height="200">
<path d="M0 0 C11.44850129 2.30993325 20.26932322 2.45002962 31.703125 -0.34375 C40.18162635 -2.03141378 44.97223608 0.34983556 52 5 C55.54927621 7.80124561 58.80143135 10.80690835 62 14 C62.97453125 14.95712891 62.97453125 14.95712891 63.96875 15.93359375 C75.41894054 28.01153597 78.6020097 43.50593233 78.77563477 59.59936523 C78.81278992 61.82990472 78.91912388 64.05111521 79.02539062 66.27929688 C79.29167948 76.59206936 79.29167948 76.59206936 75.94921875 80.23535156 C73.35287586 81.82276816 70.85112646 82.94753496 68 84 C66.27910156 84.87011719 66.27910156 84.87011719 64.5234375 85.7578125 C36.21200367 98.05185945 1.87202593 99.39472267 -27 88.125 C-42.46833648 81.53166352 -42.46833648 81.53166352 -46 78 C-46.27017773 73.51765827 -46.2715775 69.02907081 -46.29516602 64.53955078 C-46.30656008 63.03457137 -46.32680627 61.52962818 -46.35668945 60.02490234 C-46.70435505 42.51731746 -42.62766437 27.2766928 -30.31640625 14.31640625 C-21.78732921 5.78732921 -12.78164652 -3.13593696 0 0 Z M-2.9453125 30.1328125 C-7.75467627 36.91066004 -8.37019602 43.91769511 -7 52 C-4.59238457 58.56860295 -0.92112958 62.78533055 5.16796875 66.16015625 C11.06354956 68.86282123 18.17687038 69.14943766 24.390625 67.28125 C30.7310028 64.28046051 35.31751555 59.74503786 38.26953125 53.37109375 C40.17347157 47.19092384 40.041925 40.4558299 37.3125 34.5625 C34.00747923 28.98094395 29.27532779 24.03786418 23 22 C12.40268917 20.49162364 4.37210676 22.11009981 -2.9453125 30.1328125 Z " fill="#000000" transform="translate(84,95)"/>
<path d="M0 0 C8.57927559 5.99264007 14.19697781 13.41297144 16.8359375 23.64453125 C18.49981182 35.71320356 16.98956815 46.26116653 9.921875 56.38671875 C3.95283923 63.70150076 -3.28434462 67.68462529 -12.1640625 70.64453125 C-25.90177909 71.63082885 -36.53360381 70.61454682 -47.5390625 61.51953125 C-55.13853667 54.21375657 -59.20603195 45.88299874 -59.45654297 35.39990234 C-59.55775992 23.36495975 -57.38764914 14.79499696 -49.1640625 5.64453125 C-36.23032269 -7.50223487 -15.61228576 -9.77881436 0 0 Z M-41.0390625 20.76953125 C-42.69260781 23.52544009 -42.55771818 25.49528577 -42.1640625 28.64453125 C-41.1640625 30.64453125 -41.1640625 30.64453125 -39.1640625 31.64453125 C-36.01481702 32.03818693 -34.04497134 32.17307656 -31.2890625 30.51953125 C-29.63551719 27.76362241 -29.77040682 25.79377673 -30.1640625 22.64453125 C-31.1640625 20.64453125 -31.1640625 20.64453125 -33.1640625 19.64453125 C-36.31330798 19.25087557 -38.28315366 19.11598594 -41.0390625 20.76953125 Z M-11.0390625 20.76953125 C-12.69260781 23.52544009 -12.55771818 25.49528577 -12.1640625 28.64453125 C-11.1640625 30.64453125 -11.1640625 30.64453125 -9.1640625 31.64453125 C-6.01481702 32.03818693 -4.04497134 32.17307656 -1.2890625 30.51953125 C0.36448281 27.76362241 0.22959318 25.79377673 -0.1640625 22.64453125 C-1.1640625 20.64453125 -1.1640625 20.64453125 -3.1640625 19.64453125 C-6.31330798 19.25087557 -8.28315366 19.11598594 -11.0390625 20.76953125 Z M-31.1640625 44.64453125 C-31.1640625 45.96453125 -31.1640625 47.28453125 -31.1640625 48.64453125 C-24.5640625 48.64453125 -17.9640625 48.64453125 -11.1640625 48.64453125 C-11.1640625 47.32453125 -11.1640625 46.00453125 -11.1640625 44.64453125 C-17.7640625 44.64453125 -24.3640625 44.64453125 -31.1640625 44.64453125 Z " fill="#000000" transform="translate(121.1640625,15.35546875)"/>
<path d="M0 0 C0.66209473 -0.00095673 1.32418945 -0.00191345 2.00634766 -0.00289917 C3.40852961 -0.00358076 4.8107147 -0.00172792 6.21289062 0.00244141 C8.36595713 0.00779004 10.51881502 0.0024958 12.671875 -0.00390625 C14.03125046 -0.00324546 15.3906258 -0.00196429 16.75 0 C18.61785156 0.00169189 18.61785156 0.00169189 20.5234375 0.00341797 C23.375 0.1328125 23.375 0.1328125 24.375 1.1328125 C24.5 4.1328125 24.5 4.1328125 24.375 7.1328125 C22.49180732 9.01600518 19.25569863 8.26335535 16.75 8.265625 C16.08790527 8.26658173 15.42581055 8.26753845 14.74365234 8.26852417 C13.34147039 8.26920576 11.9392853 8.26735292 10.53710938 8.26318359 C8.38404287 8.25783496 6.23118498 8.2631292 4.078125 8.26953125 C2.71874954 8.26887046 1.3593742 8.26758929 0 8.265625 C-1.24523437 8.26449707 -2.49046875 8.26336914 -3.7734375 8.26220703 C-6.625 8.1328125 -6.625 8.1328125 -7.625 7.1328125 C-7.75 4.1328125 -7.75 4.1328125 -7.625 1.1328125 C-5.74180732 -0.75038018 -2.50569863 0.00226965 0 0 Z " fill="#000000" transform="translate(91.625,135.8671875)"/>
</svg>
