<?xml version="1.0" encoding="utf-8"?>
<!-- Svg Vector Icons : http://www.onlinewebfonts.com/icon -->
<!DOCTYPE svg PUBLIC "-//W3C//DTD SVG 1.1//EN" "http://www.w3.org/Graphics/SVG/1.1/DTD/svg11.dtd">
<svg version="1.1" xmlns="http://www.w3.org/2000/svg" xmlns:xlink="http://www.w3.org/1999/xlink" x="0px" y="0px" viewBox="0 0 256 256" enable-background="new 0 0 256 256" xml:space="preserve">
<metadata> Svg Vector Icons : http://www.onlinewebfonts.com/icon </metadata>
<g><g><path fill="#000000" d="M144.7,78.9l-14.4,15l-13,13.5c-3.9,4.1-14.9,15.2-17.5,18c-2.6,2.8-4.3,4.6-5,5.3c-1.7,1.7-2.9,3.3-3.8,4.7c-0.9,1.4-1.7,3-2.4,4.7c-0.6,1.1-1.4,3.2-2.3,6.1c-1,3-1.9,6.2-3,9.7c-1,3.5-2,6.9-2.8,10.2c-0.9,3.3-1.5,5.8-1.7,7.5c-0.5,3.2-0.2,5.5,0.9,6.9c1.1,1.4,3.2,1.8,6.4,1.5c1.6-0.3,3.9-0.8,7-1.6c3.2-0.9,6.5-1.9,10-3.1s6.9-2.4,10.1-3.6c3.2-1.2,5.6-2.3,7.3-3.2c1.7-0.8,3.3-1.7,4.8-2.9c1.5-1.3,2.9-2.4,4.1-3.5c0.5-0.4,2-1.9,4.5-4.5c2.5-2.6,5.6-5.9,9.5-9.9c3.8-4,15.8-16.1,20.5-21l14.2-15l37.2-39.3l-33.6-34L144.7,78.9L144.7,78.9L144.7,78.9z M226.4,100.2v55.5v34.6v-0.2v7.3c0,19-15.5,34.4-34.5,34.4h-41.7h0h-44.4l0,0H64.1c-19,0-34.4-15.5-34.4-34.4v-7.7v-0.1v-89.4V65.2v0.5v-7.1c0-19,15.5-34.4,34.4-34.4h41.7H131h11.5h5.9l23.3-19.6H164l0,0H64.1c-29,0-52.7,22.9-54.1,51.5H10v2.6V59l0,0v138.4v2.6h0.1c1.4,28.6,25.1,51.5,54.1,51.5h1H191h1c28.9,0,52.7-22.9,54-51.5h0.1v-2.6V80.9L226.4,100.2L226.4,100.2L226.4,100.2z M221.7,12.2c-1.3-0.3-2.5-0.4-3.7-0.3h0.5C219.6,11.9,220.6,12,221.7,12.2L221.7,12.2L221.7,12.2z M242.9,37.3c0.2-3.5-0.8-7.3-2.7-10.9c-1.3-2.5-3.1-4.9-5.3-7.1c-4-3.9-8.7-6.3-13.2-7.1c-1-0.2-2.1-0.3-3.2-0.3H218c-2,0-4,0.3-6.1,0.9c-2.2,0.7-4.4,1.9-6.5,3.6c-1.6,1.4-3.6,3.3-6.1,5.7c-2.5,2.4-4.6,4.4-6.4,6.1l33.4,34c1-0.9,2.2-2,3.4-3.2c1-1.1,2.2-2.3,3.6-3.7c1.4-1.4,3-3,4.7-4.8c1.6-1.8,2.8-3.8,3.6-5.8c0.8-2,1.1-4,1.1-6C242.9,38.2,242.9,37.7,242.9,37.3L242.9,37.3L242.9,37.3z"/></g></g>
</svg>