<?xml version="1.0" encoding="UTF-8"?>
<svg version="1.1" xmlns="http://www.w3.org/2000/svg" width="512" height="512">
<path d="M0 0 C0.95094874 -0.00297112 1.90189748 -0.00594224 2.88166285 -0.0090034 C6.05869081 -0.01765424 9.23568093 -0.0191956 12.41271973 -0.02069092 C14.69480469 -0.02532173 16.97688887 -0.03034674 19.25897217 -0.03573608 C25.45358184 -0.04883857 31.64818069 -0.0553011 37.84280205 -0.05974674 C41.71729044 -0.06268154 45.5917759 -0.06678716 49.46626282 -0.07125092 C60.21176825 -0.08335641 70.95726984 -0.09373903 81.70278168 -0.09712601 C82.73313431 -0.09745536 82.73313431 -0.09745536 83.78430215 -0.09779136 C84.817006 -0.09811878 84.817006 -0.09811878 85.87057257 -0.09845281 C87.265481 -0.09889626 88.66038942 -0.09934282 90.05529785 -0.09979248 C90.74720854 -0.10001391 91.43911923 -0.10023534 92.15199691 -0.10046348 C103.34793891 -0.1044063 114.54381563 -0.12184626 125.73973244 -0.145152 C137.25824827 -0.16893393 148.77672212 -0.18107364 160.29526377 -0.18249393 C166.75280431 -0.18353927 173.21025275 -0.18938917 179.66777039 -0.20731354 C185.74826596 -0.22386318 191.82860087 -0.22591633 197.90911102 -0.21717453 C200.13137494 -0.21640778 202.35364774 -0.22069862 204.57588959 -0.23063278 C232.96850842 -0.35003488 255.53472901 5.62690424 276.37561035 26.14044189 C291.70431626 41.43754222 299.62982055 61.97659405 299.79330444 83.41667175 C299.78906866 84.80807593 299.78451104 86.19947917 299.77966309 87.59088135 C299.78538124 89.09391787 299.79235102 90.59695006 299.80046082 92.09997559 C299.81825021 96.14360333 299.81725067 100.18701239 299.81151843 104.23066735 C299.8084051 107.62478543 299.81454282 111.01886278 299.82055718 114.41297501 C299.83455481 122.43048287 299.83308164 130.44788407 299.82165527 138.46539307 C299.81018521 146.69462445 299.82424187 154.92352949 299.85105175 163.15271789 C299.87331522 170.25637911 299.87982212 177.3599387 299.87397534 184.46363229 C299.87062909 188.6894149 299.87286315 192.91498859 299.89022636 197.14074135 C299.90586404 201.11942905 299.90155709 205.09763922 299.88292122 209.0763092 C299.87928095 210.52251288 299.88220753 211.9687533 299.89280701 213.41492271 C299.98175002 226.57166992 297.96563603 239.74345045 291.62561035 251.45294189 C291.28054443 252.11189453 290.93547852 252.77084717 290.57995605 253.44976807 C279.04049545 274.94381443 260.97095042 289.65625445 237.79610825 296.95256615 C228.83369076 299.38799671 220.88616706 299.19555324 211.75097251 298.48461688 C207.20033778 298.13379475 202.64482458 297.85629473 198.09005737 297.56507874 C197.12153859 297.50143582 196.1530198 297.4377929 195.15515196 297.37222141 C174.66892154 296.04056893 154.14555822 295.33334961 133.62561035 294.76544189 C132.50399915 294.73421848 131.38238794 294.70299506 130.22678852 294.67082548 C57.23731654 291.22984245 57.23731654 291.22984245 -5.30029297 323.44451904 C-18.95148919 336.65616921 -31.1669739 352.20030562 -41.14620972 368.36424255 C-41.91861433 369.60771234 -41.91861433 369.60771234 -42.70662308 370.87630272 C-43.63873755 372.40520034 -44.5455162 373.95002231 -45.41849899 375.51343727 C-48.91462521 381.33753222 -53.13843813 383.38623778 -59.62438965 385.14044189 C-65.86693267 386.26663874 -71.36719242 384.47356325 -76.62438965 381.14044189 C-80.56232242 377.52157404 -84.29748387 373.22753228 -84.87738931 367.75127387 C-84.87879816 366.85621265 -84.88020701 365.96115142 -84.88165855 365.03896713 C-84.89133189 363.48474379 -84.89133189 363.48474379 -84.90120065 361.899122 C-84.89810345 360.76218469 -84.89500624 359.62524738 -84.89181519 358.45385742 C-84.8963463 357.24483017 -84.90087741 356.03580292 -84.90554583 354.79013848 C-84.91602971 351.43232584 -84.91751331 348.07472709 -84.91515708 344.71691322 C-84.91474931 341.09563279 -84.92578481 337.47438443 -84.93527222 333.8531189 C-84.95189658 326.75491729 -84.95738256 319.6567489 -84.95849697 312.55852947 C-84.9594475 306.78358525 -84.96355805 301.00865199 -84.96989822 295.23371124 C-84.98752052 278.84780542 -84.99673645 262.4619258 -84.99523728 246.07601044 C-84.99515736 245.19235094 -84.99507745 244.30869145 -84.99499512 243.39825439 C-84.99491336 242.51351017 -84.99483159 241.62876594 -84.99474736 240.71721128 C-84.99393589 226.40487315 -85.01303575 212.09264063 -85.04127185 197.78033301 C-85.07005926 183.07188021 -85.08380868 168.36347878 -85.0820843 153.65499711 C-85.08142204 145.40270169 -85.08684089 137.15051673 -85.1084404 128.89824677 C-85.1267302 121.86538668 -85.1309366 114.83268703 -85.11742155 107.79981336 C-85.11092874 104.21701966 -85.11063892 100.634533 -85.12812805 97.05176926 C-85.28222131 63.39443296 -85.28222131 63.39443296 -76.93688965 47.89044189 C-76.59585205 47.23551758 -76.25481445 46.58059326 -75.90344238 45.90582275 C-65.43678334 26.41413436 -48.30409047 10.99399043 -27.1439209 3.98809814 C-17.99097665 1.27790074 -9.51431021 -0.00936965 0 0 Z M-32.62438965 59.14044189 C-39.99407788 68.63422573 -41.78382986 78.80405325 -41.74464417 90.55569458 C-41.74549859 91.49595462 -41.74635301 92.43621466 -41.74723333 93.40496743 C-41.74887854 96.55102396 -41.74338244 99.697027 -41.73791504 102.84307861 C-41.73763293 105.10009256 -41.73779136 107.35710659 -41.73835754 109.61412048 C-41.73864461 115.73961092 -41.73276248 121.8650818 -41.72578359 127.99056768 C-41.719535 134.39274846 -41.71894505 140.79492968 -41.71775818 147.19711304 C-41.71500259 157.94222415 -41.70875513 168.68732671 -41.6998291 179.43243408 C-41.69064602 190.49851445 -41.68356957 201.56459286 -41.67932129 212.63067627 C-41.67905857 213.31312192 -41.67879584 213.99556756 -41.67852516 214.69869338 C-41.67722009 218.12242188 -41.67595639 221.54615039 -41.67471325 224.96987891 C-41.66435144 253.36007151 -41.64666806 281.75025632 -41.62438965 310.14044189 C-40.50827261 309.19080026 -39.3931559 308.23998287 -38.27845764 307.28867626 C-37.65736901 306.75931727 -37.03628038 306.22995827 -36.39637089 305.68455809 C-34.12787304 303.70777403 -32.00876334 301.615267 -29.9017334 299.46783447 C-29.04394287 298.59705765 -28.18615234 297.72628082 -27.30236816 296.82911682 C-26.39801025 295.90704941 -25.49365234 294.98498199 -24.56188965 294.03497314 C-23.60269688 293.06372679 -22.64296992 292.09300773 -21.68273926 291.12278748 C-17.6367302 287.03439866 -13.59367411 282.94321932 -9.56677246 278.83599854 C-7.09056531 276.31108615 -4.60454142 273.79620438 -2.11196899 271.28745079 C-0.71619551 269.87708538 0.66882638 268.45610541 2.05358887 267.03492737 C3.34027466 265.74294685 3.34027466 265.74294685 4.6529541 264.42486572 C5.39795166 263.66796951 6.14294922 262.9110733 6.91052246 262.13124084 C12.57403634 257.55740089 17.80197203 256.69856234 24.83657837 256.76863098 C26.07523299 256.76289414 26.07523299 256.76289414 27.33891094 256.75704139 C30.09236681 256.74779232 32.84531508 256.75972529 35.59875488 256.77154541 C37.57867135 256.76907618 39.5585865 256.76523652 41.53849792 256.76013184 C45.79675784 256.75180295 50.05488397 256.75259393 54.31314468 256.76031685 C61.0551291 256.77191906 67.7969422 256.75971991 74.53890991 256.74369812 C91.28856372 256.70753242 108.03821352 256.70126954 124.78790283 256.70379639 C137.79981584 256.70551009 150.81158849 256.69830745 163.82346237 256.66381782 C170.51613182 256.64707709 177.20845833 256.64877334 183.90112615 256.66464055 C188.07873754 256.67046368 192.25618861 256.65965005 196.43377113 256.64439392 C198.36015944 256.64068757 200.28657531 256.64371772 202.21293831 256.65426445 C218.12364173 256.73551683 231.54021221 255.19936124 243.75061035 243.95294189 C252.06662436 235.41808541 256.48047533 225.31056629 256.51605225 213.38090515 C256.52176239 212.23022049 256.52747253 211.07953583 256.53335571 209.89398193 C256.53447357 208.64040894 256.53559143 207.38683594 256.53674316 206.09527588 C256.54137544 204.75441859 256.54640065 203.4135626 256.55178833 202.07270813 C256.56487911 198.43595131 256.57135135 194.79921293 256.57579899 191.16243625 C256.57873644 188.88568868 256.58284261 186.60894607 256.58730316 184.332201 C256.60097235 177.19560535 256.61064057 170.05902112 256.61450505 162.92241329 C256.61897776 154.70948724 256.63649137 146.49672828 256.66550565 138.28385299 C256.6871993 131.92013192 256.69721349 125.55645758 256.69854617 119.19269997 C256.69958916 115.39953905 256.70538762 111.60653531 256.72336578 107.81341362 C256.73997891 104.23874855 256.74193868 100.66435655 256.73322678 97.08966637 C256.7321027 95.17162445 256.74571928 93.25359105 256.75997925 91.33560181 C256.69405153 77.4801104 253.7261728 66.26766755 244.30529785 55.85137939 C230.23708017 42.38824634 212.81285128 42.84203855 194.58093262 42.88165283 C192.48057942 42.87893936 190.38022717 42.87537643 188.27987671 42.87103271 C182.60012752 42.86194829 176.92045135 42.86543681 171.24070096 42.87179089 C165.28192025 42.87687201 159.32314559 42.87215351 153.36436462 42.86901855 C143.35858036 42.86538478 133.35282567 42.87016227 123.3470459 42.87969971 C111.79940213 42.89058013 100.25182902 42.88705927 88.70418698 42.8760469 C78.76924651 42.8669537 68.83432725 42.86569877 58.89938396 42.87092423 C52.97466973 42.87403314 47.04998864 42.87448308 41.12527657 42.86785126 C35.55281285 42.86204893 29.98043968 42.86612733 24.40798569 42.87763977 C22.36990827 42.88027109 20.33182315 42.87954758 18.29374886 42.87511444 C-1.26149142 42.83651954 -18.50329544 43.77251596 -32.62438965 59.14044189 Z " fill="#000000" transform="translate(148.6243896484375,84.85955810546875)"/>
<path d="M0 0 C5.44247271 3.22935103 8.80695089 7.76689208 10.94265747 13.70828247 C12.37192634 19.85735449 12.01202936 26.30538684 11.99609375 32.58984375 C12.00066237 34.17110924 12.00596996 35.75237275 12.01197815 37.33363342 C12.02088136 40.63778786 12.01851815 43.94170024 12.00854492 47.24584961 C11.99705829 51.4600199 12.01727564 55.67335182 12.04646206 59.88741207 C12.06489247 63.150164 12.06451808 66.41271753 12.05882454 69.6755085 C12.05867216 71.22829934 12.06464679 72.78110435 12.07711601 74.33384514 C12.20256978 92.51440464 12.20256978 92.51440464 5.78318787 99.23887634 C-0.49991098 104.98496962 -5.45610643 105.88619772 -13.94921875 105.75390625 C-20.30263022 105.06378205 -24.10274406 102.03547551 -28.3125 97.4375 C-31.9558046 92.18685514 -32.68904351 87.56142824 -32.72802734 81.24316406 C-32.73474457 80.55609375 -32.74146179 79.86902344 -32.74838257 79.16113281 C-32.76727887 76.90422195 -32.77128279 74.64760991 -32.7734375 72.390625 C-32.77987242 70.80889772 -32.78660128 69.22717162 -32.79360962 67.64544678 C-32.80556232 64.33359013 -32.80929264 61.02183762 -32.80810547 57.70996094 C-32.80790266 53.48914316 -32.83517364 49.26900156 -32.86964989 45.04834366 C-32.89201265 41.78128054 -32.89594012 38.51437757 -32.89488602 35.24724579 C-32.89722909 33.6924787 -32.90597881 32.13770631 -32.92155075 30.58301544 C-33.09471928 11.50460841 -33.09471928 11.50460841 -26.68734741 4.44732666 C-19.45675527 -2.29038053 -9.15101646 -4.17536873 0 0 Z " fill="#000000" transform="translate(266.4375,150.625)"/>
<path d="M0 0 C5.66107018 3.35905824 9.00810774 8.14151239 11.05859375 14.3046875 C12.61191063 20.68653203 11.7837367 26.64326211 8.5625 32.375 C4.39047014 38.028157 -0.4551618 41.30604269 -7.4375 42.375 C-14.27527933 42.51960561 -20.19990351 41.46885542 -25.28515625 36.609375 C-30.40011864 31.1058015 -32.99818453 26.32660746 -32.74609375 18.5859375 C-31.74991797 11.44877939 -28.93434919 6.01517662 -23.31640625 1.53125 C-16.38006676 -2.73726661 -7.47549926 -3.41087418 0 0 Z " fill="#000000" transform="translate(266.4375,278.625)"/>
</svg>
