<?xml version="1.0" encoding="UTF-8"?>
<svg version="1.1" xmlns="http://www.w3.org/2000/svg" width="1200" height="630">
<path d="M0 0 C1.18637306 -0.00087616 1.18637306 -0.00087616 2.39671326 -0.00177002 C4.99426143 0.00100246 7.59064219 0.03205351 10.18798828 0.06347656 C11.9954465 0.07094196 13.80291285 0.07663348 15.61038208 0.08062744 C20.35508788 0.09586031 25.09929968 0.13512172 29.84381104 0.17944336 C34.69023965 0.22044684 39.5367485 0.23864928 44.38330078 0.25878906 C53.88351718 0.30161838 63.38336781 0.36984114 72.88330078 0.45410156 C73.31642578 1.41509766 73.31642578 1.41509766 73.75830078 2.39550781 C74.70581646 4.61119775 74.70581646 4.61119775 76.88330078 5.39160156 C79.64613579 6.85935766 79.83194734 8.58040214 80.88330078 11.45410156 C81.37443359 11.91042969 81.86556641 12.36675781 82.37158203 12.83691406 C84.23229292 14.82744199 84.51523384 16.23352253 85.00830078 18.89160156 C85.15525391 19.6534375 85.30220703 20.41527344 85.45361328 21.20019531 C85.59541016 21.94398437 85.73720703 22.68777344 85.88330078 23.45410156 C86.20749409 24.78968667 86.53786051 26.1238535 86.88330078 27.45410156 C87.87330078 27.12410156 88.86330078 26.79410156 89.88330078 26.45410156 C90.21330078 28.76410156 90.54330078 31.07410156 90.88330078 33.45410156 C91.21330078 33.12410156 91.54330078 32.79410156 91.88330078 32.45410156 C95.88439064 36.45519142 96.23243122 42.03018855 96.88330078 47.45410156 C97.54330078 47.12410156 98.20330078 46.79410156 98.88330078 46.45410156 C100.3058889 50.27730714 101.12372354 53.36691461 100.88330078 57.45410156 C101.87330078 57.78410156 102.86330078 58.11410156 103.88330078 58.45410156 C105.92737399 62.21949959 105.88330078 65.25256798 105.88330078 69.45410156 C106.54330078 70.44410156 107.20330078 71.43410156 107.88330078 72.45410156 C108.21330078 71.46410156 108.54330078 70.47410156 108.88330078 69.45410156 C109.39291924 70.84645199 109.89054987 72.24319274 110.38330078 73.64160156 C110.66173828 74.41890625 110.94017578 75.19621094 111.22705078 75.99707031 C111.91861758 78.58632936 111.99700995 80.78667394 111.88330078 83.45410156 C113.75713981 84.24851228 115.63242964 85.0395013 117.50830078 85.82910156 C118.55244141 86.26996094 119.59658203 86.71082031 120.67236328 87.16503906 C123.71387731 88.38608484 126.76457684 89.4494706 129.88330078 90.45410156 C132.88330078 91.45410156 132.88330078 91.45410156 135.88330078 93.45410156 C143.9558875 92.25924216 151.74663373 88.06836914 158.94580078 84.39160156 C162.824557 82.41710393 166.78599713 80.9174243 170.88330078 79.45410156 C170.22330078 78.79410156 169.56330078 78.13410156 168.88330078 77.45410156 C174.08663212 75.21128633 177.22594663 73.89832917 182.88330078 75.45410156 C182.88330078 74.79410156 182.88330078 74.13410156 182.88330078 73.45410156 C183.66833984 73.20015625 184.45337891 72.94621094 185.26220703 72.68457031 C190.92436027 70.82960723 196.45805044 68.92012444 201.88330078 66.45410156 C201.88330078 65.79410156 201.88330078 65.13410156 201.88330078 64.45410156 C202.93517578 64.49535156 203.98705078 64.53660156 205.07080078 64.57910156 C208.71908744 64.68631835 208.71908744 64.68631835 211.21923828 63.47363281 C216.24653622 61.54969621 221.5982821 61.77023608 226.88330078 62.45410156 C229.50328463 63.84657446 230.83790772 65.24286583 232.88330078 67.45410156 C233.54330078 67.45410156 234.20330078 67.45410156 234.88330078 67.45410156 C235.00705078 68.35128906 235.00705078 68.35128906 235.13330078 69.26660156 C236.10507931 72.10095559 237.36633632 72.89950586 239.88330078 74.45410156 C240.87330078 74.78410156 241.86330078 75.11410156 242.88330078 75.45410156 C243.54996745 77.12076823 244.21663411 78.7874349 244.88330078 80.45410156 C245.87330078 80.78410156 246.86330078 81.11410156 247.88330078 81.45410156 C248.90937418 82.76747552 249.91057403 84.10074261 250.88330078 85.45410156 C251.54330078 85.78410156 252.20330078 86.11410156 252.88330078 86.45410156 C253.54330078 87.44410156 254.20330078 88.43410156 254.88330078 89.45410156 C255.70830078 89.78410156 256.53330078 90.11410156 257.38330078 90.45410156 C259.88330078 91.45410156 259.88330078 91.45410156 261.88330078 94.45410156 C261.88330078 95.11410156 261.88330078 95.77410156 261.88330078 96.45410156 C263.0704782 97.93630276 263.0704782 97.93630276 264.65673828 99.45800781 C265.23423828 100.03357422 265.81173828 100.60914062 266.40673828 101.20214844 C267.01775391 101.80091797 267.62876953 102.3996875 268.25830078 103.01660156 C269.16322266 103.92055664 269.16322266 103.92055664 270.08642578 104.84277344 C273.1947704 108.03962655 273.1947704 108.03962655 276.88330078 110.45410156 C276.88330078 111.11410156 276.88330078 111.77410156 276.88330078 112.45410156 C278.36830078 111.95910156 278.36830078 111.95910156 279.88330078 111.45410156 C282.89582988 114.50647893 283.26428461 117.07431752 283.29931641 121.29418945 C283.28578125 122.02758545 283.27224609 122.76098145 283.25830078 123.51660156 C283.2525 124.26868896 283.24669922 125.02077637 283.24072266 125.7956543 C283.09769687 131.98880307 282.00147187 137.61652289 279.88330078 143.45410156 C279.22330078 143.12410156 278.56330078 142.79410156 277.88330078 142.45410156 C278.21330078 143.44410156 278.54330078 144.43410156 278.88330078 145.45410156 C278.22330078 145.78410156 277.56330078 146.11410156 276.88330078 146.45410156 C276.53788227 148.78567648 276.20535821 151.11918517 275.88330078 153.45410156 C273.88330078 156.45410156 273.88330078 156.45410156 271.88330078 158.45410156 C271.53150881 160.78472336 271.199999 163.11845223 270.88330078 165.45410156 C269.82080078 168.39160156 269.82080078 168.39160156 268.88330078 170.45410156 C268.55330078 169.79410156 268.22330078 169.13410156 267.88330078 168.45410156 C267.69960937 169.51177734 267.69960937 169.51177734 267.51220703 170.59082031 C266.84924877 173.60913339 265.90154504 176.37299598 264.82080078 179.26660156 C264.45857422 180.24242187 264.09634766 181.21824219 263.72314453 182.22363281 C263.44599609 182.9596875 263.16884766 183.69574219 262.88330078 184.45410156 C262.22330078 184.45410156 261.56330078 184.45410156 260.88330078 184.45410156 C260.75955078 185.50597656 260.63580078 186.55785156 260.50830078 187.64160156 C259.97189296 190.91368928 259.24450043 193.45946232 257.88330078 196.45410156 C257.55330078 195.79410156 257.22330078 195.13410156 256.88330078 194.45410156 C254.06580072 197.27160162 254.94182447 204.68350406 254.88330078 208.45410156 C255.30664919 211.86680816 255.97765078 215.13837469 256.88330078 218.45410156 C257.54330078 218.12410156 258.20330078 217.79410156 258.88330078 217.45410156 C260.3058889 221.27730714 261.12372354 224.36691461 260.88330078 228.45410156 C261.56392578 228.57785156 262.24455078 228.70160156 262.94580078 228.82910156 C266.31104198 229.54511033 269.58343503 230.48355281 272.88330078 231.45410156 C272.88330078 232.44410156 272.88330078 233.43410156 272.88330078 234.45410156 C274.86330078 234.45410156 276.84330078 234.45410156 278.88330078 234.45410156 C278.88330078 235.11410156 278.88330078 235.77410156 278.88330078 236.45410156 C292.69280007 241.89853037 292.69280007 241.89853037 306.96142578 245.90332031 C308.88330078 246.45410156 308.88330078 246.45410156 311.88330078 248.45410156 C314.24713288 249.48448991 316.49702925 250.36321414 319.00830078 250.95410156 C320.88330078 251.45410156 320.88330078 251.45410156 323.88330078 253.45410156 C325.53913303 254.14724064 327.20441057 254.81884581 328.88330078 255.45410156 C328.88330078 256.11410156 328.88330078 256.77410156 328.88330078 257.45410156 C330.53330078 257.12410156 332.18330078 256.79410156 333.88330078 256.45410156 C333.88330078 257.11410156 333.88330078 257.77410156 333.88330078 258.45410156 C336.06081257 260.0518768 336.06081257 260.0518768 338.75830078 261.57910156 C340.11568359 262.38734375 340.11568359 262.38734375 341.50048828 263.21191406 C343.731021 264.60819086 343.731021 264.60819086 345.88330078 264.45410156 C347.44844678 267.58439355 347.03947693 270.92337292 347.04443359 274.36035156 C347.0493985 275.17673096 347.0543634 275.99311035 347.05947876 276.83422852 C347.07411144 279.54086135 347.08090321 282.24743564 347.08642578 284.95410156 C347.09217507 286.82975263 347.09793283 288.70540367 347.10369873 290.58105469 C347.11421101 294.51530227 347.1200526 298.4495294 347.12353516 302.38378906 C347.12902902 307.43489132 347.15307505 312.48572525 347.18150711 317.53674316 C347.20009011 321.41081545 347.2053367 325.28482244 347.20687103 329.15893555 C347.2099065 331.02174349 347.21796488 332.88455004 347.23105621 334.74731445 C347.24803104 337.34770424 347.24625806 339.94742951 347.23974609 342.54785156 C347.25356827 343.71054565 347.25356827 343.71054565 347.26766968 344.89672852 C347.25079346 347.03808594 347.25079346 347.03808594 346.88330078 350.45410156 C344.53876935 352.01712252 342.38987253 353.21884858 339.88330078 354.45410156 C337.96312281 355.48928131 336.04663368 356.53132402 334.13330078 357.57910156 C333.14845703 358.11792969 332.16361328 358.65675781 331.14892578 359.21191406 C330.40126953 359.62183594 329.65361328 360.03175781 328.88330078 360.45410156 C328.88330078 361.11410156 328.88330078 361.77410156 328.88330078 362.45410156 C327.23330078 362.12410156 325.58330078 361.79410156 323.88330078 361.45410156 C323.88330078 362.11410156 323.88330078 362.77410156 323.88330078 363.45410156 C323.06087891 363.76863281 322.23845703 364.08316406 321.39111328 364.40722656 C319.71662109 365.04917969 319.71662109 365.04917969 318.00830078 365.70410156 C316.82751953 366.1565625 315.64673828 366.60902344 314.43017578 367.07519531 C310.56443719 368.57806505 306.73026948 370.14798349 302.90673828 371.75488281 C300.88330078 372.45410156 300.88330078 372.45410156 297.88330078 372.45410156 C297.88330078 373.11410156 297.88330078 373.77410156 297.88330078 374.45410156 C295.90330078 375.11410156 293.92330078 375.77410156 291.88330078 376.45410156 C291.88330078 377.11410156 291.88330078 377.77410156 291.88330078 378.45410156 C289.90330078 378.12410156 287.92330078 377.79410156 285.88330078 377.45410156 C285.88330078 378.11410156 285.88330078 378.77410156 285.88330078 379.45410156 C284.88169922 379.78023438 283.88009766 380.10636719 282.84814453 380.44238281 C281.50564259 380.88362471 280.16319771 381.32504027 278.82080078 381.76660156 C278.16402344 381.97994141 277.50724609 382.19328125 276.83056641 382.41308594 C272.40080334 383.87512597 268.14802472 385.5629821 263.88330078 387.45410156 C263.88330078 388.11410156 263.88330078 388.77410156 263.88330078 389.45410156 C262.89330078 390.11410156 261.90330078 390.77410156 260.88330078 391.45410156 C260.37886982 393.35388058 260.37886982 393.35388058 260.32080078 395.45410156 C260.09073718 399.24666516 260.09073718 399.24666516 257.88330078 401.45410156 C257.55330078 401.12410156 257.22330078 400.79410156 256.88330078 400.45410156 C255.26902203 406.72444052 254.72641437 411.99986777 255.69189453 418.42285156 C255.88330078 420.45410156 255.88330078 420.45410156 254.88330078 422.45410156 C255.54330078 422.78410156 256.20330078 423.11410156 256.88330078 423.45410156 C257.21330078 423.12410156 257.54330078 422.79410156 257.88330078 422.45410156 C260.02538505 425.66722796 260.48017886 427.66475553 260.88330078 431.45410156 C260.55330078 432.11410156 260.22330078 432.77410156 259.88330078 433.45410156 C260.54330078 433.78410156 261.20330078 434.11410156 261.88330078 434.45410156 C262.21330078 434.12410156 262.54330078 433.79410156 262.88330078 433.45410156 C266.36382151 436.93462229 267.04734947 441.7170441 267.88330078 446.45410156 C268.54330078 446.45410156 269.20330078 446.45410156 269.88330078 446.45410156 C270.01607422 447.06898438 270.14884766 447.68386719 270.28564453 448.31738281 C270.46224609 449.125625 270.63884766 449.93386719 270.82080078 450.76660156 C270.99482422 451.56710937 271.16884766 452.36761719 271.34814453 453.19238281 C271.88216238 455.59950257 271.88216238 455.59950257 272.88330078 458.45410156 C273.54330078 458.12410156 274.20330078 457.79410156 274.88330078 457.45410156 C275.08826172 458.08058594 275.29322266 458.70707031 275.50439453 459.35253906 C275.77380859 460.16980469 276.04322266 460.98707031 276.32080078 461.82910156 C276.72105469 463.04726563 276.72105469 463.04726563 277.12939453 464.29003906 C277.83509807 466.46441955 277.83509807 466.46441955 278.88330078 468.45410156 C278.88330078 468.78410156 278.88330078 469.11410156 278.88330078 469.45410156 C279.54330078 470.11410156 280.20330078 470.77410156 280.88330078 471.45410156 C282.36052595 476.37818545 282.88330078 480.32100955 282.88330078 485.45410156 C283.23392578 486.56785156 283.58455078 487.68160156 283.94580078 488.82910156 C285.08191864 493.22209061 284.66086756 496.02197091 283.88330078 500.45410156 C283.22330078 500.45410156 282.56330078 500.45410156 281.88330078 500.45410156 C281.54322998 501.28530518 281.54322998 501.28530518 281.19628906 502.13330078 C279.49732426 505.13634269 277.34643658 507.17888647 274.87548828 509.58691406 C274.39000519 510.06482391 273.90452209 510.54273376 273.40432739 511.03512573 C271.86039323 512.55471125 270.31018497 514.06763855 268.75830078 515.57910156 C266.70835262 517.5760175 264.66499837 519.57934499 262.62548828 521.58691406 C261.26206299 522.91553467 261.26206299 522.91553467 259.87109375 524.27099609 C257.65888177 526.20848734 257.65888177 526.20848734 257.88330078 528.45410156 C256.21663411 529.45410156 254.54996745 530.45410156 252.88330078 531.45410156 C252.88330078 532.11410156 252.88330078 532.77410156 252.88330078 533.45410156 C252.32642578 533.68097656 251.76955078 533.90785156 251.19580078 534.14160156 C248.22474893 535.82787423 246.23807953 537.98445556 243.88330078 540.45410156 C238.88330078 545.45410156 238.88330078 545.45410156 236.63330078 547.64160156 C234.81222982 549.3466284 234.81222982 549.3466284 233.88330078 551.45410156 C229.2170638 555.37906261 224.3379216 554.80055401 218.57080078 554.64160156 C217.63945313 554.62806641 216.70810547 554.61453125 215.74853516 554.60058594 C213.45952432 554.56537039 211.1717162 554.51612255 208.88330078 554.45410156 C208.88330078 553.79410156 208.88330078 553.13410156 208.88330078 552.45410156 C205.02439419 550.52464827 202.16447446 549.24932323 197.82080078 549.39160156 C193.95884288 549.45290248 191.43501576 548.87478756 187.88330078 547.45410156 C187.88330078 546.46410156 187.88330078 545.47410156 187.88330078 544.45410156 C185.96924711 543.77996945 184.05194052 543.11506836 182.13330078 542.45410156 C181.06595703 542.08285156 179.99861328 541.71160156 178.89892578 541.32910156 C175.76637516 540.2683268 175.76637516 540.2683268 171.88330078 540.45410156 C171.22330078 539.79410156 170.56330078 539.13410156 169.88330078 538.45410156 C167.56054901 538.05362712 165.22590721 537.71439117 162.88330078 537.45410156 C163.21330078 536.79410156 163.54330078 536.13410156 163.88330078 535.45410156 C160.61201797 534.25729078 157.65896576 533.42368326 154.19580078 532.95410156 C150.88330078 532.45410156 150.88330078 532.45410156 147.88330078 530.45410156 C147.88330078 529.79410156 147.88330078 529.13410156 147.88330078 528.45410156 C146.23330078 528.45410156 144.58330078 528.45410156 142.88330078 528.45410156 C142.88330078 527.79410156 142.88330078 527.13410156 142.88330078 526.45410156 C137.60130485 525.25422111 137.60130485 525.25422111 132.88330078 527.45410156 C131.20318955 528.01413864 129.52111295 528.5686219 127.83251953 529.10253906 C119.61143117 531.31901277 119.61143117 531.31901277 113.50830078 536.64160156 C113.19892578 537.53878906 113.19892578 537.53878906 112.88330078 538.45410156 C112.55330078 538.12410156 112.22330078 537.79410156 111.88330078 537.45410156 C111.75955078 538.65035156 111.63580078 539.84660156 111.50830078 541.07910156 C111.06005025 544.73006969 110.17883241 547.99935055 108.88330078 551.45410156 C108.22330078 550.79410156 107.56330078 550.13410156 106.88330078 549.45410156 C106.83431641 550.06898438 106.78533203 550.68386719 106.73486328 551.31738281 C106.66009766 552.125625 106.58533203 552.93386719 106.50830078 553.76660156 C106.43869141 554.56710937 106.36908203 555.36761719 106.29736328 556.19238281 C105.71037975 559.39864193 104.15155093 561.18585142 101.88330078 563.45410156 C101.22330078 563.78410156 100.56330078 564.11410156 99.88330078 564.45410156 C100.19267578 565.72253906 100.19267578 565.72253906 100.50830078 567.01660156 C100.9417309 570.98971102 100.15957708 573.70034774 98.88330078 577.45410156 C97.89330078 577.45410156 96.90330078 577.45410156 95.88330078 577.45410156 C95.83431641 578.04578125 95.78533203 578.63746094 95.73486328 579.24707031 C95.31873211 583.64514628 94.83364483 587.42339053 92.88330078 591.45410156 C92.55330078 590.79410156 92.22330078 590.13410156 91.88330078 589.45410156 C91.75052734 590.01613281 91.61775391 590.57816406 91.48095703 591.15722656 C90.85892967 593.54776309 90.11215037 595.86445931 89.32080078 598.20410156 C89.05138672 599.00332031 88.78197266 599.80253906 88.50439453 600.62597656 C88.19695312 601.53089844 88.19695312 601.53089844 87.88330078 602.45410156 C87.55330078 601.79410156 87.22330078 601.13410156 86.88330078 600.45410156 C86.55330078 601.11410156 86.22330078 601.77410156 85.88330078 602.45410156 C85.22330078 602.45410156 84.56330078 602.45410156 83.88330078 602.45410156 C84.11017578 603.17597656 84.33705078 603.89785156 84.57080078 604.64160156 C84.88330078 607.45410156 84.88330078 607.45410156 83.63330078 610.26660156 C83.05580078 610.98847656 82.47830078 611.71035156 81.88330078 612.45410156 C80.89330078 612.45410156 79.90330078 612.45410156 78.88330078 612.45410156 C77.17550105 614.07859399 75.50779321 615.74630183 73.88330078 617.45410156 C70.91361037 618.93894677 67.87749934 618.62434546 64.61962891 618.64355469 C63.87152451 618.65184799 63.1234201 618.6601413 62.35264587 618.66868591 C60.7260806 618.68609953 59.09949006 618.70126276 57.47288513 618.71446228 C54.90133047 618.73545951 52.32990284 618.76248421 49.75842285 618.7911377 C43.3717884 618.86103587 36.98506343 618.92039597 30.59832764 618.98016357 C25.20322842 619.03105067 19.80819727 619.08586539 14.41319275 619.14598083 C11.87496956 619.17261111 9.33674022 619.19339172 6.79846191 619.21398926 C5.24796239 619.23058854 3.69746576 619.24746005 2.14697266 619.26464844 C1.43729843 619.26883286 0.72762421 619.27301727 -0.0035553 619.27732849 C-3.68401476 619.2783201 -3.68401476 619.2783201 -7.11669922 620.45410156 C-7.38482422 619.85597656 -7.65294922 619.25785156 -7.92919922 618.64160156 C-9.10163389 616.48185349 -10.31039204 615.096199 -12.11669922 613.45410156 C-12.77669922 613.78410156 -13.43669922 614.11410156 -14.11669922 614.45410156 C-15.43669922 611.15410156 -16.75669922 607.85410156 -18.11669922 604.45410156 C-18.77669922 604.45410156 -19.43669922 604.45410156 -20.11669922 604.45410156 C-20.77669922 602.14410156 -21.43669922 599.83410156 -22.11669922 597.45410156 C-22.77669922 597.45410156 -23.43669922 597.45410156 -24.11669922 597.45410156 C-25.91987143 593.48712271 -26.60872912 589.77184736 -27.11669922 585.45410156 C-28.10669922 585.12410156 -29.09669922 584.79410156 -30.11669922 584.45410156 C-31.58374475 580.86799025 -32.44454597 577.26296996 -33.11669922 573.45410156 C-33.44669922 574.11410156 -33.77669922 574.77410156 -34.11669922 575.45410156 C-36.15663435 570.52425832 -37.5232289 566.87449732 -37.11669922 561.45410156 C-38.10669922 561.45410156 -39.09669922 561.45410156 -40.11669922 561.45410156 C-40.59882136 559.89251097 -41.07725795 558.32978228 -41.55419922 556.76660156 C-41.82103516 555.89648438 -42.08787109 555.02636719 -42.36279297 554.12988281 C-43.08014451 551.58384236 -43.63424022 549.05375926 -44.11669922 546.45410156 C-44.77669922 546.45410156 -45.43669922 546.45410156 -46.11669922 546.45410156 C-46.40673828 545.514375 -46.40673828 545.514375 -46.70263672 544.55566406 C-46.96302734 543.73839844 -47.22341797 542.92113281 -47.49169922 542.07910156 C-47.74693359 541.26699219 -48.00216797 540.45488281 -48.26513672 539.61816406 C-49.01524205 537.28950972 -49.01524205 537.28950972 -51.11669922 535.45410156 C-51.55240234 534.96296875 -51.98810547 534.47183594 -52.43701172 533.96582031 C-54.48627937 532.12147942 -56.4327205 531.2816372 -58.99169922 530.26660156 C-59.83474609 529.92242188 -60.67779297 529.57824219 -61.54638672 529.22363281 C-64.20879272 528.42652949 -66.35459772 528.31055148 -69.11669922 528.45410156 C-69.11669922 527.79410156 -69.11669922 527.13410156 -69.11669922 526.45410156 C-73.66247616 525.04566974 -76.15940954 525.96785017 -80.42919922 527.89160156 C-81.49783203 528.3646875 -82.56646484 528.83777344 -83.66748047 529.32519531 C-84.47572266 529.69773437 -85.28396484 530.07027344 -86.11669922 530.45410156 C-85.78669922 531.11410156 -85.45669922 531.77410156 -85.11669922 532.45410156 C-86.72544922 532.54691406 -86.72544922 532.54691406 -88.36669922 532.64160156 C-95.01127562 533.43942704 -101.17833344 536.48491867 -107.11669922 539.45410156 C-106.45669922 540.11410156 -105.79669922 540.77410156 -105.11669922 541.45410156 C-112.40413467 544.4695921 -112.40413467 544.4695921 -115.99169922 544.39160156 C-120.09299485 544.47362748 -123.12791354 545.93371711 -126.84716797 547.57910156 C-129.11669922 548.45410156 -129.11669922 548.45410156 -132.11669922 548.45410156 C-132.11669922 549.11410156 -132.11669922 549.77410156 -132.11669922 550.45410156 C-133.33228516 550.8034375 -134.54787109 551.15277344 -135.80029297 551.51269531 C-137.38497785 551.97216016 -138.96961059 552.43180486 -140.55419922 552.89160156 C-141.35664063 553.12169922 -142.15908203 553.35179687 -142.98583984 553.58886719 C-146.85723169 554.44116018 -146.85723169 554.44116018 -150.11669922 556.45410156 C-159.56357285 558.16595115 -159.56357285 558.16595115 -164.11669922 556.07910156 C-164.77669922 555.54285156 -165.43669922 555.00660156 -166.11669922 554.45410156 C-167.10669922 554.12410156 -168.09669922 553.79410156 -169.11669922 553.45410156 C-169.78336589 552.12076823 -170.45003255 550.7874349 -171.11669922 549.45410156 C-172.10669922 549.12410156 -173.09669922 548.79410156 -174.11669922 548.45410156 C-174.78336589 547.12076823 -175.45003255 545.7874349 -176.11669922 544.45410156 C-177.10669922 544.12410156 -178.09669922 543.79410156 -179.11669922 543.45410156 C-179.78336589 541.7874349 -180.45003255 540.12076823 -181.11669922 538.45410156 C-182.10669922 538.12410156 -183.09669922 537.79410156 -184.11669922 537.45410156 C-185.10669922 535.96910156 -185.10669922 535.96910156 -186.11669922 534.45410156 C-188.17595061 533.73027689 -188.17595061 533.73027689 -190.11669922 533.45410156 C-190.17857422 532.83535156 -190.24044922 532.21660156 -190.30419922 531.57910156 C-190.57232422 530.87785156 -190.84044922 530.17660156 -191.11669922 529.45410156 C-192.76221883 528.73682378 -194.43092211 528.07084929 -196.11669922 527.45410156 C-198.11669922 524.45410156 -198.11669922 524.45410156 -198.11669922 522.45410156 C-199.30387664 520.97190036 -199.30387664 520.97190036 -200.89013672 519.45019531 C-201.75638672 518.5868457 -201.75638672 518.5868457 -202.64013672 517.70605469 C-203.25115234 517.10728516 -203.86216797 516.50851562 -204.49169922 515.89160156 C-205.39662109 514.98764648 -205.39662109 514.98764648 -206.31982422 514.06542969 C-209.42816883 510.86857657 -209.42816883 510.86857657 -213.11669922 508.45410156 C-213.11669922 507.79410156 -213.11669922 507.13410156 -213.11669922 506.45410156 C-214.10669922 506.78410156 -215.09669922 507.11410156 -216.11669922 507.45410156 C-219.11177939 504.41148044 -219.49755489 501.86885079 -219.53271484 497.66479492 C-219.51917969 496.93526611 -219.50564453 496.2057373 -219.49169922 495.45410156 C-219.48589844 494.70459229 -219.48009766 493.95508301 -219.47412109 493.18286133 C-219.3239856 486.67073414 -218.12434905 480.6563055 -216.11669922 474.45410156 C-215.45669922 475.11410156 -214.79669922 475.77410156 -214.11669922 476.45410156 C-213.33635017 473.77861912 -212.9895221 471.30950747 -212.67919922 468.51660156 C-212.297472 465.2226651 -211.53439775 462.4785251 -210.11669922 459.45410156 C-209.78669922 460.11410156 -209.45669922 460.77410156 -209.11669922 461.45410156 C-208.93107422 460.30941406 -208.93107422 460.30941406 -208.74169922 459.14160156 C-207.93547828 455.67485153 -206.0809474 453.40047384 -204.11669922 450.45410156 C-203.27275091 447.37790997 -202.59225885 444.28201839 -201.89794922 441.16894531 C-201.11669922 438.45410156 -201.11669922 438.45410156 -199.11669922 436.45410156 C-199.11669922 435.46410156 -199.11669922 434.47410156 -199.11669922 433.45410156 C-198.45669922 432.46410156 -197.79669922 431.47410156 -197.11669922 430.45410156 C-196.65263672 428.90722656 -196.65263672 428.90722656 -196.17919922 427.32910156 C-195.82857422 426.38035156 -195.47794922 425.43160156 -195.11669922 424.45410156 C-194.12669922 424.12410156 -193.13669922 423.79410156 -192.11669922 423.45410156 C-191.07873932 413.41827385 -191.07873932 413.41827385 -192.11669922 403.45410156 C-192.44669922 403.78410156 -192.77669922 404.11410156 -193.11669922 404.45410156 C-196.81940408 398.90004427 -197.33856216 394.9990582 -197.11669922 388.45410156 C-197.87595703 388.24914062 -198.63521484 388.04417969 -199.41748047 387.83300781 C-200.90828125 387.42888672 -200.90828125 387.42888672 -202.42919922 387.01660156 C-203.41533203 386.74976563 -204.40146484 386.48292969 -205.41748047 386.20800781 C-207.33187448 385.67330731 -209.23103537 385.08265618 -211.11669922 384.45410156 C-211.77669922 384.30972656 -212.43669922 384.16535156 -213.11669922 384.01660156 C-215.11669922 383.45410156 -215.11669922 383.45410156 -218.11669922 381.45410156 C-219.74661158 380.88540092 -221.39500253 380.36815279 -223.05419922 379.89160156 C-224.33617187 379.51841797 -224.33617187 379.51841797 -225.64404297 379.13769531 C-227.1677874 378.71643895 -228.70109208 378.32650018 -230.24560547 377.98925781 C-232.11669922 377.45410156 -232.11669922 377.45410156 -235.11669922 375.45410156 C-236.34322031 374.92835341 -237.58594949 374.43941755 -238.83935547 373.98144531 C-239.54253906 373.72169922 -240.24572266 373.46195312 -240.97021484 373.19433594 C-242.06366211 372.79698242 -242.06366211 372.79698242 -243.17919922 372.39160156 C-250.91867942 369.55311146 -250.91867942 369.55311146 -253.11669922 368.45410156 C-253.75607422 368.30972656 -254.39544922 368.16535156 -255.05419922 368.01660156 C-257.11669922 367.45410156 -257.11669922 367.45410156 -260.11669922 365.45410156 C-261.77253147 364.76096248 -263.43780901 364.08935732 -265.11669922 363.45410156 C-265.11669922 362.79410156 -265.11669922 362.13410156 -265.11669922 361.45410156 C-266.76669922 361.78410156 -268.41669922 362.11410156 -270.11669922 362.45410156 C-270.11669922 361.79410156 -270.11669922 361.13410156 -270.11669922 360.45410156 C-272.29421101 358.85632633 -272.29421101 358.85632633 -274.99169922 357.32910156 C-276.34908203 356.52085937 -276.34908203 356.52085937 -277.73388672 355.69628906 C-279.96441944 354.30001226 -279.96441944 354.30001226 -282.11669922 354.45410156 C-283.68668756 351.31412488 -283.24614467 347.96233795 -283.23022461 344.51611328 C-283.23037064 343.6965213 -283.23051666 342.87692932 -283.23066711 342.03250122 C-283.22996896 339.31623716 -283.22218109 336.60004118 -283.21435547 333.88378906 C-283.21249094 332.00334714 -283.2110672 330.12290474 -283.21006775 328.24246216 C-283.20624529 323.28748234 -283.1964173 318.33253173 -283.18536377 313.37756348 C-283.17514383 308.32365311 -283.17056888 303.26973803 -283.16552734 298.21582031 C-283.15479481 288.29523455 -283.13772162 278.37467048 -283.11669922 268.45410156 C-282.20791016 268.02291016 -282.20791016 268.02291016 -281.28076172 267.58300781 C-278.60447114 266.18689233 -276.45101186 264.35840924 -274.11669922 262.45410156 C-273.45669922 262.12410156 -272.79669922 261.79410156 -272.11669922 261.45410156 C-271.45669922 261.78410156 -270.79669922 262.11410156 -270.11669922 262.45410156 C-270.11669922 261.79410156 -270.11669922 261.13410156 -270.11669922 260.45410156 C-266.81669922 258.80410156 -263.51669922 257.15410156 -260.11669922 255.45410156 C-260.11669922 254.79410156 -260.11669922 254.13410156 -260.11669922 253.45410156 C-257.3383525 252.14664428 -255.46492628 251.43827306 -252.36669922 251.57910156 C-248.40670018 251.42679391 -245.83987128 250.10231678 -242.30810547 248.41113281 C-239.61765339 247.2361582 -237.02877138 246.75277563 -234.11669922 246.45410156 C-234.11669922 245.79410156 -234.11669922 245.13410156 -234.11669922 244.45410156 C-232.68115897 243.94850248 -231.24317902 243.44982666 -229.80419922 242.95410156 C-228.6034375 242.53644531 -228.6034375 242.53644531 -227.37841797 242.11035156 C-225.11669922 241.45410156 -225.11669922 241.45410156 -222.11669922 241.45410156 C-222.11669922 240.79410156 -222.11669922 240.13410156 -222.11669922 239.45410156 C-220.79669922 239.12410156 -219.47669922 238.79410156 -218.11669922 238.45410156 C-218.44669922 237.79410156 -218.77669922 237.13410156 -219.11669922 236.45410156 C-218.49923828 236.34453125 -217.88177734 236.23496094 -217.24560547 236.12207031 C-208.43236602 234.59002342 -208.43236602 234.59002342 -200.11669922 231.45410156 C-199.78669922 230.46410156 -199.45669922 229.47410156 -199.11669922 228.45410156 C-198.45669922 228.45410156 -197.79669922 228.45410156 -197.11669922 228.45410156 C-197.04322266 227.56658203 -197.04322266 227.56658203 -196.96826172 226.66113281 C-196.55213055 222.26305685 -196.06704327 218.48481259 -194.11669922 214.45410156 C-193.78669922 215.11410156 -193.45669922 215.77410156 -193.11669922 216.45410156 C-191.77909554 210.14825565 -190.92838021 204.84131623 -192.11669922 198.45410156 C-191.78669922 197.79410156 -191.45669922 197.13410156 -191.11669922 196.45410156 C-191.77669922 196.12410156 -192.43669922 195.79410156 -193.11669922 195.45410156 C-193.44669922 195.78410156 -193.77669922 196.11410156 -194.11669922 196.45410156 C-196.67048622 193.90031457 -196.51182945 191.91923477 -196.77294922 188.42675781 C-197.03473998 186.13977796 -197.03473998 186.13977796 -199.11669922 183.45410156 C-199.44669922 184.11410156 -199.77669922 184.77410156 -200.11669922 185.45410156 C-203.4024135 177.02553013 -203.4024135 177.02553013 -204.11669922 172.45410156 C-204.77669922 172.45410156 -205.43669922 172.45410156 -206.11669922 172.45410156 C-207.53833112 169.13696046 -208.50679031 166.01190352 -209.11669922 162.45410156 C-209.44669922 163.11410156 -209.77669922 163.77410156 -210.11669922 164.45410156 C-210.39384766 163.61105469 -210.67099609 162.76800781 -210.95654297 161.89941406 C-211.49988281 160.25585938 -211.49988281 160.25585938 -212.05419922 158.57910156 C-212.59367187 156.94328125 -212.59367187 156.94328125 -213.14404297 155.27441406 C-214.01583996 152.54651474 -214.01583996 152.54651474 -215.11669922 150.45410156 C-215.11669922 150.12410156 -215.11669922 149.79410156 -215.11669922 149.45410156 C-215.77669922 148.79410156 -216.43669922 148.13410156 -217.11669922 147.45410156 C-218.68777043 142.9154514 -219.11669922 139.20643599 -219.11669922 134.45410156 C-219.44472574 133.15555029 -219.80101084 131.86394021 -220.17919922 130.57910156 C-221.37447767 126.24935165 -220.90145162 122.84871501 -220.11669922 118.45410156 C-219.45669922 118.45410156 -218.79669922 118.45410156 -218.11669922 118.45410156 C-217.88998535 117.89996582 -217.66327148 117.34583008 -217.4296875 116.77490234 C-215.7307227 113.77186043 -213.57983501 111.72931666 -211.10888672 109.32128906 C-210.38066208 108.60442429 -210.38066208 108.60442429 -209.63772583 107.87307739 C-208.09379166 106.35349187 -206.5435834 104.84056458 -204.99169922 103.32910156 C-202.94175105 101.33218563 -200.8983968 99.32885813 -198.85888672 97.32128906 C-197.94993652 96.43554199 -197.04098633 95.54979492 -196.10449219 94.63720703 C-193.89228021 92.69971578 -193.89228021 92.69971578 -194.11669922 90.45410156 C-193.55982422 90.22722656 -193.00294922 90.00035156 -192.42919922 89.76660156 C-189.45814737 88.08032889 -187.47147796 85.92374756 -185.11669922 83.45410156 C-175.11669922 73.45410156 -175.11669922 73.45410156 -172.86669922 71.26660156 C-171.04562826 69.56157473 -171.04562826 69.56157473 -170.11669922 67.45410156 C-164.7828871 63.28706084 -158.61791591 63.45410156 -152.11669922 63.45410156 C-151.45669922 64.11410156 -150.79669922 64.77410156 -150.11669922 65.45410156 C-148.3457721 66.04159961 -146.54922958 66.55381564 -144.74169922 67.01660156 C-143.78521484 67.26539062 -142.82873047 67.51417969 -141.84326172 67.77050781 C-140.94349609 67.99609375 -140.04373047 68.22167969 -139.11669922 68.45410156 C-138.38322266 68.63972656 -137.64974609 68.82535156 -136.89404297 69.01660156 C-135.61933448 69.33037596 -134.33838484 69.61919855 -133.05419922 69.89160156 C-131.11669922 70.45410156 -131.11669922 70.45410156 -128.11669922 72.45410156 C-125.40573436 73.43466332 -122.74015728 74.31159686 -119.92919922 74.95410156 C-118.11669922 75.45410156 -118.11669922 75.45410156 -115.11669922 77.45410156 C-112.10822504 78.6793042 -112.10822504 78.6793042 -109.11669922 79.45410156 C-108.45669922 79.12410156 -107.79669922 78.79410156 -107.11669922 78.45410156 C-106.78669922 79.11410156 -106.45669922 79.77410156 -106.11669922 80.45410156 C-103.79513325 80.86139384 -101.45982052 81.19848833 -99.11669922 81.45410156 C-99.44669922 82.11410156 -99.77669922 82.77410156 -100.11669922 83.45410156 C-96.84541641 84.65091235 -93.8923642 85.48451987 -90.42919922 85.95410156 C-87.11669922 86.45410156 -87.11669922 86.45410156 -84.11669922 88.45410156 C-84.11669922 89.11410156 -84.11669922 89.77410156 -84.11669922 90.45410156 C-82.46669922 90.45410156 -80.81669922 90.45410156 -79.11669922 90.45410156 C-79.11669922 91.11410156 -79.11669922 91.77410156 -79.11669922 92.45410156 C-73.45877718 93.70979523 -69.73565674 93.01639991 -64.55419922 90.70410156 C-63.60383789 90.30578125 -63.60383789 90.30578125 -62.63427734 89.89941406 C-55.27433019 87.24975576 -55.27433019 87.24975576 -49.74169922 82.26660156 C-49.53544922 81.66847656 -49.32919922 81.07035156 -49.11669922 80.45410156 C-48.78669922 80.78410156 -48.45669922 81.11410156 -48.11669922 81.45410156 C-47.78669922 78.81410156 -47.45669922 76.17410156 -47.11669922 73.45410156 C-46.45669922 73.45410156 -45.79669922 73.45410156 -45.11669922 73.45410156 C-43.18760979 68.21800169 -42.13261343 62.92274613 -41.11669922 57.45410156 C-40.12669922 57.12410156 -39.13669922 56.79410156 -38.11669922 56.45410156 C-38.11669922 55.79410156 -38.11669922 55.13410156 -38.11669922 54.45410156 C-37.45669922 54.45410156 -36.79669922 54.45410156 -36.11669922 54.45410156 C-36.32294922 53.42285156 -36.52919922 52.39160156 -36.74169922 51.32910156 C-37.12864324 47.33067996 -36.63552998 45.11716399 -35.11669922 41.45410156 C-34.45669922 41.78410156 -33.79669922 42.11410156 -33.11669922 42.45410156 C-32.99552734 41.79023437 -32.87435547 41.12636719 -32.74951172 40.44238281 C-31.89122214 35.91985697 -31.07698611 31.65471632 -29.11669922 27.45410156 C-28.78669922 28.11410156 -28.45669922 28.77410156 -28.11669922 29.45410156 C-28.03419922 28.81472656 -27.95169922 28.17535156 -27.86669922 27.51660156 C-26.8214955 23.24868639 -24.97578095 19.42302489 -23.11669922 15.45410156 C-22.12669922 15.78410156 -21.13669922 16.11410156 -20.11669922 16.45410156 C-20.32294922 15.67035156 -20.52919922 14.88660156 -20.74169922 14.07910156 C-20.86544922 13.21285156 -20.98919922 12.34660156 -21.11669922 11.45410156 C-20.45669922 10.79410156 -19.79669922 10.13410156 -19.11669922 9.45410156 C-18.00294922 8.27847656 -18.00294922 8.27847656 -16.86669922 7.07910156 C-11.45311796 1.91159218 -7.49218283 -0.14642602 0 0 Z M81.88330078 14.45410156 C82.88330078 16.45410156 82.88330078 16.45410156 82.88330078 16.45410156 Z M-24.11669922 19.45410156 C-23.11669922 21.45410156 -23.11669922 21.45410156 -23.11669922 21.45410156 Z M-26.11669922 24.45410156 C-25.11669922 26.45410156 -25.11669922 26.45410156 -25.11669922 26.45410156 Z M-29.11669922 30.45410156 C-28.11669922 32.45410156 -28.11669922 32.45410156 -28.11669922 32.45410156 Z M88.88330078 30.45410156 C89.88330078 32.45410156 89.88330078 32.45410156 89.88330078 32.45410156 Z M-31.11669922 35.45410156 C-30.11669922 38.45410156 -30.11669922 38.45410156 -30.11669922 38.45410156 Z M91.88330078 35.45410156 C92.88330078 37.45410156 92.88330078 37.45410156 92.88330078 37.45410156 Z M93.88330078 41.45410156 C94.88330078 43.45410156 94.88330078 43.45410156 94.88330078 43.45410156 Z M-35.11669922 45.45410156 C-34.11669922 48.45410156 -34.11669922 48.45410156 -34.11669922 48.45410156 Z M-41.11669922 61.45410156 C-40.11669922 64.45410156 -40.11669922 64.45410156 -40.11669922 64.45410156 Z M102.88330078 61.45410156 C103.88330078 64.45410156 103.88330078 64.45410156 103.88330078 64.45410156 Z M107.88330078 73.45410156 C108.88330078 75.45410156 108.88330078 75.45410156 108.88330078 75.45410156 Z M-47.11669922 77.45410156 C-46.11669922 79.45410156 -46.11669922 79.45410156 -46.11669922 79.45410156 Z M109.88330078 79.45410156 C110.88330078 81.45410156 110.88330078 81.45410156 110.88330078 81.45410156 Z M280.88330078 116.45410156 C281.88330078 118.45410156 281.88330078 118.45410156 281.88330078 118.45410156 Z M280.88330078 126.45410156 C280.88330078 128.10410156 280.88330078 129.75410156 280.88330078 131.45410156 C281.21330078 131.45410156 281.54330078 131.45410156 281.88330078 131.45410156 C281.88330078 129.80410156 281.88330078 128.15410156 281.88330078 126.45410156 C281.55330078 126.45410156 281.22330078 126.45410156 280.88330078 126.45410156 Z M279.88330078 132.45410156 C280.88330078 135.45410156 280.88330078 135.45410156 280.88330078 135.45410156 Z M278.88330078 136.45410156 C279.88330078 139.45410156 279.88330078 139.45410156 279.88330078 139.45410156 Z M-216.11669922 143.45410156 C-215.11669922 146.45410156 -215.11669922 146.45410156 -215.11669922 146.45410156 Z M274.88330078 147.45410156 C275.88330078 149.45410156 275.88330078 149.45410156 275.88330078 149.45410156 Z M-212.11669922 153.45410156 C-211.11669922 155.45410156 -211.11669922 155.45410156 -211.11669922 155.45410156 Z M-210.11669922 158.45410156 C-210.11669922 159.44410156 -210.11669922 160.43410156 -210.11669922 161.45410156 C-209.45669922 161.12410156 -208.79669922 160.79410156 -208.11669922 160.45410156 C-208.77669922 159.79410156 -209.43669922 159.13410156 -210.11669922 158.45410156 Z M269.88330078 159.45410156 C270.88330078 161.45410156 270.88330078 161.45410156 270.88330078 161.45410156 Z M-207.11669922 164.45410156 C-206.11669922 166.45410156 -206.11669922 166.45410156 -206.11669922 166.45410156 Z M267.88330078 165.45410156 C268.88330078 167.45410156 268.88330078 167.45410156 268.88330078 167.45410156 Z M264.88330078 171.45410156 C265.88330078 173.45410156 265.88330078 173.45410156 265.88330078 173.45410156 Z M263.88330078 174.45410156 C264.88330078 176.45410156 264.88330078 176.45410156 264.88330078 176.45410156 Z M-202.11669922 175.45410156 C-201.11669922 177.45410156 -201.11669922 177.45410156 -201.11669922 177.45410156 Z M262.88330078 177.45410156 C263.88330078 179.45410156 263.88330078 179.45410156 263.88330078 179.45410156 Z M261.88330078 179.45410156 C261.55330078 180.44410156 261.22330078 181.43410156 260.88330078 182.45410156 C261.54330078 182.45410156 262.20330078 182.45410156 262.88330078 182.45410156 C262.55330078 181.46410156 262.22330078 180.47410156 261.88330078 179.45410156 Z M-200.11669922 180.45410156 C-199.11669922 182.45410156 -199.11669922 182.45410156 -199.11669922 182.45410156 Z M258.88330078 185.45410156 C259.88330078 187.45410156 259.88330078 187.45410156 259.88330078 187.45410156 Z M-195.11669922 191.45410156 C-194.11669922 193.45410156 -194.11669922 193.45410156 -194.11669922 193.45410156 Z M256.88330078 191.45410156 C256.55330078 192.11410156 256.22330078 192.77410156 255.88330078 193.45410156 C256.54330078 193.45410156 257.20330078 193.45410156 257.88330078 193.45410156 C257.55330078 192.79410156 257.22330078 192.13410156 256.88330078 191.45410156 Z M253.88330078 196.45410156 C254.88330078 199.45410156 254.88330078 199.45410156 254.88330078 199.45410156 Z M-190.11669922 201.45410156 C-189.11669922 204.45410156 -189.11669922 204.45410156 -189.11669922 204.45410156 Z M251.88330078 202.45410156 C251.88330078 204.43410156 251.88330078 206.41410156 251.88330078 208.45410156 C252.21330078 208.45410156 252.54330078 208.45410156 252.88330078 208.45410156 C252.88330078 206.47410156 252.88330078 204.49410156 252.88330078 202.45410156 C252.55330078 202.45410156 252.22330078 202.45410156 251.88330078 202.45410156 Z M19.69580078 203.32910156 C18.78765625 203.40773437 17.87951172 203.48636719 16.94384766 203.56738281 C8.1228929 204.38823043 0.08958091 206.11412759 -8.11669922 209.45410156 C-10.77906257 210.5190469 -13.39559424 211.54706657 -16.11669922 212.45410156 C-16.11669922 213.11410156 -16.11669922 213.77410156 -16.11669922 214.45410156 C-16.81666016 214.54820312 -17.51662109 214.64230469 -18.23779297 214.73925781 C-31.44131023 218.0177431 -44.98672611 231.20575517 -53.11669922 241.45410156 C-52.45669922 241.78410156 -51.79669922 242.11410156 -51.11669922 242.45410156 C-51.11669922 243.11410156 -51.11669922 243.77410156 -51.11669922 244.45410156 C-52.10669922 244.45410156 -53.09669922 244.45410156 -54.11669922 244.45410156 C-54.76638672 245.90816406 -54.76638672 245.90816406 -55.42919922 247.39160156 C-57.11669922 250.45410156 -57.11669922 250.45410156 -60.11669922 251.45410156 C-60.44669922 252.44410156 -60.77669922 253.43410156 -61.11669922 254.45410156 C-62.10669922 255.56785156 -62.10669922 255.56785156 -63.11669922 256.70410156 C-65.50925688 259.99386835 -65.80248973 262.44793053 -66.11669922 266.45410156 C-66.77669922 266.12410156 -67.43669922 265.79410156 -68.11669922 265.45410156 C-69.67372929 269.77265667 -71.02760825 273.83046481 -71.67919922 278.39160156 C-72.11669922 281.45410156 -72.11669922 281.45410156 -74.11669922 283.45410156 C-76.30101144 288.50728202 -76.42349343 293.10623015 -76.41748047 298.50878906 C-76.42176559 299.36916779 -76.42605072 300.22954651 -76.4304657 301.11599731 C-76.43618855 302.92969893 -76.43672439 304.74342348 -76.43237305 306.55712891 C-76.42921702 309.31355479 -76.45268382 312.06890216 -76.47802734 314.82519531 C-76.48030113 316.59472522 -76.48100346 318.36425799 -76.47998047 320.13378906 C-76.48919022 320.94862762 -76.49839996 321.76346619 -76.50788879 322.60299683 C-76.45866392 328.77397355 -75.6758745 334.89492628 -71.11669922 339.45410156 C-71.13732422 340.50597656 -71.15794922 341.55785156 -71.17919922 342.64160156 C-71.10567823 347.12638172 -70.06541348 349.47547662 -68.11669922 353.45410156 C-67.45669922 353.12410156 -66.79669922 352.79410156 -66.11669922 352.45410156 C-64.11669922 359.32910156 -64.11669922 359.32910156 -64.11669922 360.45410156 C-63.66294922 361.05222656 -63.20919922 361.65035156 -62.74169922 362.26660156 C-61.25238369 364.2714494 -60.16499338 366.19623721 -59.11669922 368.45410156 C-58.45669922 368.45410156 -57.79669922 368.45410156 -57.11669922 368.45410156 C-56.12669922 370.43410156 -55.13669922 372.41410156 -54.11669922 374.45410156 C-53.12669922 374.45410156 -52.13669922 374.45410156 -51.11669922 374.45410156 C-51.11669922 375.11410156 -51.11669922 375.77410156 -51.11669922 376.45410156 C-51.77669922 376.78410156 -52.43669922 377.11410156 -53.11669922 377.45410156 C-50.42828063 379.70656038 -48.47028047 381.33624114 -45.11669922 382.45410156 C-44.86919922 383.17597656 -44.62169922 383.89785156 -44.36669922 384.64160156 C-42.60373834 388.60826355 -39.66935862 391.01583768 -36.11669922 393.45410156 C-35.45669922 393.45410156 -34.79669922 393.45410156 -34.11669922 393.45410156 C-33.78669922 394.11410156 -33.45669922 394.77410156 -33.11669922 395.45410156 C-31.54683323 396.66652994 -29.93600226 397.82641337 -28.30419922 398.95410156 C-27.43150391 399.56253906 -26.55880859 400.17097656 -25.65966797 400.79785156 C-21.23736246 403.72756644 -21.23736246 403.72756644 -16.11669922 404.45410156 C-16.11669922 405.11410156 -16.11669922 405.77410156 -16.11669922 406.45410156 C-15.12669922 406.78410156 -14.13669922 407.11410156 -13.11669922 407.45410156 C-11.45003255 408.07910156 -9.78336589 408.70410156 -8.11669922 409.32910156 C-6.11940053 410.04501642 -4.11939285 410.75342024 -2.11669922 411.45410156 C-0.91400391 411.87949219 -0.91400391 411.87949219 0.31298828 412.31347656 C22.08108672 419.12904732 50.80550481 418.60106963 71.88330078 409.45410156 C74.54566414 408.38915622 77.1621958 407.36113656 79.88330078 406.45410156 C79.88330078 405.79410156 79.88330078 405.13410156 79.88330078 404.45410156 C80.62580078 404.33035156 81.36830078 404.20660156 82.13330078 404.07910156 C84.68471563 403.49923455 86.61005808 402.71701417 88.88330078 401.45410156 C88.88330078 400.79410156 88.88330078 400.13410156 88.88330078 399.45410156 C90.27548828 399.02097656 90.27548828 399.02097656 91.69580078 398.57910156 C94.98121745 397.56660156 94.98121745 397.56660156 97.88330078 395.45410156 C97.88330078 394.79410156 97.88330078 394.13410156 97.88330078 393.45410156 C98.68767578 393.18597656 99.49205078 392.91785156 100.32080078 392.64160156 C101.16642578 392.24972656 102.01205078 391.85785156 102.88330078 391.45410156 C103.21330078 390.46410156 103.54330078 389.47410156 103.88330078 388.45410156 C104.84236328 388.02097656 104.84236328 388.02097656 105.82080078 387.57910156 C108.14342429 386.59934081 108.14342429 386.59934081 108.88330078 383.89160156 C109.21330078 383.08722656 109.54330078 382.28285156 109.88330078 381.45410156 C112.00830078 380.64160156 112.00830078 380.64160156 113.88330078 380.45410156 C114.21330078 378.47410156 114.54330078 376.49410156 114.88330078 374.45410156 C115.87330078 374.45410156 116.86330078 374.45410156 117.88330078 374.45410156 C118.31642578 373.48472656 118.74955078 372.51535156 119.19580078 371.51660156 C120.88330078 368.45410156 120.88330078 368.45410156 123.88330078 367.45410156 C124.03798828 366.06191406 124.03798828 366.06191406 124.19580078 364.64160156 C124.88330078 361.45410156 124.88330078 361.45410156 126.32080078 360.04785156 C128.24957159 358.08050534 128.77317245 356.38738037 129.57080078 353.76660156 C129.82216797 352.95835937 130.07353516 352.15011719 130.33251953 351.31738281 C130.51427734 350.7025 130.69603516 350.08761719 130.88330078 349.45410156 C131.54330078 349.45410156 132.20330078 349.45410156 132.88330078 349.45410156 C134.68560246 345.6242105 135.0795232 342.67288348 134.88330078 338.45410156 C135.54330078 338.12410156 136.20330078 337.79410156 136.88330078 337.45410156 C137.76429485 335.05009182 137.76429485 335.05009182 138.44580078 332.20410156 C138.69458984 331.25019531 138.94337891 330.29628906 139.19970703 329.31347656 C140.79058315 322.65906903 141.06665545 316.53560313 141.07080078 309.70410156 C141.08304688 308.65738281 141.09529297 307.61066406 141.10791016 306.53222656 C141.11974694 300.21927635 140.55625967 294.53934464 138.88330078 288.45410156 C138.71725342 287.78548096 138.55120605 287.11686035 138.38012695 286.42797852 C137.60143741 283.43222399 137.10925035 281.68005113 134.88330078 279.45410156 C134.83983279 277.45457398 134.84330878 275.45370168 134.88330078 273.45410156 C134.44388555 271.18843813 134.44388555 271.18843813 133.88330078 269.45410156 C132.89330078 269.45410156 131.90330078 269.45410156 130.88330078 269.45410156 C130.61066406 268.53177734 130.61066406 268.53177734 130.33251953 267.59082031 C129.95546875 266.37845703 129.95546875 266.37845703 129.57080078 265.14160156 C129.32716797 264.34109375 129.08353516 263.54058594 128.83251953 262.71582031 C127.82747684 260.32108896 126.70677924 259.24824793 124.88330078 257.45410156 C124.55330078 256.25785156 124.22330078 255.06160156 123.88330078 253.82910156 C123.55330078 252.71535156 123.22330078 251.60160156 122.88330078 250.45410156 C121.89330078 250.12410156 120.90330078 249.79410156 119.88330078 249.45410156 C118.69580078 246.89160156 118.69580078 246.89160156 117.88330078 244.45410156 C116.89330078 244.45410156 115.90330078 244.45410156 114.88330078 244.45410156 C114.22330078 242.14410156 113.56330078 239.83410156 112.88330078 237.45410156 C112.26455078 237.39222656 111.64580078 237.33035156 111.00830078 237.26660156 C110.30705078 236.99847656 109.60580078 236.73035156 108.88330078 236.45410156 C108.48111328 235.37128906 108.48111328 235.37128906 108.07080078 234.26660156 C106.38225744 230.26741997 103.43213719 227.88974165 99.88330078 225.45410156 C99.22330078 225.45410156 98.56330078 225.45410156 97.88330078 225.45410156 C97.55330078 224.79410156 97.22330078 224.13410156 96.88330078 223.45410156 C95.31343479 222.24167318 93.70260382 221.08178975 92.07080078 219.95410156 C91.19810547 219.34566406 90.32541016 218.73722656 89.42626953 218.11035156 C85.00396402 215.18063668 85.00396402 215.18063668 79.88330078 214.45410156 C79.88330078 213.79410156 79.88330078 213.13410156 79.88330078 212.45410156 C78.89330078 212.12410156 77.90330078 211.79410156 76.88330078 211.45410156 C75.21663411 210.82910156 73.54996745 210.20410156 71.88330078 209.57910156 C69.8860021 208.86318671 67.88599442 208.15478289 65.88330078 207.45410156 C65.08150391 207.17050781 64.27970703 206.88691406 63.45361328 206.59472656 C49.53421327 202.23657576 34.09110186 201.98860792 19.69580078 203.32910156 Z M-189.11669922 206.45410156 C-188.11669922 208.45410156 -188.11669922 208.45410156 -188.11669922 208.45410156 Z M-191.11669922 211.45410156 C-190.11669922 214.45410156 -190.11669922 214.45410156 -190.11669922 214.45410156 Z M253.88330078 212.45410156 C254.88330078 214.45410156 254.88330078 214.45410156 254.88330078 214.45410156 Z M-194.11669922 217.45410156 C-193.78669922 218.44410156 -193.45669922 219.43410156 -193.11669922 220.45410156 C-192.78669922 219.46410156 -192.45669922 218.47410156 -192.11669922 217.45410156 C-192.77669922 217.45410156 -193.43669922 217.45410156 -194.11669922 217.45410156 Z M-196.11669922 223.45410156 C-195.11669922 225.45410156 -195.11669922 225.45410156 -195.11669922 225.45410156 Z M124.88330078 254.45410156 C125.88330078 256.45410156 125.88330078 256.45410156 125.88330078 256.45410156 Z M125.88330078 256.45410156 C125.88330078 257.11410156 125.88330078 257.77410156 125.88330078 258.45410156 C126.54330078 258.12410156 127.20330078 257.79410156 127.88330078 257.45410156 C127.22330078 257.12410156 126.56330078 256.79410156 125.88330078 256.45410156 Z M128.88330078 261.45410156 C129.88330078 263.45410156 129.88330078 263.45410156 129.88330078 263.45410156 Z M130.88330078 266.45410156 C131.88330078 268.45410156 131.88330078 268.45410156 131.88330078 268.45410156 Z M134.88330078 277.45410156 C135.88330078 279.45410156 135.88330078 279.45410156 135.88330078 279.45410156 Z M-77.11669922 298.45410156 C-77.11669922 305.71410156 -77.11669922 312.97410156 -77.11669922 320.45410156 C-76.78669922 320.45410156 -76.45669922 320.45410156 -76.11669922 320.45410156 C-76.11669922 313.19410156 -76.11669922 305.93410156 -76.11669922 298.45410156 C-76.44669922 298.45410156 -76.77669922 298.45410156 -77.11669922 298.45410156 Z M134.88330078 339.45410156 C135.88330078 341.45410156 135.88330078 341.45410156 135.88330078 341.45410156 Z M130.88330078 350.45410156 C131.88330078 352.45410156 131.88330078 352.45410156 131.88330078 352.45410156 Z M128.88330078 355.45410156 C129.88330078 357.45410156 129.88330078 357.45410156 129.88330078 357.45410156 Z M125.88330078 360.45410156 C126.21330078 361.11410156 126.54330078 361.77410156 126.88330078 362.45410156 C127.21330078 361.79410156 127.54330078 361.13410156 127.88330078 360.45410156 C127.22330078 360.45410156 126.56330078 360.45410156 125.88330078 360.45410156 Z M124.88330078 362.45410156 C125.88330078 364.45410156 125.88330078 364.45410156 125.88330078 364.45410156 Z M-196.11669922 393.45410156 C-195.11669922 395.45410156 -195.11669922 395.45410156 -195.11669922 395.45410156 Z M-194.11669922 398.45410156 C-194.11669922 399.44410156 -194.11669922 400.43410156 -194.11669922 401.45410156 C-193.45669922 401.12410156 -192.79669922 400.79410156 -192.11669922 400.45410156 C-192.77669922 399.79410156 -193.43669922 399.13410156 -194.11669922 398.45410156 Z M-191.11669922 404.45410156 C-190.11669922 407.45410156 -190.11669922 407.45410156 -190.11669922 407.45410156 Z M253.88330078 404.45410156 C254.88330078 407.45410156 254.88330078 407.45410156 254.88330078 407.45410156 Z M-190.11669922 407.45410156 C-189.11669922 409.45410156 -189.11669922 409.45410156 -189.11669922 409.45410156 Z M-189.11669922 410.45410156 C-188.11669922 413.45410156 -188.11669922 413.45410156 -188.11669922 413.45410156 Z M251.88330078 410.45410156 C252.88330078 412.45410156 252.88330078 412.45410156 252.88330078 412.45410156 Z M252.88330078 414.45410156 C253.88330078 417.45410156 253.88330078 417.45410156 253.88330078 417.45410156 Z M-191.11669922 419.45410156 C-190.11669922 421.45410156 -190.11669922 421.45410156 -190.11669922 421.45410156 Z M257.88330078 425.45410156 C258.88330078 428.45410156 258.88330078 428.45410156 258.88330078 428.45410156 Z M-195.11669922 428.45410156 C-194.11669922 430.45410156 -194.11669922 430.45410156 -194.11669922 430.45410156 Z M-196.11669922 430.45410156 C-195.11669922 433.45410156 -195.11669922 433.45410156 -195.11669922 433.45410156 Z M262.88330078 436.45410156 C263.88330078 438.45410156 263.88330078 438.45410156 263.88330078 438.45410156 Z M264.88330078 441.45410156 C265.88330078 443.45410156 265.88330078 443.45410156 265.88330078 443.45410156 Z M-201.11669922 442.45410156 C-200.11669922 444.45410156 -200.11669922 444.45410156 -200.11669922 444.45410156 Z M269.88330078 452.45410156 C270.88330078 454.45410156 270.88330078 454.45410156 270.88330078 454.45410156 Z M-207.11669922 456.45410156 C-206.11669922 459.45410156 -206.11669922 459.45410156 -206.11669922 459.45410156 Z M273.88330078 460.45410156 C274.88330078 462.45410156 274.88330078 462.45410156 274.88330078 462.45410156 Z M-210.11669922 462.45410156 C-209.11669922 465.45410156 -209.11669922 465.45410156 -209.11669922 465.45410156 Z M-211.11669922 465.45410156 C-210.11669922 468.45410156 -210.11669922 468.45410156 -210.11669922 468.45410156 Z M-212.11669922 468.45410156 C-211.11669922 471.45410156 -211.11669922 471.45410156 -211.11669922 471.45410156 Z M278.88330078 472.45410156 C279.88330078 475.45410156 279.88330078 475.45410156 279.88330078 475.45410156 Z M-216.11669922 478.45410156 C-215.11669922 480.45410156 -215.11669922 480.45410156 -215.11669922 480.45410156 Z M-217.11669922 484.45410156 C-216.11669922 486.45410156 -216.11669922 486.45410156 -216.11669922 486.45410156 Z M-218.11669922 489.45410156 C-217.11669922 491.45410156 -217.11669922 491.45410156 -217.11669922 491.45410156 Z M-218.11669922 501.45410156 C-217.11669922 503.45410156 -217.11669922 503.45410156 -217.11669922 503.45410156 Z M-47.11669922 537.45410156 C-46.11669922 540.45410156 -46.11669922 540.45410156 -46.11669922 540.45410156 Z M109.88330078 539.45410156 C110.88330078 541.45410156 110.88330078 541.45410156 110.88330078 541.45410156 Z M-46.11669922 540.45410156 C-45.11669922 542.45410156 -45.11669922 542.45410156 -45.11669922 542.45410156 Z M108.88330078 542.45410156 C109.88330078 545.45410156 109.88330078 545.45410156 109.88330078 545.45410156 Z M103.88330078 554.45410156 C104.88330078 557.45410156 104.88330078 557.45410156 104.88330078 557.45410156 Z M-40.11669922 555.45410156 C-39.11669922 557.45410156 -39.11669922 557.45410156 -39.11669922 557.45410156 Z M-36.11669922 564.45410156 C-35.11669922 566.45410156 -35.11669922 566.45410156 -35.11669922 566.45410156 Z M98.88330078 567.45410156 C99.88330078 569.45410156 99.88330078 569.45410156 99.88330078 569.45410156 Z M-34.11669922 569.45410156 C-33.11669922 572.45410156 -33.11669922 572.45410156 -33.11669922 572.45410156 Z M97.88330078 570.45410156 C98.88330078 573.45410156 98.88330078 573.45410156 98.88330078 573.45410156 Z M-31.11669922 575.45410156 C-30.11669922 578.45410156 -30.11669922 578.45410156 -30.11669922 578.45410156 Z M93.88330078 580.45410156 C94.88330078 582.45410156 94.88330078 582.45410156 94.88330078 582.45410156 Z M91.88330078 586.45410156 C92.88330078 588.45410156 92.88330078 588.45410156 92.88330078 588.45410156 Z M88.88330078 591.45410156 C89.88330078 593.45410156 89.88330078 593.45410156 89.88330078 593.45410156 Z M-24.11669922 592.45410156 C-23.11669922 594.45410156 -23.11669922 594.45410156 -23.11669922 594.45410156 Z M86.88330078 597.45410156 C87.88330078 599.45410156 87.88330078 599.45410156 87.88330078 599.45410156 Z " fill="#000000" transform="translate(568.11669921875,5.5458984375)"/>
<path d="M0 0 C25.41 0 50.82 0 77 0 C77 0.33 77 0.66 77 1 C51.59 1 26.18 1 0 1 C0 0.67 0 0.34 0 0 Z " fill="#000000" transform="translate(563,626)"/>
<path d="M0 0 C25.41 0 50.82 0 77 0 C77 0.33 77 0.66 77 1 C51.59 1 26.18 1 0 1 C0 0.67 0 0.34 0 0 Z " fill="#000000" transform="translate(560,3)"/>
<path d="M0 0 C0.68578125 0.0721875 1.3715625 0.144375 2.078125 0.21875 C19.86109614 1.79556518 38.2370908 1.86977992 56 0 C56 0.33 56 0.66 56 1 C46.60721149 2.73837865 37.54204644 3.30842069 28 3.25 C26.73671875 3.25773437 25.4734375 3.26546875 24.171875 3.2734375 C15.94028432 3.25650007 8.0932203 2.49785991 0 1 C0 0.67 0 0.34 0 0 Z " fill="#000000" transform="translate(572,417)"/>
<path d="M0 0 C9.9 0 19.8 0 30 0 C30 0.33 30 0.66 30 1 C20.1 1 10.2 1 0 1 C0 0.67 0 0.34 0 0 Z " fill="#000000" transform="translate(585,210)"/>
<path d="M0 0 C0.33 0 0.66 0 1 0 C1 7.92 1 15.84 1 24 C0.67 24 0.34 24 0 24 C0 16.08 0 8.16 0 0 Z " fill="#000000" transform="translate(707,303)"/>
<path d="M0 0 C0.33 0 0.66 0 1 0 C1.22211116 1.93596892 1.42722992 3.87389328 1.625 5.8125 C1.74101563 6.89144531 1.85703125 7.97039062 1.9765625 9.08203125 C2 12 2 12 0 15 C0 10.05 0 5.1 0 0 Z " fill="#000000" transform="translate(853,491)"/>
<path d="M0 0 C1.00109515 3.31070838 1.10356134 6.30084769 1.0625 9.75 C1.05347656 10.73484375 1.04445313 11.7196875 1.03515625 12.734375 C1.02355469 13.48203125 1.01195312 14.2296875 1 15 C0.67 15 0.34 15 0 15 C-0.19517554 13.06325815 -0.38087873 11.12555991 -0.5625 9.1875 C-0.66691406 8.10855469 -0.77132813 7.02960938 -0.87890625 5.91796875 C-1 3 -1 3 0 0 Z " fill="#000000" transform="translate(346,124)"/>
<path d="M0 0 C4.62 0 9.24 0 14 0 C14 0.33 14 0.66 14 1 C7.565 1.495 7.565 1.495 1 2 C0.67 1.34 0.34 0.68 0 0 Z " fill="#000000" transform="translate(405,563)"/>
<path d="M0 0 C0.33 0.66 0.66 1.32 1 2 C-3.62 2 -8.24 2 -13 2 C-13 1.67 -13 1.34 -13 1 C-8.60563789 0.14256349 -4.47427924 -0.08948558 0 0 Z " fill="#000000" transform="translate(794,65)"/>
<path d="M0 0 C4.51617599 -0.07654536 8.59085217 -0.10228696 13 1 C13 1.33 13 1.66 13 2 C8.71 1.67 4.42 1.34 0 1 C0 0.67 0 0.34 0 0 Z " fill="#000000" transform="translate(615,211)"/>
<path d="M0 0 C0 0.33 0 0.66 0 1 C-6.435 1.495 -6.435 1.495 -13 2 C-13 1.67 -13 1.34 -13 1 C-8.59085217 -0.10228696 -4.51617599 -0.07654536 0 0 Z " fill="#000000" transform="translate(585,211)"/>
<path d="M0 0 C1.43836751 0.11458693 2.87570966 0.24209116 4.3125 0.375 C5.51326172 0.47941406 5.51326172 0.47941406 6.73828125 0.5859375 C9 1 9 1 12 3 C3.96428571 2.19642857 3.96428571 2.19642857 0 0 Z " fill="#000000" transform="translate(418,70)"/>
<path d="M0 0 C-6.28571429 2.42857143 -6.28571429 2.42857143 -10 1 C-3.71428571 -1.42857143 -3.71428571 -1.42857143 0 0 Z " fill="#000000" transform="translate(449,553)"/>
<path d="M0 0 C6.625 0.75 6.625 0.75 10 3 C3.375 2.25 3.375 2.25 0 0 Z " fill="#000000" transform="translate(740,546)"/>
<path d="M0 0 C-6.28571429 2.42857143 -6.28571429 2.42857143 -10 1 C-3.71428571 -1.42857143 -3.71428571 -1.42857143 0 0 Z " fill="#000000" transform="translate(696,537)"/>
<path d="M0 0 C6.625 0.75 6.625 0.75 10 3 C3.375 2.25 3.375 2.25 0 0 Z " fill="#000000" transform="translate(504,536)"/>
<path d="M0 0 C-3.38018531 1.04005702 -6.4780279 1.08004482 -10 1 C-6.1496895 -1.56687367 -4.41430237 -0.83288724 0 0 Z " fill="#000000" transform="translate(711,532)"/>
<path d="M0 0 C3.3 0 6.6 0 10 0 C6.1496895 2.56687367 4.41430237 1.83288724 0 1 C0 0.67 0 0.34 0 0 Z " fill="#000000" transform="translate(489,97)"/>
<path d="M0 0 C6.625 0.75 6.625 0.75 10 3 C3.375 2.25 3.375 2.25 0 0 Z " fill="#000000" transform="translate(686,91)"/>
<path d="M0 0 C-6.28571429 2.42857143 -6.28571429 2.42857143 -10 1 C-3.71428571 -1.42857143 -3.71428571 -1.42857143 0 0 Z " fill="#000000" transform="translate(514,92)"/>
<path d="M0 0 C6.625 0.75 6.625 0.75 10 3 C3.375 2.25 3.375 2.25 0 0 Z " fill="#000000" transform="translate(450,81)"/>
<path d="M0 0 C-4.43076923 2.09230769 -4.43076923 2.09230769 -7.3125 1.625 C-7.869375 1.41875 -8.42625 1.2125 -9 1 C-3.375 -1.125 -3.375 -1.125 0 0 Z " fill="#000000" transform="translate(841,392)"/>
<path d="M0 0 C-2.97 0.66 -5.94 1.32 -9 2 C-5.76698667 -1.23301333 -4.45068633 -1.11267158 0 0 Z " fill="#000000" transform="translate(328,253)"/>
<path d="M0 0 C3.3 0 6.6 0 10 0 C10 0.33 10 0.66 10 1 C6.7 1 3.4 1 0 1 C0 0.67 0 0.34 0 0 Z " fill="#000000" transform="translate(787,562)"/>
<path d="M0 0 C-4.625 2.125 -4.625 2.125 -8 1 C-3.375 -1.125 -3.375 -1.125 0 0 Z " fill="#000000" transform="translate(474,542)"/>
<path d="M0 0 C-4.625 2.125 -4.625 2.125 -8 1 C-3.375 -1.125 -3.375 -1.125 0 0 Z " fill="#000000" transform="translate(892,371)"/>
<path d="M0 0 C0.33 0 0.66 0 1 0 C1 2.97 1 5.94 1 9 C0.67 9 0.34 9 0 9 C0 6.03 0 3.06 0 0 Z " fill="#000000" transform="translate(347,497)"/>
<path d="M0 0 C0.66 0.33 1.32 0.66 2 1 C1.01 2.32 0.02 3.64 -1 5 C-1.66 4.67 -2.32 4.34 -3 4 C-2.01 2.68 -1.02 1.36 0 0 Z " fill="#000000" transform="translate(523,239)"/>
<path d="M0 0 C2.97 0 5.94 0 9 0 C9 0.33 9 0.66 9 1 C6.03 1 3.06 1 0 1 C0 0.67 0 0.34 0 0 Z " fill="#000000" transform="translate(403,67)"/>
<path d="M0 0 C2.31 0.33 4.62 0.66 7 1 C5.1875 1.625 5.1875 1.625 3 2 C2.01 1.34 1.02 0.68 0 0 Z " fill="#000000" transform="translate(770,557)"/>
<path d="M0 0 C0 0.99 0 1.98 0 3 C-0.99 3.66 -1.98 4.32 -3 5 C-1.125 1.125 -1.125 1.125 0 0 Z " fill="#000000" transform="translate(850,508)"/>
<path d="M0 0 C0.598125 0.20625 1.19625 0.4125 1.8125 0.625 C-0.4975 0.955 -2.8075 1.285 -5.1875 1.625 C-2.1875 -0.375 -2.1875 -0.375 0 0 Z " fill="#000000" transform="translate(641.1875,412.375)"/>
<path d="M0 0 C2.31 0.33 4.62 0.66 7 1 C5.1875 1.625 5.1875 1.625 3 2 C2.01 1.34 1.02 0.68 0 0 Z " fill="#000000" transform="translate(557,412)"/>
<path d="M0 0 C2.31 0.33 4.62 0.66 7 1 C5.1875 1.625 5.1875 1.625 3 2 C2.01 1.34 1.02 0.68 0 0 Z " fill="#000000" transform="translate(359,392)"/>
<path d="M0 0 C0.598125 0.20625 1.19625 0.4125 1.8125 0.625 C-0.4975 0.955 -2.8075 1.285 -5.1875 1.625 C-2.1875 -0.375 -2.1875 -0.375 0 0 Z " fill="#000000" transform="translate(849.1875,387.375)"/>
<path d="M0 0 C2.31 0.33 4.62 0.66 7 1 C5.1875 1.625 5.1875 1.625 3 2 C2.01 1.34 1.02 0.68 0 0 Z " fill="#000000" transform="translate(329,381)"/>
<path d="M0 0 C0.33 0 0.66 0 1 0 C1 2.64 1 5.28 1 8 C0.67 8 0.34 8 0 8 C0 5.36 0 2.72 0 0 Z " fill="#000000" transform="translate(705,327)"/>
<path d="M0 0 C0.33 0 0.66 0 1 0 C1 2.64 1 5.28 1 8 C0.67 8 0.34 8 0 8 C0 5.36 0 2.72 0 0 Z " fill="#000000" transform="translate(705,295)"/>
<path d="M0 0 C2.31 0.33 4.62 0.66 7 1 C5.1875 1.625 5.1875 1.625 3 2 C2.01 1.34 1.02 0.68 0 0 Z " fill="#000000" transform="translate(860,246)"/>
<path d="M0 0 C2.31 0.33 4.62 0.66 7 1 C5.1875 1.625 5.1875 1.625 3 2 C2.01 1.34 1.02 0.68 0 0 Z " fill="#000000" transform="translate(847,241)"/>
<path d="M0 0 C0.598125 0.20625 1.19625 0.4125 1.8125 0.625 C-0.4975 0.955 -2.8075 1.285 -5.1875 1.625 C-2.1875 -0.375 -2.1875 -0.375 0 0 Z " fill="#000000" transform="translate(366.1875,236.375)"/>
<path d="M0 0 C2.31 0.33 4.62 0.66 7 1 C5.1875 1.625 5.1875 1.625 3 2 C2.01 1.34 1.02 0.68 0 0 Z " fill="#000000" transform="translate(636,216)"/>
<path d="M0 0 C0.598125 0.20625 1.19625 0.4125 1.8125 0.625 C-0.4975 0.955 -2.8075 1.285 -5.1875 1.625 C-2.1875 -0.375 -2.1875 -0.375 0 0 Z " fill="#000000" transform="translate(562.1875,216.375)"/>
<path d="M0 0 C0.33 0 0.66 0 1 0 C1 2.64 1 5.28 1 8 C0.67 8 0.34 8 0 8 C0 5.36 0 2.72 0 0 Z " fill="#000000" transform="translate(852,124)"/>
<path d="M0 0 C0 0.99 0 1.98 0 3 C-0.99 3.66 -1.98 4.32 -3 5 C-1.125 1.125 -1.125 1.125 0 0 Z " fill="#000000" transform="translate(352,117)"/>
<path d="M0 0 C0.66 0.33 1.32 0.66 2 1 C1.01 1.99 0.02 2.98 -1 4 C-1.66 3.67 -2.32 3.34 -3 3 C-2.01 2.01 -1.02 1.02 0 0 Z " fill="#000000" transform="translate(357,112)"/>
<path d="M0 0 C0.66 0.33 1.32 0.66 2 1 C1.01 1.99 0.02 2.98 -1 4 C-1.66 3.67 -2.32 3.34 -3 3 C-2.01 2.01 -1.02 1.02 0 0 Z " fill="#000000" transform="translate(362,107)"/>
<path d="M0 0 C2.31 0.33 4.62 0.66 7 1 C5.1875 1.625 5.1875 1.625 3 2 C2.01 1.34 1.02 0.68 0 0 Z " fill="#000000" transform="translate(437,76)"/>
<path d="M0 0 C0.598125 0.20625 1.19625 0.4125 1.8125 0.625 C-0.4975 0.955 -2.8075 1.285 -5.1875 1.625 C-2.1875 -0.375 -2.1875 -0.375 0 0 Z " fill="#000000" transform="translate(759.1875,75.375)"/>
<path d="M0 0 C1.98 0.99 1.98 0.99 4 2 C3.67 2.66 3.34 3.32 3 4 C2.01 2.68 1.02 1.36 0 0 Z " fill="#000000" transform="translate(365,525)"/>
<path d="M0 0 C1.98 0.99 1.98 0.99 4 2 C3.67 2.66 3.34 3.32 3 4 C2.01 2.68 1.02 1.36 0 0 Z " fill="#000000" transform="translate(360,520)"/>
<path d="M0 0 C0.33 0.99 0.66 1.98 1 3 C0.34 3.99 -0.32 4.98 -1 6 C-0.67 4.02 -0.34 2.04 0 0 Z " fill="#000000" transform="translate(363,453)"/>
<path d="M0 0 C0.99 0.33 1.98 0.66 3 1 C1.02 1.33 -0.96 1.66 -3 2 C-2.01 1.34 -1.02 0.68 0 0 Z " fill="#000000" transform="translate(875,376)"/>
<path d="M0 0 C2.97 0.495 2.97 0.495 6 1 C4.125 1.625 4.125 1.625 2 2 C1.34 1.34 0.68 0.68 0 0 Z " fill="#000000" transform="translate(317,376)"/>
<path d="M0 0 C1.32 1.32 2.64 2.64 4 4 C2.68 3.34 1.36 2.68 0 2 C0 1.34 0 0.68 0 0 Z " fill="#000000" transform="translate(836,106)"/>
<path d="M0 0 C1.32 1.32 2.64 2.64 4 4 C2.68 3.34 1.36 2.68 0 2 C0 1.34 0 0.68 0 0 Z " fill="#000000" transform="translate(831,101)"/>
<path d="M0 0 C0.66 0.33 1.32 0.66 2 1 C0.68 1.99 -0.64 2.98 -2 4 C-1.34 2.68 -0.68 1.36 0 0 Z " fill="#000000" transform="translate(367,102)"/>
<path d="M0 0 C2.125 0.375 2.125 0.375 4 1 C2.02 1.33 0.04 1.66 -2 2 C-1.34 1.34 -0.68 0.68 0 0 Z " fill="#000000" transform="translate(766,71)"/>
<path d="M0 0 C0.99 0 1.98 0 3 0 C3 0.66 3 1.32 3 2 C2.01 2 1.02 2 0 2 C0 1.34 0 0.68 0 0 Z " fill="#000000" transform="translate(784,560)"/>
<path d="M0 0 C2.475 0.495 2.475 0.495 5 1 C3.68 1.33 2.36 1.66 1 2 C0.67 1.34 0.34 0.68 0 0 Z " fill="#000000" transform="translate(494,531)"/>
<path d="M0 0 C0.66 0.33 1.32 0.66 2 1 C0.02 1.99 0.02 1.99 -2 3 C-1.34 2.01 -0.68 1.02 0 0 Z " fill="#000000" transform="translate(828,530)"/>
<path d="M0 0 C0.66 0.33 1.32 0.66 2 1 C0.02 1.99 0.02 1.99 -2 3 C-1.34 2.01 -0.68 1.02 0 0 Z " fill="#000000" transform="translate(833,525)"/>
<path d="M0 0 C0.66 0.33 1.32 0.66 2 1 C0.02 1.99 0.02 1.99 -2 3 C-1.34 2.01 -0.68 1.02 0 0 Z " fill="#000000" transform="translate(838,520)"/>
<path d="M0 0 C0.66 0.33 1.32 0.66 2 1 C0.02 1.99 0.02 1.99 -2 3 C-1.34 2.01 -0.68 1.02 0 0 Z " fill="#000000" transform="translate(843,515)"/>
<path d="M0 0 C1.98 0.99 1.98 0.99 4 2 C3.01 2 2.02 2 1 2 C0.67 1.34 0.34 0.68 0 0 Z " fill="#000000" transform="translate(355,515)"/>
<path d="M0 0 C0.99 0.33 1.98 0.66 3 1 C1.35 1.33 -0.3 1.66 -2 2 C-1.34 1.34 -0.68 0.68 0 0 Z " fill="#000000" transform="translate(650,407)"/>
<path d="M0 0 C2.475 0.495 2.475 0.495 5 1 C4.01 1.33 3.02 1.66 2 2 C1.34 1.34 0.68 0.68 0 0 Z " fill="#000000" transform="translate(547,407)"/>
<path d="M0 0 C0.99 0.33 1.98 0.66 3 1 C1.35 1.33 -0.3 1.66 -2 2 C-1.34 1.34 -0.68 0.68 0 0 Z " fill="#000000" transform="translate(899,365)"/>
<path d="M0 0 C0.33 0 0.66 0 1 0 C1 1.98 1 3.96 1 6 C0.67 6 0.34 6 0 6 C0 4.02 0 2.04 0 0 Z " fill="#000000" transform="translate(495,335)"/>
<path d="M0 0 C0.33 0 0.66 0 1 0 C1 1.98 1 3.96 1 6 C0.67 6 0.34 6 0 6 C0 4.02 0 2.04 0 0 Z " fill="#000000" transform="translate(494,329)"/>
<path d="M0 0 C0.33 0 0.66 0 1 0 C1 1.98 1 3.96 1 6 C0.67 6 0.34 6 0 6 C0 4.02 0 2.04 0 0 Z " fill="#000000" transform="translate(494,295)"/>
<path d="M0 0 C2.475 0.495 2.475 0.495 5 1 C4.01 1.33 3.02 1.66 2 2 C1.34 1.34 0.68 0.68 0 0 Z " fill="#000000" transform="translate(648,221)"/>
<path d="M0 0 C1.98 0.99 1.98 0.99 4 2 C3.01 2 2.02 2 1 2 C0.67 1.34 0.34 0.68 0 0 Z " fill="#000000" transform="translate(841,112)"/>
<path d="M0 0 C2.475 0.495 2.475 0.495 5 1 C4.01 1.495 4.01 1.495 3 2 C2.01 1.34 1.02 0.68 0 0 Z " fill="#000000" transform="translate(701,97)"/>
<path d="M0 0 C0.33 0 0.66 0 1 0 C1 1.65 1 3.3 1 5 C0.67 5 0.34 5 0 5 C0 3.35 0 1.7 0 0 Z " fill="#000000" transform="translate(704,335)"/>
<path d="M0 0 C0.33 0 0.66 0 1 0 C1 1.65 1 3.3 1 5 C0.67 5 0.34 5 0 5 C0 3.35 0 1.7 0 0 Z " fill="#000000" transform="translate(704,290)"/>
<path d="M0 0 C0.33 0 0.66 0 1 0 C1 1.65 1 3.3 1 5 C0.67 5 0.34 5 0 5 C0 3.35 0 1.7 0 0 Z " fill="#000000" transform="translate(495,289)"/>
<path d="M0 0 C0.66 0.33 1.32 0.66 2 1 C1.01 1.66 0.02 2.32 -1 3 C-0.67 2.01 -0.34 1.02 0 0 Z " fill="#000000" transform="translate(550,12)"/>
<path d="M0 0 C0.66 0.33 1.32 0.66 2 1 C1.01 1.66 0.02 2.32 -1 3 C-0.67 2.01 -0.34 1.02 0 0 Z " fill="#000000" transform="translate(554,7)"/>
<path d="M0 0 C4 1 4 1 4 1 Z " fill="#000000" transform="translate(419,562)"/>
<path d="M0 0 C0.66 0 1.32 0 2 0 C2 0.66 2 1.32 2 2 C1.34 2 0.68 2 0 2 C0 1.34 0 0.68 0 0 Z " fill="#000000" transform="translate(423,560)"/>
<path d="M0 0 C4 1 4 1 4 1 Z " fill="#000000" transform="translate(426,559)"/>
<path d="M0 0 C0.66 0.33 1.32 0.66 2 1 C1.01 1 0.02 1 -1 1 C-0.67 0.67 -0.34 0.34 0 0 Z " fill="#000000" transform="translate(799,558)"/>
<path d="M0 0 C0.66 0.33 1.32 0.66 2 1 C1.01 1 0.02 1 -1 1 C-0.67 0.67 -0.34 0.34 0 0 Z " fill="#000000" transform="translate(804,553)"/>
<path d="M0 0 C0.66 0.33 1.32 0.66 2 1 C1.01 1 0.02 1 -1 1 C-0.67 0.67 -0.34 0.34 0 0 Z " fill="#000000" transform="translate(809,548)"/>
<path d="M0 0 C4 1 4 1 4 1 Z " fill="#000000" transform="translate(632,414)"/>
<path d="M0 0 C4 1 4 1 4 1 Z " fill="#000000" transform="translate(564,414)"/>
<path d="M0 0 C0.66 0 1.32 0 2 0 C2 0.66 2 1.32 2 2 C1.34 2 0.68 2 0 2 C0 1.34 0 0.68 0 0 Z " fill="#000000" transform="translate(369,396)"/>
<path d="M0 0 C0.99 0.495 0.99 0.495 2 1 C1.67 1.66 1.34 2.32 1 3 C0.67 2.01 0.34 1.02 0 0 Z " fill="#000000" transform="translate(528,393)"/>
<path d="M0 0 C0.99 0 1.98 0 3 0 C2.67 0.66 2.34 1.32 2 2 C1.34 1.34 0.68 0.68 0 0 Z " fill="#000000" transform="translate(366,394)"/>
<path d="M0 0 C0.66 0.33 1.32 0.66 2 1 C1.01 1 0.02 1 -1 1 C-0.67 0.67 -0.34 0.34 0 0 Z " fill="#000000" transform="translate(673,391)"/>
<path d="M0 0 C0.99 0.33 1.98 0.66 3 1 C2.01 1 1.02 1 0 1 C0 0.67 0 0.34 0 0 Z " fill="#000000" transform="translate(525,391)"/>
<path d="M0 0 C4 1 4 1 4 1 Z " fill="#000000" transform="translate(349,388)"/>
<path d="M0 0 C0.99 0.495 0.99 0.495 2 1 C1.67 1.66 1.34 2.32 1 3 C0.67 2.01 0.34 1.02 0 0 Z " fill="#000000" transform="translate(517,382)"/>
<path d="M0 0 C1 4 1 4 1 4 Z " fill="#000000" transform="translate(500,352)"/>
<path d="M0 0 C1 4 1 4 1 4 Z " fill="#000000" transform="translate(500,274)"/>
<path d="M0 0 C4 1 4 1 4 1 Z " fill="#000000" transform="translate(867,248)"/>
<path d="M0 0 C0 3 0 3 0 3 Z " fill="#000000" transform="translate(518,245)"/>
<path d="M0 0 C0.99 0.33 1.98 0.66 3 1 C2.01 1 1.02 1 0 1 C0 0.67 0 0.34 0 0 Z " fill="#000000" transform="translate(672,237)"/>
<path d="M0 0 C0.99 0.495 0.99 0.495 2 1 C1.67 1.66 1.34 2.32 1 3 C0.67 2.01 0.34 1.02 0 0 Z " fill="#000000" transform="translate(670,234)"/>
<path d="M0 0 C0 3 0 3 0 3 Z " fill="#000000" transform="translate(529,234)"/>
<path d="M0 0 C0.66 0 1.32 0 2 0 C2 0.66 2 1.32 2 2 C1.34 2 0.68 2 0 2 C0 1.34 0 0.68 0 0 Z " fill="#000000" transform="translate(369,232)"/>
<path d="M0 0 C0.66 0.33 1.32 0.66 2 1 C1.01 1 0.02 1 -1 1 C-0.67 0.67 -0.34 0.34 0 0 Z " fill="#000000" transform="translate(390,80)"/>
<path d="M0 0 C1 4 1 4 1 4 Z " fill="#000000" transform="translate(522,75)"/>
<path d="M0 0 C0.99 0.33 1.98 0.66 3 1 C2.01 1 1.02 1 0 1 C0 0.67 0 0.34 0 0 Z " fill="#000000" transform="translate(803,75)"/>
<path d="M0 0 C0.66 0.33 1.32 0.66 2 1 C1.01 1 0.02 1 -1 1 C-0.67 0.67 -0.34 0.34 0 0 Z " fill="#000000" transform="translate(395,75)"/>
<path d="M0 0 C0.99 0.33 1.98 0.66 3 1 C2.01 1 1.02 1 0 1 C0 0.67 0 0.34 0 0 Z " fill="#000000" transform="translate(798,70)"/>
<path d="M0 0 C0.66 0.33 1.32 0.66 2 1 C1.01 1 0.02 1 -1 1 C-0.67 0.67 -0.34 0.34 0 0 Z " fill="#000000" transform="translate(400,70)"/>
<path d="M0 0 C0.66 0 1.32 0 2 0 C2 0.66 2 1.32 2 2 C1.34 2 0.68 2 0 2 C0 1.34 0 0.68 0 0 Z " fill="#000000" transform="translate(775,68)"/>
<path d="M0 0 C4 1 4 1 4 1 Z " fill="#000000" transform="translate(777,67)"/>
<path d="M0 0 C0.66 0.66 1.32 1.32 2 2 C1.01 2.495 1.01 2.495 0 3 C0 2.01 0 1.02 0 0 Z " fill="#000000" transform="translate(528,60)"/>
<path d="M0 0 C0.66 0.66 1.32 1.32 2 2 C1.34 2 0.68 2 0 2 C0 1.34 0 0.68 0 0 Z " fill="#000000" transform="translate(557,621)"/>
<path d="M0 0 C0.33 0.66 0.66 1.32 1 2 C0.34 1.67 -0.32 1.34 -1 1 C-0.67 0.67 -0.34 0.34 0 0 Z " fill="#000000" transform="translate(645,621)"/>
<path d="" fill="#000000" transform="translate(0,0)"/>
<path d="" fill="#000000" transform="translate(0,0)"/>
<path d="" fill="#000000" transform="translate(0,0)"/>
<path d="M0 0 C3 1 3 1 3 1 Z " fill="#000000" transform="translate(430,558)"/>
<path d="M0 0 C3 1 3 1 3 1 Z " fill="#000000" transform="translate(433,557)"/>
<path d="M0 0 C3 1 3 1 3 1 Z " fill="#000000" transform="translate(767,556)"/>
<path d="" fill="#000000" transform="translate(0,0)"/>
<path d="M0 0 C3 1 3 1 3 1 Z " fill="#000000" transform="translate(753,551)"/>
<path d="M0 0 C3 1 3 1 3 1 Z " fill="#000000" transform="translate(449,551)"/>
<path d="M0 0 C3 1 3 1 3 1 Z " fill="#000000" transform="translate(750,549)"/>
<path d="M0 0 C3 1 3 1 3 1 Z " fill="#000000" transform="translate(728,541)"/>
<path d="M0 0 C3 1 3 1 3 1 Z " fill="#000000" transform="translate(483,536)"/>
<path d="M0 0 C0.66 0.66 1.32 1.32 2 2 C1.34 2 0.68 2 0 2 C0 1.34 0 0.68 0 0 Z " fill="#000000" transform="translate(376,535)"/>
<path d="M0 0 C3 1 3 1 3 1 Z " fill="#000000" transform="translate(488,533)"/>
<path d="M0 0 C3 1 3 1 3 1 Z " fill="#000000" transform="translate(491,532)"/>
<path d="" fill="#000000" transform="translate(0,0)"/>
<path d="" fill="#000000" transform="translate(0,0)"/>
<path d="M0 0 C0.66 0 1.32 0 2 0 C1.67 0.66 1.34 1.32 1 2 C0.67 1.34 0.34 0.68 0 0 Z " fill="#000000" transform="translate(630,415)"/>
<path d="M0 0 C0.99 0.495 0.99 0.495 2 1 C1.01 1.495 1.01 1.495 0 2 C0 1.34 0 0.68 0 0 Z " fill="#000000" transform="translate(568,415)"/>
<path d="" fill="#000000" transform="translate(0,0)"/>
<path d="M0 0 C3 1 3 1 3 1 Z " fill="#000000" transform="translate(356,391)"/>
<path d="M0 0 C3 1 3 1 3 1 Z " fill="#000000" transform="translate(841,389)"/>
<path d="M0 0 C3 1 3 1 3 1 Z " fill="#000000" transform="translate(346,387)"/>
<path d="M0 0 C3 1 3 1 3 1 Z " fill="#000000" transform="translate(851,386)"/>
<path d="M0 0 C3 1 3 1 3 1 Z " fill="#000000" transform="translate(343,386)"/>
<path d="M0 0 C3 1 3 1 3 1 Z " fill="#000000" transform="translate(860,382)"/>
<path d="M0 0 C3 1 3 1 3 1 Z " fill="#000000" transform="translate(863,381)"/>
<path d="M0 0 C3 1 3 1 3 1 Z " fill="#000000" transform="translate(866,380)"/>
<path d="M0 0 C3 1 3 1 3 1 Z " fill="#000000" transform="translate(869,378)"/>
<path d="M0 0 C3 1 3 1 3 1 Z " fill="#000000" transform="translate(323,378)"/>
<path d="M0 0 C3 1 3 1 3 1 Z " fill="#000000" transform="translate(878,375)"/>
<path d="M0 0 C3 1 3 1 3 1 Z " fill="#000000" transform="translate(314,375)"/>
<path d="M0 0 C3 1 3 1 3 1 Z " fill="#000000" transform="translate(308,372)"/>
<path d="M0 0 C3 1 3 1 3 1 Z " fill="#000000" transform="translate(305,371)"/>
<path d="M0 0 C3 1 3 1 3 1 Z " fill="#000000" transform="translate(295,366)"/>
<path d="" fill="#000000" transform="translate(0,0)"/>
<path d="M0 0 C0.66 0 1.32 0 2 0 C1.67 0.66 1.34 1.32 1 2 C0.67 1.34 0.34 0.68 0 0 Z " fill="#000000" transform="translate(504,264)"/>
<path d="M0 0 C3 1 3 1 3 1 Z " fill="#000000" transform="translate(902,263)"/>
<path d="M0 0 C3 1 3 1 3 1 Z " fill="#000000" transform="translate(300,263)"/>
<path d="M0 0 C3 1 3 1 3 1 Z " fill="#000000" transform="translate(892,258)"/>
<path d="M0 0 C3 1 3 1 3 1 Z " fill="#000000" transform="translate(889,257)"/>
<path d="M0 0 C3 1 3 1 3 1 Z " fill="#000000" transform="translate(316,256)"/>
<path d="M0 0 C3 1 3 1 3 1 Z " fill="#000000" transform="translate(883,254)"/>
<path d="M0 0 C3 1 3 1 3 1 Z " fill="#000000" transform="translate(880,253)"/>
<path d="M0 0 C3 1 3 1 3 1 Z " fill="#000000" transform="translate(877,252)"/>
<path d="M0 0 C3 1 3 1 3 1 Z " fill="#000000" transform="translate(328,251)"/>
<path d="M0 0 C3 1 3 1 3 1 Z " fill="#000000" transform="translate(331,249)"/>
<path d="M0 0 C3 1 3 1 3 1 Z " fill="#000000" transform="translate(334,248)"/>
<path d="M0 0 C3 1 3 1 3 1 Z " fill="#000000" transform="translate(337,247)"/>
<path d="M0 0 C3 1 3 1 3 1 Z " fill="#000000" transform="translate(340,246)"/>
<path d="M0 0 C3 1 3 1 3 1 Z " fill="#000000" transform="translate(854,243)"/>
<path d="M0 0 C3 1 3 1 3 1 Z " fill="#000000" transform="translate(346,243)"/>
<path d="M0 0 C3 1 3 1 3 1 Z " fill="#000000" transform="translate(841,238)"/>
<path d="M0 0 C0.33 0.66 0.66 1.32 1 2 C0.34 1.67 -0.32 1.34 -1 1 C-0.67 0.67 -0.34 0.34 0 0 Z " fill="#000000" transform="translate(830,232)"/>
<path d="" fill="#000000" transform="translate(0,0)"/>
<path d="M0 0 C3 1 3 1 3 1 Z " fill="#000000" transform="translate(549,221)"/>
<path d="M0 0 C3 1 3 1 3 1 Z " fill="#000000" transform="translate(633,215)"/>
<path d="M0 0 C3 1 3 1 3 1 Z " fill="#000000" transform="translate(564,215)"/>
<path d="M0 0 C0.66 0.66 1.32 1.32 2 2 C1.34 2 0.68 2 0 2 C0 1.34 0 0.68 0 0 Z " fill="#000000" transform="translate(568,213)"/>
<path d="M0 0 C0.33 0.66 0.66 1.32 1 2 C0.34 1.67 -0.32 1.34 -1 1 C-0.67 0.67 -0.34 0.34 0 0 Z " fill="#000000" transform="translate(631,213)"/>
<path d="" fill="#000000" transform="translate(0,0)"/>
<path d="" fill="#000000" transform="translate(0,0)"/>
<path d="M0 0 C3 1 3 1 3 1 Z " fill="#000000" transform="translate(706,97)"/>
<path d="M0 0 C3 1 3 1 3 1 Z " fill="#000000" transform="translate(709,96)"/>
<path d="M0 0 C3 1 3 1 3 1 Z " fill="#000000" transform="translate(499,96)"/>
<path d="M0 0 C0.66 0 1.32 0 2 0 C1.67 0.66 1.34 1.32 1 2 C0.67 1.34 0.34 0.68 0 0 Z " fill="#000000" transform="translate(822,93)"/>
<path d="M0 0 C3 1 3 1 3 1 Z " fill="#000000" transform="translate(714,93)"/>
<path d="M0 0 C3 1 3 1 3 1 Z " fill="#000000" transform="translate(717,92)"/>
<path d="M0 0 C3 1 3 1 3 1 Z " fill="#000000" transform="translate(720,91)"/>
<path d="M0 0 C3 1 3 1 3 1 Z " fill="#000000" transform="translate(680,88)"/>
<path d="M0 0 C3 1 3 1 3 1 Z " fill="#000000" transform="translate(469,88)"/>
<path d="M0 0 C3 1 3 1 3 1 Z " fill="#000000" transform="translate(728,87)"/>
<path d="M0 0 C3 1 3 1 3 1 Z " fill="#000000" transform="translate(731,86)"/>
<path d="M0 0 C0.66 0.66 1.32 1.32 2 2 C1.34 2 0.68 2 0 2 C0 1.34 0 0.68 0 0 Z " fill="#000000" transform="translate(735,84)"/>
<path d="M0 0 C3 1 3 1 3 1 Z " fill="#000000" transform="translate(748,78)"/>
<path d="M0 0 C3 1 3 1 3 1 Z " fill="#000000" transform="translate(444,78)"/>
<path d="M0 0 C3 1 3 1 3 1 Z " fill="#000000" transform="translate(751,77)"/>
<path d="M0 0 C3 1 3 1 3 1 Z " fill="#000000" transform="translate(430,73)"/>
<path d="" fill="#000000" transform="translate(0,0)"/>
<path d="" fill="#000000" transform="translate(0,0)"/>
<path d="" fill="#000000" transform="translate(0,0)"/>
<path d="M0 0 C2 1 2 1 2 1 Z " fill="#000000" transform="translate(640,624)"/>
<path d="M0 0 C2 1 2 1 2 1 Z " fill="#000000" transform="translate(642,623)"/>
<path d="" fill="#000000" transform="translate(0,0)"/>
<path d="" fill="#000000" transform="translate(0,0)"/>
<path d="" fill="#000000" transform="translate(0,0)"/>
<path d="" fill="#000000" transform="translate(0,0)"/>
<path d="" fill="#000000" transform="translate(0,0)"/>
<path d="M0 0 C2 1 2 1 2 1 Z " fill="#000000" transform="translate(403,562)"/>
<path d="M0 0 C2 1 2 1 2 1 Z " fill="#000000" transform="translate(814,543)"/>
<path d="M0 0 C2 1 2 1 2 1 Z " fill="#000000" transform="translate(726,540)"/>
<path d="M0 0 C2 1 2 1 2 1 Z " fill="#000000" transform="translate(684,540)"/>
<path d="M0 0 C2 1 2 1 2 1 Z " fill="#000000" transform="translate(514,540)"/>
<path d="M0 0 C2 1 2 1 2 1 Z " fill="#000000" transform="translate(474,540)"/>
<path d="M0 0 C2 1 2 1 2 1 Z " fill="#000000" transform="translate(714,535)"/>
<path d="M0 0 C2 1 2 1 2 1 Z " fill="#000000" transform="translate(696,535)"/>
<path d="M0 0 C2 1 2 1 2 1 Z " fill="#000000" transform="translate(502,535)"/>
<path d="M0 0 C2 1 2 1 2 1 Z " fill="#000000" transform="translate(486,535)"/>
<path d="" fill="#000000" transform="translate(0,0)"/>
<path d="" fill="#000000" transform="translate(0,0)"/>
<path d="M0 0 C2 1 2 1 2 1 Z " fill="#000000" transform="translate(353,479)"/>
<path d="" fill="#000000" transform="translate(0,0)"/>
<path d="" fill="#000000" transform="translate(0,0)"/>
<path d="M0 0 C2 1 2 1 2 1 Z " fill="#000000" transform="translate(646,409)"/>
<path d="M0 0 C2 1 2 1 2 1 Z " fill="#000000" transform="translate(552,409)"/>
<path d="M0 0 C2 1 2 1 2 1 Z " fill="#000000" transform="translate(653,406)"/>
<path d="M0 0 C2 1 2 1 2 1 Z " fill="#000000" transform="translate(545,406)"/>
<path d="M0 0 C2 1 2 1 2 1 Z " fill="#000000" transform="translate(655,404)"/>
<path d="M0 0 C2 1 2 1 2 1 Z " fill="#000000" transform="translate(543,404)"/>
<path d="M0 0 C2 1 2 1 2 1 Z " fill="#000000" transform="translate(657,403)"/>
<path d="M0 0 C2 1 2 1 2 1 Z " fill="#000000" transform="translate(541,403)"/>
<path d="M0 0 C2 1 2 1 2 1 Z " fill="#000000" transform="translate(659,402)"/>
<path d="M0 0 C2 1 2 1 2 1 Z " fill="#000000" transform="translate(539,402)"/>
<path d="M0 0 C2 1 2 1 2 1 Z " fill="#000000" transform="translate(661,401)"/>
<path d="M0 0 C2 1 2 1 2 1 Z " fill="#000000" transform="translate(537,401)"/>
<path d="" fill="#000000" transform="translate(0,0)"/>
<path d="M0 0 C2 1 2 1 2 1 Z " fill="#000000" transform="translate(666,397)"/>
<path d="M0 0 C2 1 2 1 2 1 Z " fill="#000000" transform="translate(532,397)"/>
<path d="M0 0 C2 1 2 1 2 1 Z " fill="#000000" transform="translate(668,396)"/>
<path d="M0 0 C2 1 2 1 2 1 Z " fill="#000000" transform="translate(530,396)"/>
<path d="M0 0 C2 1 2 1 2 1 Z " fill="#000000" transform="translate(854,385)"/>
<path d="M0 0 C2 1 2 1 2 1 Z " fill="#000000" transform="translate(340,385)"/>
<path d="M0 0 C2 1 2 1 2 1 Z " fill="#000000" transform="translate(327,380)"/>
<path d="M0 0 C2 1 2 1 2 1 Z " fill="#000000" transform="translate(881,373)"/>
<path d="M0 0 C2 1 2 1 2 1 Z " fill="#000000" transform="translate(303,370)"/>
<path d="M0 0 C2 1 2 1 2 1 Z " fill="#000000" transform="translate(892,369)"/>
<path d="" fill="#000000" transform="translate(0,0)"/>
<path d="M0 0 C2 1 2 1 2 1 Z " fill="#000000" transform="translate(293,365)"/>
<path d="M0 0 C2 1 2 1 2 1 Z " fill="#000000" transform="translate(902,364)"/>
<path d="M0 0 C2 1 2 1 2 1 Z " fill="#000000" transform="translate(904,362)"/>
<path d="M0 0 C2 1 2 1 2 1 Z " fill="#000000" transform="translate(290,362)"/>
<path d="M0 0 C2 1 2 1 2 1 Z " fill="#000000" transform="translate(906,361)"/>
<path d="M0 0 C2 1 2 1 2 1 Z " fill="#000000" transform="translate(288,361)"/>
<path d="M0 0 C2 1 2 1 2 1 Z " fill="#000000" transform="translate(908,360)"/>
<path d="M0 0 C2 1 2 1 2 1 Z " fill="#000000" transform="translate(290,269)"/>
<path d="M0 0 C2 1 2 1 2 1 Z " fill="#000000" transform="translate(910,268)"/>
<path d="M0 0 C2 1 2 1 2 1 Z " fill="#000000" transform="translate(292,268)"/>
<path d="M0 0 C2 1 2 1 2 1 Z " fill="#000000" transform="translate(908,267)"/>
<path d="M0 0 C2 1 2 1 2 1 Z " fill="#000000" transform="translate(296,265)"/>
<path d="M0 0 C2 1 2 1 2 1 Z " fill="#000000" transform="translate(905,264)"/>
<path d="M0 0 C2 1 2 1 2 1 Z " fill="#000000" transform="translate(298,264)"/>
<path d="" fill="#000000" transform="translate(0,0)"/>
<path d="M0 0 C2 1 2 1 2 1 Z " fill="#000000" transform="translate(303,262)"/>
<path d="M0 0 C2 1 2 1 2 1 Z " fill="#000000" transform="translate(897,260)"/>
<path d="M0 0 C2 1 2 1 2 1 Z " fill="#000000" transform="translate(895,259)"/>
<path d="M0 0 C2 1 2 1 2 1 Z " fill="#000000" transform="translate(871,249)"/>
<path d="M0 0 C2 1 2 1 2 1 Z " fill="#000000" transform="translate(857,244)"/>
<path d="M0 0 C2 1 2 1 2 1 Z " fill="#000000" transform="translate(344,244)"/>
<path d="M0 0 C2 1 2 1 2 1 Z " fill="#000000" transform="translate(359,238)"/>
<path d="M0 0 C2 1 2 1 2 1 Z " fill="#000000" transform="translate(526,237)"/>
<path d="M0 0 C2 1 2 1 2 1 Z " fill="#000000" transform="translate(668,233)"/>
<path d="M0 0 C2 1 2 1 2 1 Z " fill="#000000" transform="translate(530,233)"/>
<path d="M0 0 C2 1 2 1 2 1 Z " fill="#000000" transform="translate(666,232)"/>
<path d="M0 0 C2 1 2 1 2 1 Z " fill="#000000" transform="translate(532,232)"/>
<path d="M0 0 C2 1 2 1 2 1 Z " fill="#000000" transform="translate(661,228)"/>
<path d="M0 0 C2 1 2 1 2 1 Z " fill="#000000" transform="translate(537,228)"/>
<path d="M0 0 C2 1 2 1 2 1 Z " fill="#000000" transform="translate(659,227)"/>
<path d="M0 0 C2 1 2 1 2 1 Z " fill="#000000" transform="translate(539,227)"/>
<path d="M0 0 C2 1 2 1 2 1 Z " fill="#000000" transform="translate(657,226)"/>
<path d="M0 0 C2 1 2 1 2 1 Z " fill="#000000" transform="translate(541,226)"/>
<path d="M0 0 C2 1 2 1 2 1 Z " fill="#000000" transform="translate(655,225)"/>
<path d="M0 0 C2 1 2 1 2 1 Z " fill="#000000" transform="translate(653,223)"/>
<path d="M0 0 C2 1 2 1 2 1 Z " fill="#000000" transform="translate(545,223)"/>
<path d="M0 0 C2 1 2 1 2 1 Z " fill="#000000" transform="translate(547,222)"/>
<path d="M0 0 C2 1 2 1 2 1 Z " fill="#000000" transform="translate(646,220)"/>
<path d="M0 0 C2 1 2 1 2 1 Z " fill="#000000" transform="translate(552,220)"/>
<path d="" fill="#000000" transform="translate(0,0)"/>
<path d="" fill="#000000" transform="translate(0,0)"/>
<path d="" fill="#000000" transform="translate(0,0)"/>
<path d="M0 0 C2 1 2 1 2 1 Z " fill="#000000" transform="translate(712,94)"/>
<path d="M0 0 C2 1 2 1 2 1 Z " fill="#000000" transform="translate(696,94)"/>
<path d="M0 0 C2 1 2 1 2 1 Z " fill="#000000" transform="translate(502,94)"/>
<path d="M0 0 C2 1 2 1 2 1 Z " fill="#000000" transform="translate(484,94)"/>
<path d="M0 0 C2 1 2 1 2 1 Z " fill="#000000" transform="translate(379,91)"/>
<path d="M0 0 C2 1 2 1 2 1 Z " fill="#000000" transform="translate(723,89)"/>
<path d="M0 0 C2 1 2 1 2 1 Z " fill="#000000" transform="translate(684,89)"/>
<path d="M0 0 C2 1 2 1 2 1 Z " fill="#000000" transform="translate(514,89)"/>
<path d="M0 0 C2 1 2 1 2 1 Z " fill="#000000" transform="translate(472,89)"/>
<path d="M0 0 C2 1 2 1 2 1 Z " fill="#000000" transform="translate(726,88)"/>
<path d="M0 0 C2 1 2 1 2 1 Z " fill="#000000" transform="translate(384,86)"/>
<path d="" fill="#000000" transform="translate(0,0)"/>
<path d="" fill="#000000" transform="translate(0,0)"/>
<path d="M0 0 C2 1 2 1 2 1 Z " fill="#000000" transform="translate(761,73)"/>
<path d="M0 0 C2 1 2 1 2 1 Z " fill="#000000" transform="translate(795,67)"/>
<path d="" fill="#000000" transform="translate(0,0)"/>
<path d="" fill="#000000" transform="translate(0,0)"/>
<path d="" fill="#000000" transform="translate(0,0)"/>
<path d="M0 0 C2 1 2 1 2 1 Z " fill="#000000" transform="translate(556,6)"/>
<path d="M0 0 C2 1 2 1 2 1 Z " fill="#000000" transform="translate(637,5)"/>
<path d="M0 0 C2 1 2 1 2 1 Z " fill="#000000" transform="translate(558,5)"/>
<path d="" fill="#000000" transform="translate(0,0)"/>
<path d="" fill="#000000" transform="translate(0,0)"/>
<path d="" fill="#000000" transform="translate(0,0)"/>
<path d="" fill="#000000" transform="translate(0,0)"/>
<path d="" fill="#000000" transform="translate(0,0)"/>
<path d="" fill="#000000" transform="translate(0,0)"/>
<path d="" fill="#000000" transform="translate(0,0)"/>
<path d="" fill="#000000" transform="translate(0,0)"/>
<path d="" fill="#000000" transform="translate(0,0)"/>
<path d="" fill="#000000" transform="translate(0,0)"/>
<path d="" fill="#000000" transform="translate(0,0)"/>
<path d="" fill="#000000" transform="translate(0,0)"/>
<path d="" fill="#000000" transform="translate(0,0)"/>
<path d="" fill="#000000" transform="translate(0,0)"/>
<path d="" fill="#000000" transform="translate(0,0)"/>
<path d="" fill="#000000" transform="translate(0,0)"/>
<path d="" fill="#000000" transform="translate(0,0)"/>
<path d="" fill="#000000" transform="translate(0,0)"/>
<path d="" fill="#000000" transform="translate(0,0)"/>
<path d="" fill="#000000" transform="translate(0,0)"/>
<path d="" fill="#000000" transform="translate(0,0)"/>
<path d="" fill="#000000" transform="translate(0,0)"/>
<path d="" fill="#000000" transform="translate(0,0)"/>
<path d="" fill="#000000" transform="translate(0,0)"/>
<path d="" fill="#000000" transform="translate(0,0)"/>
<path d="" fill="#000000" transform="translate(0,0)"/>
<path d="" fill="#000000" transform="translate(0,0)"/>
<path d="" fill="#000000" transform="translate(0,0)"/>
<path d="" fill="#000000" transform="translate(0,0)"/>
<path d="" fill="#000000" transform="translate(0,0)"/>
<path d="" fill="#000000" transform="translate(0,0)"/>
<path d="" fill="#000000" transform="translate(0,0)"/>
<path d="" fill="#000000" transform="translate(0,0)"/>
<path d="" fill="#000000" transform="translate(0,0)"/>
<path d="" fill="#000000" transform="translate(0,0)"/>
<path d="" fill="#000000" transform="translate(0,0)"/>
<path d="" fill="#000000" transform="translate(0,0)"/>
<path d="" fill="#000000" transform="translate(0,0)"/>
<path d="" fill="#000000" transform="translate(0,0)"/>
<path d="" fill="#000000" transform="translate(0,0)"/>
<path d="" fill="#000000" transform="translate(0,0)"/>
<path d="" fill="#000000" transform="translate(0,0)"/>
<path d="" fill="#000000" transform="translate(0,0)"/>
<path d="" fill="#000000" transform="translate(0,0)"/>
<path d="" fill="#000000" transform="translate(0,0)"/>
<path d="" fill="#000000" transform="translate(0,0)"/>
<path d="" fill="#000000" transform="translate(0,0)"/>
<path d="" fill="#000000" transform="translate(0,0)"/>
<path d="" fill="#000000" transform="translate(0,0)"/>
<path d="" fill="#000000" transform="translate(0,0)"/>
<path d="" fill="#000000" transform="translate(0,0)"/>
<path d="" fill="#000000" transform="translate(0,0)"/>
<path d="" fill="#000000" transform="translate(0,0)"/>
<path d="" fill="#000000" transform="translate(0,0)"/>
<path d="" fill="#000000" transform="translate(0,0)"/>
<path d="" fill="#000000" transform="translate(0,0)"/>
<path d="" fill="#000000" transform="translate(0,0)"/>
<path d="" fill="#000000" transform="translate(0,0)"/>
<path d="" fill="#000000" transform="translate(0,0)"/>
<path d="" fill="#000000" transform="translate(0,0)"/>
<path d="" fill="#000000" transform="translate(0,0)"/>
<path d="" fill="#000000" transform="translate(0,0)"/>
<path d="" fill="#000000" transform="translate(0,0)"/>
<path d="" fill="#000000" transform="translate(0,0)"/>
<path d="" fill="#000000" transform="translate(0,0)"/>
<path d="" fill="#000000" transform="translate(0,0)"/>
<path d="" fill="#000000" transform="translate(0,0)"/>
<path d="" fill="#000000" transform="translate(0,0)"/>
<path d="" fill="#000000" transform="translate(0,0)"/>
<path d="" fill="#000000" transform="translate(0,0)"/>
<path d="" fill="#000000" transform="translate(0,0)"/>
<path d="" fill="#000000" transform="translate(0,0)"/>
<path d="" fill="#000000" transform="translate(0,0)"/>
<path d="" fill="#000000" transform="translate(0,0)"/>
<path d="" fill="#000000" transform="translate(0,0)"/>
<path d="" fill="#000000" transform="translate(0,0)"/>
<path d="" fill="#000000" transform="translate(0,0)"/>
<path d="" fill="#000000" transform="translate(0,0)"/>
<path d="" fill="#000000" transform="translate(0,0)"/>
<path d="" fill="#000000" transform="translate(0,0)"/>
<path d="" fill="#000000" transform="translate(0,0)"/>
<path d="" fill="#000000" transform="translate(0,0)"/>
<path d="" fill="#000000" transform="translate(0,0)"/>
<path d="" fill="#000000" transform="translate(0,0)"/>
<path d="" fill="#000000" transform="translate(0,0)"/>
<path d="" fill="#000000" transform="translate(0,0)"/>
<path d="" fill="#000000" transform="translate(0,0)"/>
<path d="" fill="#000000" transform="translate(0,0)"/>
<path d="" fill="#000000" transform="translate(0,0)"/>
</svg>
