<?xml version="1.0" encoding="UTF-8"?>
<svg version="1.1" xmlns="http://www.w3.org/2000/svg" width="512" height="512">
<path d="M0 0 C0.72245911 -0.00902847 1.44491821 -0.01805695 2.18927002 -0.02735901 C3.7120758 -0.04180043 5.23494277 -0.05073298 6.7578125 -0.05444336 C9.05838686 -0.06630449 11.35624321 -0.11551205 13.65625 -0.16601562 C22.23234983 -0.25940149 29.02751844 0.43230689 36.328125 5.37109375 C37.7203125 6.26828125 37.7203125 6.26828125 39.140625 7.18359375 C47.5906716 15.63364035 49.20044766 26.86878492 50.328125 38.37109375 C51.3490625 38.52578125 51.3490625 38.52578125 52.390625 38.68359375 C55.328125 39.37109375 55.328125 39.37109375 58.890625 40.99609375 C62.7164857 42.58064214 62.7164857 42.58064214 66.328125 41.37109375 C69.25347884 39.55031931 72.09703265 37.65397974 74.93164062 35.69726562 C81.9385103 31.01328404 88.9692117 29.43010497 97.328125 30.37109375 C106.37423709 32.29662332 111.92119529 36.95435251 118.328125 43.37109375 C119.76091797 44.69753906 119.76091797 44.69753906 121.22265625 46.05078125 C128.58045357 52.93356603 134.44625902 60.2608181 135.56640625 70.5625 C135.91386352 81.66284541 131.83221606 89.45234867 124.83984375 97.86328125 C123.07988443 100.2402389 123.07988443 100.2402389 123.5 102.859375 C123.77328125 103.68824219 124.0465625 104.51710938 124.328125 105.37109375 C124.57691406 106.25410156 124.82570313 107.13710937 125.08203125 108.046875 C125.48228516 109.35205078 125.48228516 109.35205078 125.890625 110.68359375 C126.16003906 111.56660156 126.42945313 112.44960937 126.70703125 113.359375 C126.91199219 114.02324219 127.11695313 114.68710938 127.328125 115.37109375 C128.5346875 115.54125 129.74125 115.71140625 130.984375 115.88671875 C132.59906589 116.13079993 134.21364343 116.37563182 135.828125 116.62109375 C136.61960937 116.73066406 137.41109375 116.84023437 138.2265625 116.953125 C145.80043035 118.1326618 152.830253 120.87322175 158.328125 126.37109375 C162.96637759 133.23797014 165.47845778 138.45109492 165.56640625 146.78515625 C165.574478 147.51423187 165.58254974 148.2433075 165.59086609 148.99447632 C165.60469028 150.53942501 165.61541989 152.08440404 165.62329102 153.62939453 C165.634769 155.19654398 165.65515425 156.76365562 165.68481445 158.33056641 C165.90154545 169.78703981 165.23679622 179.06776214 157.0625 187.80859375 C149.06987101 195.00916041 137.87819673 197.37109375 127.328125 197.37109375 C127.225 198.05171875 127.121875 198.73234375 127.015625 199.43359375 C126.328125 202.37109375 126.328125 202.37109375 124.703125 205.93359375 C123.118515 209.75947882 123.118515 209.75947882 124.328125 213.37109375 C126.1502057 216.26645486 128.04039859 219.08538336 130.00195312 221.88671875 C134.57953186 228.69708059 136.37125969 236.18446703 135.328125 244.37109375 C133.41980845 252.37002538 130.07566275 257.64294061 124.328125 263.37109375 C123.23159118 264.52463497 122.13668434 265.67972387 121.04296875 266.8359375 C119.82704783 268.09912788 118.60958326 269.36083409 117.390625 270.62109375 C116.53138428 271.52565308 116.53138428 271.52565308 115.65478516 272.44848633 C109.05066081 279.13560518 102.07002097 282.47318166 92.640625 282.62109375 C84.29561242 282.49007302 79.25134677 280.98916047 72.72973633 275.68188477 C68.83328384 272.58948958 65.92080878 270.34013445 60.7109375 270.44140625 C56.86823843 271.59678348 54.37640619 272.75438739 51.328125 275.37109375 C49.36145093 279.59112908 48.93061843 283.78690462 48.328125 288.37109375 C46.04834556 297.02976343 42.59910928 304.11429145 34.79296875 308.9375 C26.28049423 313.33791025 19.28268768 313.61012183 9.765625 313.68359375 C8.54037109 313.71259766 7.31511719 313.74160156 6.05273438 313.77148438 C-4.94522098 313.84765562 -13.95194028 311.96503557 -22.0234375 304.140625 C-27.84737042 297.88886762 -30.28180557 290.27532645 -30.84375 281.76953125 C-31.06848928 279.1850295 -31.35963614 277.61807809 -32.671875 275.37109375 C-36.77140665 272.00268876 -40.36307711 270.56433614 -45.671875 270.37109375 C-50.28637616 272.03885526 -54.13112397 274.91203195 -58.04296875 277.8125 C-65.04425399 282.97423186 -72.23215073 283.11106957 -80.671875 282.37109375 C-90.44300145 280.5865467 -96.9765953 273.15221037 -103.671875 266.37109375 C-104.55875 265.49453125 -105.445625 264.61796875 -106.359375 263.71484375 C-113.32114616 256.47826584 -116.78028101 249.99320515 -117.171875 239.87109375 C-116.82822801 230.70001467 -113.95453546 224.85856929 -108.234375 217.80859375 C-105.35116457 214.21681231 -105.35116457 214.21681231 -104.75390625 209.8515625 C-105.53770381 207.52333626 -106.49407074 205.52363257 -107.671875 203.37109375 C-107.8678125 202.50355469 -108.06375 201.63601562 -108.265625 200.7421875 C-109.40482606 198.2802198 -109.40482606 198.2802198 -111.38720703 197.6640625 C-113.68190342 197.11018835 -115.96681758 196.68699508 -118.296875 196.30859375 C-128.27033236 194.59158173 -136.31954756 191.62589489 -142.671875 183.37109375 C-147.51792419 174.6775752 -147.88003036 167.05866176 -147.921875 157.24609375 C-147.9425 156.06015625 -147.963125 154.87421875 -147.984375 153.65234375 C-148.03276013 142.69311217 -146.51438494 133.45759289 -138.671875 125.37109375 C-132.68501138 119.62370467 -125.80826652 118.17007716 -117.87988281 116.75097656 C-116.74437988 116.54166504 -116.74437988 116.54166504 -115.5859375 116.328125 C-114.9048291 116.2144458 -114.2237207 116.1007666 -113.52197266 115.98364258 C-110.41422784 114.95469936 -108.98248369 112.81504859 -107.15234375 110.19921875 C-105.57077628 107.04564012 -104.80994919 104.92336597 -104.671875 101.37109375 C-106.43533951 97.07438964 -109.32299658 93.49647402 -112.1484375 89.8515625 C-117.39904818 82.96373569 -117.2757559 75.72477948 -116.671875 67.37109375 C-115.47414423 59.06509123 -110.38980721 54.154561 -104.671875 48.37109375 C-103.61542073 47.2451447 -102.56081939 46.117455 -101.5078125 44.98828125 C-90.66604374 33.53789103 -90.66604374 33.53789103 -82.671875 31.37109375 C-82.01574219 31.18546875 -81.35960937 30.99984375 -80.68359375 30.80859375 C-73.12037805 29.16377791 -64.6129814 30.21275394 -58.04248047 34.41259766 C-55.72628258 36.02584035 -53.4420533 37.6614466 -51.22558594 39.40991211 C-48.68651679 41.33943129 -47.25952017 42.40129578 -44.01171875 42.234375 C-41.99799205 41.49141406 -40.0179772 40.65820677 -38.046875 39.80859375 C-34.671875 38.37109375 -34.671875 38.37109375 -31.671875 38.37109375 C-31.63449219 37.77683594 -31.59710938 37.18257812 -31.55859375 36.5703125 C-30.65515524 25.17990153 -28.37529009 14.60620639 -19.71484375 6.55078125 C-13.57005359 1.68664525 -7.83125373 0.06163562 0 0 Z M-2.671875 28.37109375 C-3.50248236 30.88646535 -3.50248236 30.88646535 -3.953125 33.859375 C-4.15550781 34.95830078 -4.35789062 36.05722656 -4.56640625 37.18945312 C-4.76621094 38.34251953 -4.96601563 39.49558594 -5.171875 40.68359375 C-5.56896717 42.95214291 -5.97491694 45.21916325 -6.390625 47.484375 C-6.65262695 48.99704956 -6.65262695 48.99704956 -6.91992188 50.5402832 C-7.95945295 54.45371268 -9.13817142 57.44177887 -12.68969727 59.59375 C-13.44822998 59.87089844 -14.2067627 60.14804687 -14.98828125 60.43359375 C-15.83036133 60.75320068 -16.67244141 61.07280762 -17.54003906 61.40209961 C-18.42916992 61.72186768 -19.31830078 62.04163574 -20.234375 62.37109375 C-22.05470901 63.05639025 -23.87374053 63.74515721 -25.69140625 64.4375 C-26.55846191 64.76637207 -27.42551758 65.09524414 -28.31884766 65.43408203 C-31.12305582 66.5507609 -33.76882615 67.87169916 -36.421875 69.30859375 C-40.66935633 71.510715 -43.85114403 72.37109375 -48.671875 72.37109375 C-55.55667425 69.99209718 -60.83578508 65.76030118 -66.53125 61.31445312 C-70.50088013 58.14619301 -70.50088013 58.14619301 -75.296875 57.65234375 C-78.4683747 59.94750801 -81.27548543 62.42222125 -84.046875 65.18359375 C-84.60503906 65.70501953 -85.16320312 66.22644531 -85.73828125 66.76367188 C-87.5493097 68.48538955 -87.5493097 68.48538955 -89.671875 71.37109375 C-89.39982116 75.26542866 -88.06698092 77.60513358 -85.73046875 80.6640625 C-85.14716797 81.46005859 -84.56386719 82.25605469 -83.96289062 83.07617188 C-82.73514652 84.72049512 -81.49565067 86.35611406 -80.24414062 87.98242188 C-76.60649382 92.99778209 -74.76763008 96.69391948 -75.21313477 102.96704102 C-75.96887322 106.92752881 -77.52236895 110.21503049 -79.421875 113.74609375 C-80.16276359 115.21222179 -80.89843379 116.68099834 -81.62890625 118.15234375 C-81.98291504 118.86390625 -82.33692383 119.57546875 -82.70166016 120.30859375 C-84.82828627 124.82941343 -86.24819316 129.593314 -87.671875 134.37109375 C-88.671875 137.37109375 -88.671875 137.37109375 -90.86645508 138.48242188 C-93.7573807 139.39817936 -96.57678841 140.03907807 -99.55859375 140.58984375 C-100.66138672 140.79996094 -101.76417969 141.01007813 -102.90039062 141.2265625 C-105.21770669 141.65836052 -107.53542073 142.08802784 -109.85351562 142.515625 C-110.95244141 142.72574219 -112.05136719 142.93585938 -113.18359375 143.15234375 C-114.18865967 143.33861328 -115.19372559 143.52488281 -116.22924805 143.71679688 C-118.82921128 144.19505192 -118.82921128 144.19505192 -120.671875 146.37109375 C-121.17208848 149.66134259 -121.08849852 152.98459468 -121.109375 156.30859375 C-121.14224609 157.22833984 -121.17511719 158.14808594 -121.20898438 159.09570312 C-121.37575221 164.21998361 -121.37575221 164.21998361 -118.80078125 168.375 C-114.31690096 169.80245253 -109.81158129 170.618019 -105.171875 171.37109375 C-91.76053923 173.54789928 -91.76053923 173.54789928 -88.0390625 178.578125 C-86.36987247 181.98804178 -85.06073168 185.4848427 -83.796875 189.05859375 C-82.0805788 193.83282085 -80.28175865 198.30577609 -77.796875 202.74609375 C-75.27172314 207.68911978 -74.36535142 211.90366707 -75.671875 217.37109375 C-78.11708631 222.36907698 -81.42783168 226.69269754 -84.73046875 231.1484375 C-85.37113281 232.02628906 -86.01179688 232.90414062 -86.671875 233.80859375 C-87.27 234.59105469 -87.868125 235.37351563 -88.484375 236.1796875 C-89.88055162 238.24480529 -89.88055162 238.24480529 -89.41894531 240.30371094 C-88.0746267 244.02387106 -85.17008331 246.42636506 -82.421875 249.18359375 C-81.84824219 249.79396484 -81.27460938 250.40433594 -80.68359375 251.03320312 C-80.11769531 251.60490234 -79.55179688 252.17660156 -78.96875 252.765625 C-78.45666992 253.29003174 -77.94458984 253.81443848 -77.41699219 254.35473633 C-75.65432308 255.6000883 -75.65432308 255.6000883 -73.22436523 255.2019043 C-70.57385543 254.33918934 -68.78057221 253.32150875 -66.53515625 251.68359375 C-65.79330078 251.14992187 -65.05144531 250.61625 -64.28710938 250.06640625 C-63.52720703 249.50695312 -62.76730469 248.9475 -61.984375 248.37109375 C-60.46034438 247.26594874 -58.93563703 246.16173618 -57.41015625 245.05859375 C-56.74024658 244.56746094 -56.07033691 244.07632813 -55.38012695 243.5703125 C-50.98634707 240.48581246 -46.87955485 240.48534844 -41.671875 241.37109375 C-38.02055847 242.73585716 -34.56173419 244.48461906 -31.08300781 246.23510742 C-25.86851389 248.85800482 -20.73098119 250.82725057 -15.08984375 252.38671875 C-12.11425731 253.59810451 -10.65611613 254.8449013 -8.671875 257.37109375 C-7.73046875 260.11328125 -7.73046875 260.11328125 -7.109375 263.24609375 C-6.8721875 264.38433594 -6.635 265.52257812 -6.390625 266.6953125 C-6.1534375 267.90832031 -5.91625 269.12132812 -5.671875 270.37109375 C-5.15756849 272.93491169 -4.63689939 275.49746282 -4.109375 278.05859375 C-3.88121094 279.21746094 -3.65304687 280.37632812 -3.41796875 281.5703125 C-2.89211629 284.48502689 -2.89211629 284.48502689 -0.671875 286.37109375 C1.42625881 286.68093906 1.42625881 286.68093906 3.828125 286.63671875 C5.1584375 286.64058594 5.1584375 286.64058594 6.515625 286.64453125 C7.44375 286.63679688 8.371875 286.6290625 9.328125 286.62109375 C10.25625 286.62882812 11.184375 286.6365625 12.140625 286.64453125 C13.0275 286.64195312 13.914375 286.639375 14.828125 286.63671875 C16.05015625 286.63333496 16.05015625 286.63333496 17.296875 286.62988281 C19.55442951 286.55283668 19.55442951 286.55283668 21.328125 284.37109375 C22.03921078 281.82765511 22.03921078 281.82765511 22.546875 278.84765625 C22.86205078 277.1925 22.86205078 277.1925 23.18359375 275.50390625 C23.39628906 274.34632813 23.60898437 273.18875 23.828125 271.99609375 C24.24980935 269.71644261 24.67668635 267.43774435 25.109375 265.16015625 C25.29564453 264.14646973 25.48191406 263.1327832 25.67382812 262.08837891 C26.29097017 259.52539718 26.91424449 257.58876409 28.328125 255.37109375 C34.01973483 251.95612785 40.24809994 249.84966057 46.46777344 247.59570312 C50.05200196 246.28411365 53.38532309 244.90552261 56.703125 242.99609375 C61.44099498 240.872221 65.20422657 240.50482315 70.328125 241.37109375 C73.92714071 243.10343491 76.98250834 245.37829447 80.140625 247.80859375 C81.76680778 249.02279317 83.39815976 250.23010708 85.03515625 251.4296875 C85.7413208 251.96907959 86.44748535 252.50847168 87.17504883 253.06420898 C89.64983706 254.56636812 91.43652215 255.18922829 94.328125 255.37109375 C96.15797233 254.40925028 96.15797233 254.40925028 97.625 252.765625 C98.47384766 251.90807617 98.47384766 251.90807617 99.33984375 251.03320312 C99.91347656 250.42283203 100.48710937 249.81246094 101.078125 249.18359375 C101.66722656 248.59255859 102.25632812 248.00152344 102.86328125 247.39257812 C106.80678482 243.51813509 106.80678482 243.51813509 108.328125 238.37109375 C107.30617426 236.26553976 107.30617426 236.26553976 105.65234375 234.25390625 C105.07162109 233.48175781 104.49089844 232.70960938 103.89257812 231.9140625 C103.27318359 231.11613281 102.65378906 230.31820312 102.015625 229.49609375 C93.39814943 218.29246167 93.39814943 218.29246167 93.265625 210.87109375 C94.01137001 206.18355369 96.25162203 202.24619348 98.4621582 198.0925293 C101.25061645 192.78336696 103.2972209 187.32613065 105.11010742 181.61328125 C106.66649519 177.05811175 108.06799735 175.48332727 112.328125 173.37109375 C115.15893555 172.61914063 115.15893555 172.61914063 118.21484375 172.08984375 C119.31763672 171.88746094 120.42042969 171.68507812 121.55664062 171.4765625 C123.87400143 171.07092622 126.19171484 170.66729954 128.50976562 170.265625 C129.60869141 170.06324219 130.70761719 169.86085937 131.83984375 169.65234375 C132.84490967 169.47767578 133.84997559 169.30300781 134.88549805 169.12304688 C137.66617267 168.54870828 137.66617267 168.54870828 139.328125 165.37109375 C139.63379456 163.39274427 139.63379456 163.39274427 139.59375 161.24609375 C139.59761719 160.06273437 139.59761719 160.06273437 139.6015625 158.85546875 C139.59382813 158.035625 139.58609375 157.21578125 139.578125 156.37109375 C139.58585937 155.55125 139.59359375 154.73140625 139.6015625 153.88671875 C139.59898437 153.0978125 139.59640625 152.30890625 139.59375 151.49609375 C139.59036621 150.41714844 139.59036621 150.41714844 139.58691406 149.31640625 C139.4303094 147.04755937 139.4303094 147.04755937 137.328125 144.37109375 C134.71368003 143.5554509 134.71368003 143.5554509 131.62109375 143.125 C130.47705078 142.92712891 129.33300781 142.72925781 128.15429688 142.52539062 C125.74055054 142.13281674 123.32648961 141.74217195 120.91210938 141.35351562 C119.76419922 141.15435547 118.61628906 140.95519531 117.43359375 140.75 C115.85807739 140.49585327 115.85807739 140.49585327 114.25073242 140.23657227 C110.15884435 139.02483196 107.3230974 137.14862381 105.21313477 133.37915039 C104.98424561 132.68684326 104.75535645 131.99453613 104.51953125 131.28125 C104.25011719 130.50305908 103.98070312 129.72486816 103.703125 128.9230957 C103.3009375 127.69079224 103.3009375 127.69079224 102.890625 126.43359375 C100.84608844 120.46525078 98.67671891 114.81468891 95.828125 109.18359375 C92.39736276 101.85045505 92.39736276 101.85045505 93.45703125 97.38671875 C95.48995244 92.68273967 98.39445175 88.54970495 101.328125 84.37109375 C102.32779297 82.92283203 102.32779297 82.92283203 103.34765625 81.4453125 C104.99295274 79.07621959 106.65260256 76.71886228 108.328125 74.37109375 C107.00691672 71.43879182 105.58174303 69.38444476 103.2890625 67.13671875 C102.41894531 66.27626953 102.41894531 66.27626953 101.53125 65.3984375 C100.92796875 64.81191406 100.3246875 64.22539063 99.703125 63.62109375 C99.09210938 63.01910156 98.48109375 62.41710938 97.8515625 61.796875 C96.34823876 60.3170407 94.83877644 58.84344699 93.328125 57.37109375 C88.38023356 58.99462063 84.5205106 61.87763761 80.328125 64.87109375 C68.82849619 73.08208333 68.82849619 73.08208333 61.44726562 71.90087891 C57.73750746 70.97343936 54.46619916 69.29790707 51.078125 67.55859375 C45.07500285 64.57843711 39.25357067 62.16948351 32.74609375 60.453125 C29.52589227 59.01209784 28.32085596 57.26892583 26.328125 54.37109375 C25.46264648 51.44848633 25.46264648 51.44848633 24.94921875 48.265625 C24.75005859 47.11771484 24.55089844 45.96980469 24.34570312 44.78710938 C24.15427734 43.59794922 23.96285156 42.40878906 23.765625 41.18359375 C23.38009985 38.81318665 22.98350931 36.44454438 22.57421875 34.078125 C22.32176392 32.50768433 22.32176392 32.50768433 22.06420898 30.90551758 C21.52650593 28.03800448 21.52650593 28.03800448 18.328125 26.37109375 C16.34977552 26.06542419 16.34977552 26.06542419 14.203125 26.10546875 C13.01976562 26.10160156 13.01976562 26.10160156 11.8125 26.09765625 C10.99265625 26.10539062 10.1728125 26.113125 9.328125 26.12109375 C8.50828125 26.11335938 7.6884375 26.105625 6.84375 26.09765625 C6.05484375 26.10023437 5.2659375 26.1028125 4.453125 26.10546875 C3.37417969 26.10885254 3.37417969 26.10885254 2.2734375 26.11230469 C0.00459062 26.26890935 0.00459062 26.26890935 -2.671875 28.37109375 Z " fill="#8B8B8B" transform="translate(346.671875,-0.37109375)"/>
<path d="M0 0 C3.9604344 1.94520353 6.31801974 4.96847386 8 9 C8.5289456 16.75527595 7.16516829 24.077867 5.75 31.6875 C5.44255859 33.4828418 5.44255859 33.4828418 5.12890625 35.31445312 C3.07957785 46.47397778 3.07957785 46.47397778 -1 51 C-2.8671875 52.28515625 -2.8671875 52.28515625 -4.875 53.0625 C-5.66648438 53.37832031 -6.45796875 53.69414062 -7.2734375 54.01953125 C-11.53609973 55.5523797 -15.82267514 57.01664214 -20.10546875 58.4921875 C-22.95611253 59.53984122 -25.64913671 60.77065756 -28.36328125 62.1328125 C-29.10320312 62.50245117 -29.843125 62.87208984 -30.60546875 63.25292969 C-32.03867305 63.9815809 -33.46268074 64.72872049 -34.875 65.49707031 C-40.13469653 68.17015593 -44.27697731 68.55929289 -50 67 C-53.046875 65.46875 -53.046875 65.46875 -55.75 63.5 C-56.75804688 62.78714844 -57.76609375 62.07429688 -58.8046875 61.33984375 C-59.85914062 60.56769531 -60.91359375 59.79554688 -62 59 C-63.72142304 57.74854809 -65.44639812 56.50313404 -67.18066406 55.26953125 C-68.79348294 54.12057209 -70.39322441 52.95332101 -71.9921875 51.78515625 C-75.18168586 49.89216826 -77.29924556 49.10166908 -81 49 C-83.00916713 49.94575943 -83.00916713 49.94575943 -84.625 51.6875 C-85.62080078 52.64849609 -85.62080078 52.64849609 -86.63671875 53.62890625 C-87.41660156 54.41136719 -88.19648437 55.19382813 -89 56 C-90.04628898 56.99027996 -91.09459797 57.97842845 -92.14453125 58.96484375 C-93.24354967 60.0168079 -94.3412068 61.07019608 -95.4375 62.125 C-96.23631592 62.87849731 -96.23631592 62.87849731 -97.05126953 63.6472168 C-99.25749957 65.82164339 -100.86963341 67.67183582 -102.01953125 70.56640625 C-101.9937808 73.77491277 -101.06274684 75.17237558 -99.25 77.8125 C-98.61320312 78.75609375 -97.97640625 79.6996875 -97.3203125 80.671875 C-96.5473561 81.78158526 -95.77387199 82.89092805 -95 84 C-94.0380275 85.40033122 -93.07715016 86.80141521 -92.1171875 88.203125 C-90.63199834 90.37011577 -89.14415668 92.5349188 -87.64550781 94.69262695 C-87.18756836 95.35222412 -86.72962891 96.01182129 -86.2578125 96.69140625 C-85.8467627 97.28123291 -85.43571289 97.87105957 -85.01220703 98.47875977 C-82.33072044 102.50875083 -82.4006426 106.28241924 -83 111 C-84.24103594 114.54923608 -85.93566961 117.80346785 -87.6875 121.125 C-91.48206115 128.63046269 -94.53377292 135.86526675 -96.76953125 143.96875 C-98.50696671 148.24890846 -100.6702979 150.89947499 -104.91430664 152.90429688 C-111.97475987 155.45985752 -119.4319149 156.35256157 -126.82421875 157.4609375 C-133.92541191 158.45039464 -133.92541191 158.45039464 -140 162 C-141.6847782 166.93345973 -141.18431411 172.29228302 -141.1875 177.4375 C-141.20586914 178.99307617 -141.20586914 178.99307617 -141.22460938 180.58007812 C-141.22654297 181.58361328 -141.22847656 182.58714844 -141.23046875 183.62109375 C-141.23663208 184.98899048 -141.23663208 184.98899048 -141.24291992 186.38452148 C-140.9746511 189.27292743 -140.28210455 191.40448534 -139 194 C-137.1474907 195.12517694 -137.1474907 195.12517694 -134.75 195.5625 C-133.78191406 195.79195312 -132.81382812 196.02140625 -131.81640625 196.2578125 C-128.74445332 196.85522402 -125.67471317 197.40589187 -122.58984375 197.9296875 C-121.62143555 198.09654053 -120.65302734 198.26339355 -119.65527344 198.43530273 C-117.70406686 198.76547976 -115.75023417 199.0805572 -113.79394531 199.37915039 C-107.28754499 200.45650889 -102.38631231 201.80041533 -98.2578125 207.3359375 C-96.82040122 210.38039244 -95.84064888 213.39901746 -94.875 216.625 C-92.62241104 223.88843141 -89.47813761 230.57347927 -85.94677734 237.30126953 C-83.45798579 242.23777651 -81.75971715 246.45650397 -83 252 C-86.12221606 259.6086398 -91.60153747 266.10257234 -96.53515625 272.6015625 C-97.09589844 273.35695313 -97.65664062 274.11234375 -98.234375 274.890625 C-98.74194336 275.56125977 -99.24951172 276.23189453 -99.77246094 276.92285156 C-101.19598241 279.33162655 -101.7325474 281.21894152 -102 284 C-99.273853 289.16979172 -95.22853313 293.13775449 -91.125 297.25 C-90.22587891 298.18585938 -90.22587891 298.18585938 -89.30859375 299.140625 C-85.87350881 302.59806408 -83.03680232 305.44766136 -78 306 C-75.30958434 304.81400759 -73.36580845 303.67800594 -71 302 C-70.21431641 301.46068848 -69.42863281 300.92137695 -68.61914062 300.36572266 C-65.06512548 297.90125467 -61.54964483 295.38408521 -58.03125 292.86914062 C-57.17015625 292.25876953 -56.3090625 291.64839844 -55.421875 291.01953125 C-54.64424805 290.46370361 -53.86662109 289.90787598 -53.06542969 289.33520508 C-48.95418921 286.67747763 -44.75824025 286.38112662 -40 287 C-36.86762302 288.09118818 -33.99533625 289.58454198 -31.0625 291.125 C-24.02382257 294.66240442 -17.04022636 297.61816152 -9.51977539 299.97119141 C-5.25501872 301.3537022 -2.06160485 302.68416295 1 306 C4.89247502 313.89157844 5.6470073 323.36160417 7.10546875 331.93359375 C7.30785156 333.05636719 7.51023438 334.17914063 7.71875 335.3359375 C7.89341797 336.35220215 8.06808594 337.3684668 8.24804688 338.41552734 C9.05573399 341.19155843 9.71248449 342.28019414 12 344 C16.7024011 345.56746703 21.45034843 345.18447503 26.375 345.1875 C27.4165625 345.19974609 28.458125 345.21199219 29.53125 345.22460938 C30.53929687 345.22654297 31.54734375 345.22847656 32.5859375 345.23046875 C33.5042334 345.23457764 34.4225293 345.23868652 35.36865234 345.24291992 C38.32439808 344.97005232 40.38623835 344.41236896 43 343 C45.22027838 339.89851313 45.56640015 336.44507759 46.1484375 332.73046875 C46.34953125 331.51166016 46.550625 330.29285156 46.7578125 329.03710938 C47.16724438 326.4833428 47.57094985 323.92865115 47.96875 321.37304688 C50.41482022 306.68888484 50.41482022 306.68888484 55.796875 302.65234375 C56.76367188 302.29849609 56.76367188 302.29849609 57.75 301.9375 C58.53503906 301.63328125 59.32007813 301.3290625 60.12890625 301.015625 C61.55009766 300.51289062 61.55009766 300.51289062 63 300 C65.56445487 299.06747096 68.12677181 298.13012366 70.6875 297.1875 C71.37368408 296.93911377 72.05986816 296.69072754 72.7668457 296.43481445 C77.54011883 294.66773994 81.95664801 292.52694794 86.4375 290.125 C96.14455263 285.20558871 96.14455263 285.20558871 102 287 C105.95131165 288.95024546 109.42732545 291.43241448 113 294 C115.08884611 295.46629812 117.18301473 296.9245018 119.28100586 298.37768555 C120.69881425 299.36210974 122.11128967 300.3542676 123.51782227 301.35473633 C124.17065186 301.81259521 124.82348145 302.2704541 125.49609375 302.7421875 C126.07544678 303.1532373 126.6547998 303.56428711 127.25170898 303.98779297 C129.1850742 305.1071523 130.79461333 305.65603032 133 306 C138.28125712 303.75638902 142.23588125 299.16913038 146.25 295.1875 C146.9821875 294.48818359 147.714375 293.78886719 148.46875 293.06835938 C151.50418654 290.06383932 153.69437076 287.84770812 155.15625 283.79296875 C154.96683629 280.40719867 154.18366024 278.90131034 152.25 276.125 C151.61320312 275.18269531 150.97640625 274.24039062 150.3203125 273.26953125 C149.09275801 271.52514038 147.85014164 269.79267676 146.60058594 268.06396484 C145.60189167 266.68229533 144.60848927 265.29678702 143.62011719 263.90771484 C142.64354051 262.53916797 141.65250593 261.18079258 140.64550781 259.83447266 C137.29703504 255.15344439 135.98850878 251.80881152 136 246 C137.19140625 242.54296875 137.19140625 242.54296875 139 239 C139.64126406 237.60352135 140.27503324 236.20358335 140.90234375 234.80078125 C141.23331055 234.07213867 141.56427734 233.34349609 141.90527344 232.59277344 C144.64145123 226.54833149 147.2581798 220.59049539 149.25 214.25 C150.64232704 209.92960323 151.81390738 206.35831384 155 203 C161.45898415 200.04742232 168.61349147 198.98051517 175.5625 197.8125 C176.55185547 197.63525391 177.54121094 197.45800781 178.56054688 197.27539062 C192.78628385 194.83048958 192.78628385 194.83048958 198.3125 197.75 C202.0163954 200.85093569 203.62952439 202.59748521 204.875 207.3125 C205.02575378 211.75973651 204.18478216 214.14021819 202 218 C194.69288592 224.88481151 183.64659796 225.36850713 174 226 C173.85111328 227.26650391 173.85111328 227.26650391 173.69921875 228.55859375 C172.66579005 233.64491045 170.32203513 238.00317302 168.08203125 242.66015625 C166.74983678 245.83025982 166.74983678 245.83025982 167.51953125 248.48828125 C169.48272554 251.81897763 171.65065047 254.96488963 173.875 258.125 C180.93670059 268.49900451 184.84182011 277.87760024 182.52734375 290.59765625 C179.79288429 301.19163991 172.80803437 308.68213743 165.1875 316.1875 C164.43146484 316.95513672 163.67542969 317.72277344 162.89648438 318.51367188 C153.52242093 327.83978614 144.512327 333.80529788 131 334 C121.96526349 333.31285103 114.57043713 330.51421667 108.03125 324.16796875 C103.10161545 319.58717034 103.10161545 319.58717034 97 317 C90.48603612 317.85051373 84.56097185 321.01715292 78.84082031 324.10693359 C77 325 77 325 75 325 C74.96261719 325.63164062 74.92523438 326.26328125 74.88671875 326.9140625 C73.86490311 340.81876947 71.83191746 355.2178719 61 365 C58.11211006 366.92866148 55.14796854 368.53824765 52 370 C51.31196289 370.34458252 50.62392578 370.68916504 49.91503906 371.04418945 C45.94511451 372.34588582 42.26653984 372.32463403 38.11328125 372.3359375 C37.25623093 372.3425943 36.3991806 372.3492511 35.51615906 372.35610962 C33.70488624 372.36621369 31.89357636 372.37092733 30.08227539 372.37060547 C27.33871445 372.37495841 24.59679013 372.41124443 21.85351562 372.44921875 C9.37746118 372.53083181 0.07239238 371.6509819 -9.3203125 362.7109375 C-18.88675005 352.96651972 -22 338.41296623 -22 325 C-22.61746094 324.82984375 -23.23492187 324.6596875 -23.87109375 324.484375 C-29.16256087 322.97022611 -34.00284033 321.2049082 -38.89453125 318.671875 C-41.65311749 317.79158403 -43.21541468 318.25115836 -46 319 C-48.16511017 320.15743858 -48.16511017 320.15743858 -50.21484375 321.65234375 C-50.98376953 322.18150391 -51.75269531 322.71066406 -52.54492188 323.25585938 C-53.33447266 323.81080078 -54.12402344 324.36574219 -54.9375 324.9375 C-64.76955474 331.83364996 -73.90765318 335.39219433 -86.125 333.375 C-96.4271003 330.74792146 -103.34925466 324.34307619 -110.65820312 316.97314453 C-112.24403665 315.38098713 -113.85470233 313.81739221 -115.46875 312.25390625 C-124.01363579 303.81595578 -129.65313984 295.36792082 -130.11328125 283.0234375 C-129.64447839 270.51125074 -123.42416823 260.06658505 -115.125 250.9375 C-113.75199114 248.97405218 -113.75199114 248.97405218 -114.12109375 246.234375 C-115.15581011 242.4266188 -116.52609248 238.87891615 -118.0625 235.25 C-121 228.24570938 -121 228.24570938 -121 226 C-122.175625 225.896875 -123.35125 225.79375 -124.5625 225.6875 C-139.67784448 223.94708967 -153.11698544 221.3937111 -163 209 C-167.28063532 202.16339112 -168.16667635 196.18327864 -168.23828125 188.17578125 C-168.246353 187.31494431 -168.25442474 186.45410736 -168.26274109 185.56718445 C-168.27655499 183.74573768 -168.28728916 181.92426532 -168.29516602 180.1027832 C-168.30666688 178.25146836 -168.32708864 176.40018618 -168.35668945 174.54907227 C-168.39963215 171.86191472 -168.41557276 169.17574053 -168.42578125 166.48828125 C-168.44328934 165.67232986 -168.46079742 164.85637848 -168.47883606 164.01570129 C-168.44440444 154.7505145 -164.31575805 146.68229758 -158 140 C-148.2491236 131.58225123 -133.6548841 128.70088456 -121 129 C-120.84144531 128.41734375 -120.68289062 127.8346875 -120.51953125 127.234375 C-120.28621094 126.41453125 -120.05289063 125.5946875 -119.8125 124.75 C-119.55855469 123.83089844 -119.30460937 122.91179687 -119.04296875 121.96484375 C-118 119 -118 119 -116.30078125 116.19140625 C-114.41160671 112.94590128 -113.34090304 110.75890452 -113 107 C-115.14422213 101.96890953 -119.12112738 97.89004481 -122.60742188 93.74707031 C-128.33581457 86.56046825 -130.37181787 78.05144137 -130 69 C-127.90092707 51.79197507 -114.12378973 39.13076429 -101.27490234 28.58398438 C-92.89160956 22.275974 -84.42347762 20.04371765 -74 21 C-63.71308247 22.56171025 -55.01396311 29.21433188 -46.890625 35.34765625 C-44.20309872 37.21439859 -44.20309872 37.21439859 -41.5703125 36.94140625 C-37.62758665 35.49733797 -33.81553344 33.81901051 -29.99609375 32.08398438 C-27.13961094 30.81546029 -25.16482707 30 -22 30 C-21.96261719 29.42894531 -21.92523438 28.85789063 -21.88671875 28.26953125 C-20.21573034 7.66067416 -20.21573034 7.66067416 -13 1 C-9.0327265 -0.98363675 -4.3131746 -0.54751158 0 0 Z " fill="#8B8B8B" transform="translate(168,140)"/>
<path d="M0 0 C3.76604202 3.76604202 5.47157587 6.39707164 5.75 11.75 C5.57681338 16.27544163 4.40097593 18.89892134 1.3125 22.3125 C-3.30219833 25.12085408 -7.46477003 25.80591228 -12.75 26.1875 C-24.6583722 27.33597746 -34.82545655 31.55095689 -44.6875 38.3125 C-45.29980469 38.72757812 -45.91210938 39.14265625 -46.54296875 39.5703125 C-57.95339306 48.2913233 -65.36237754 63.71372846 -67.40234375 77.6171875 C-68.9688275 92.42367773 -65.65536044 108.80359137 -56.50244141 120.87548828 C-45.48003397 134.4654976 -31.30682551 143.28599611 -13.6875 145.3125 C2.61481322 146.69993091 17.68483329 141.2449139 30.6875 131.5625 C42.78178562 121.25554723 50.04833095 106.05399331 51.609375 90.3203125 C51.67640625 89.36898437 51.7434375 88.41765625 51.8125 87.4375 C52.26110517 81.55484732 53.46649846 77.98269187 57.9375 73.9375 C62.25267237 71.85982442 65.60630332 71.47752962 70.3125 72.3125 C74.82551447 74.56900723 77.1051331 76.82186819 79.3125 81.3125 C82.03953288 101.0404946 74.37919257 121.86267305 63 137.6875 C47.5474402 156.96364542 27.85227 169.2612909 3.25 173.0625 C-23.51024542 174.7615632 -45.92877949 168.40791689 -66.6875 151.3125 C-82.65650952 137.15645735 -93.99254411 116.14853278 -95.59375 94.65234375 C-95.6246875 93.88019531 -95.655625 93.10804688 -95.6875 92.3125 C-95.7390625 91.30316406 -95.790625 90.29382813 -95.84375 89.25390625 C-96.45262546 66.90310281 -89.56652991 44.74643123 -74.3125 28.0625 C-72.46633136 26.11355819 -70.5850649 24.21276414 -68.6875 22.3125 C-67.95660156 21.57 -67.22570312 20.8275 -66.47265625 20.0625 C-52.86673466 7.0900012 -18.13163119 -10.98616077 0 0 Z " fill="#8B8B8B" transform="translate(202.6875,231.6875)"/>
<path d="M0 0 C13.11715329 9.9626205 22.08151471 23.67693134 25 40 C26.43725101 59.20365592 24.12995501 76.6099456 11.16040039 91.6809082 C-1.01487302 105.22608428 -15.89985294 112.5957825 -34.06640625 114.28515625 C-52.05573818 114.83609451 -67.59149739 108.4622751 -80.75 96.5 C-81.86375 95.2625 -81.86375 95.2625 -83 94 C-83.54011719 93.45214844 -84.08023437 92.90429688 -84.63671875 92.33984375 C-95.91028269 80.43046058 -100.44326207 64.40216354 -100.203125 48.29296875 C-99.07059569 29.93292622 -90.97167174 15.06330282 -77.59375 2.79296875 C-71.87275678 -2.08616945 -66.02289036 -5.35891303 -59 -8 C-58.21882813 -8.3196875 -57.43765625 -8.639375 -56.6328125 -8.96875 C-37.88535681 -15.43752065 -15.86423862 -11.18687479 0 0 Z M-64 27 C-69.53691853 34.19315835 -73.79404353 43.47364576 -73.34375 52.7421875 C-71.51413592 64.75942545 -66.91739547 73.50936536 -57.25 80.875 C-49.2425142 86.12002489 -40.01668753 88.45289357 -30.56640625 86.49609375 C-22.23003946 84.27560031 -15.78738978 80.43043309 -10 74 C-9.319375 73.278125 -8.63875 72.55625 -7.9375 71.8125 C-1.70947133 62.77181321 -0.96840238 53.66346174 -2 43 C-3.84705778 33.92372932 -9.95237862 26.91167755 -17.15234375 21.33203125 C-32.24270019 11.45523365 -51.47116234 14.44716074 -64 27 Z " fill="#8B8B8B" transform="translate(393,105)"/>
</svg>
