<?xml version="1.0" encoding="UTF-8"?>
<svg version="1.1" xmlns="http://www.w3.org/2000/svg" width="512" height="512">
<path d="M0 0 C0.94488785 -0.00705963 1.8897757 -0.01411926 2.86329651 -0.02139282 C41.91562467 -0.247035 41.91562467 -0.247035 58.76953125 3.203125 C59.7661377 3.39648438 60.76274414 3.58984375 61.78955078 3.7890625 C110.19101182 13.35276024 154.38512896 35.77050265 189.76953125 70.203125 C190.77330811 71.16822998 190.77330811 71.16822998 191.79736328 72.15283203 C200.73444332 80.76720099 209.13659789 89.47627109 216.49560547 99.48486328 C217.79203791 101.23348182 219.12241843 102.95141303 220.4609375 104.66796875 C228.32520366 114.8826848 234.71064045 125.84037758 240.76953125 137.203125 C241.43299561 138.44376709 241.43299561 138.44376709 242.10986328 139.70947266 C253.62657967 161.61261762 261.29758965 185.90372389 265.76953125 210.203125 C265.9303418 211.00379395 266.09115234 211.80446289 266.25683594 212.62939453 C271.74897535 240.70724953 271.50349817 274.19290435 265.76953125 302.203125 C265.57617188 303.19973145 265.3828125 304.19633789 265.18359375 305.22314453 C257.06481252 346.31194555 239.6953801 383.40611994 213.76953125 416.203125 C212.95742188 417.24082031 212.1453125 418.27851563 211.30859375 419.34765625 C198.63372356 434.92135321 184.07015514 449.45563789 167.76953125 461.203125 C166.68115764 462.01932333 165.59392981 462.8370516 164.5078125 463.65625 C133.30033827 486.90636708 96.98105174 502.17086575 58.76953125 509.203125 C57.9688623 509.36393555 57.16819336 509.52474609 56.34326172 509.69042969 C28.27626081 515.180446 -5.23231119 514.95256215 -33.23046875 509.203125 C-34.24302734 509.00444824 -35.25558594 508.80577148 -36.29882812 508.60107422 C-69.69196134 501.92344797 -103.47079609 489.30371699 -131.23046875 469.203125 C-131.83955078 468.76242676 -132.44863281 468.32172852 -133.07617188 467.86767578 C-137.85568683 464.39134384 -142.56479159 460.83065303 -147.23046875 457.203125 C-147.77251953 456.78256836 -148.31457031 456.36201172 -148.87304688 455.92871094 C-165.10894238 443.16601147 -180.1771982 427.97592947 -192.23046875 411.203125 C-193.09422145 410.03324044 -193.95882344 408.8639825 -194.82421875 407.6953125 C-209.96754617 387.0693007 -222.04968525 364.46015373 -230.23046875 340.203125 C-230.64353271 338.98061035 -230.64353271 338.98061035 -231.06494141 337.73339844 C-234.30302381 327.96254823 -236.83532348 318.08093763 -238.98046875 308.015625 C-239.17922607 307.09096436 -239.3779834 306.16630371 -239.58276367 305.21362305 C-242.87545902 289.00701323 -243.60577153 273.0727548 -243.54296875 256.578125 C-243.5408136 255.55988647 -243.53865845 254.54164795 -243.53643799 253.49255371 C-243.48673484 238.8683366 -243.17254863 224.57507862 -240.23046875 210.203125 C-239.94042969 208.70821533 -239.94042969 208.70821533 -239.64453125 207.18310547 C-232.01587656 168.57481372 -216.30304558 132.42145621 -192.23046875 101.203125 C-191.26560547 99.95015625 -191.26560547 99.95015625 -190.28125 98.671875 C-176.19691174 80.74132256 -159.85363505 63.45372011 -141.23046875 50.203125 C-140.61284668 49.75710937 -139.99522461 49.31109375 -139.35888672 48.8515625 C-99.20602152 19.97940435 -49.95191371 0.24935871 0 0 Z M-147.37280273 97.11108398 C-153.44557214 103.12704047 -159.0306746 109.40896888 -164.23046875 116.203125 C-164.66069336 116.76225586 -165.09091797 117.32138672 -165.53417969 117.89746094 C-172.46326353 126.95100483 -178.61245074 136.28666996 -184.23046875 146.203125 C-184.57174805 146.79528809 -184.91302734 147.38745117 -185.26464844 147.99755859 C-197.9886112 170.18839316 -206.14772233 195.00513591 -210.23046875 220.203125 C-210.40852051 221.27006592 -210.58657227 222.33700684 -210.77001953 223.4362793 C-212.3918592 234.14201544 -212.62951588 244.70510474 -212.60546875 255.515625 C-212.60492493 256.4379895 -212.6043811 257.360354 -212.6038208 258.31066895 C-212.47112282 307.4131688 -196.03590625 364.40764207 -160.37890625 400.15234375 C-159.66992188 400.82910156 -158.9609375 401.50585938 -158.23046875 402.203125 C-156.70121953 398.17806846 -155.20020505 394.15560014 -153.828125 390.07421875 C-139.04664116 346.87168445 -108.91744141 310.77124536 -67.95996094 290.0546875 C-63.08797862 287.68707146 -58.16107187 285.44528585 -53.23046875 283.203125 C-51.89254668 282.54571588 -50.55618054 281.88482176 -49.23046875 281.203125 C-52.04075623 278.30501604 -54.91623429 275.58223816 -57.98046875 272.953125 C-78.5958421 254.88571914 -90.25449724 232.31805232 -94.23046875 205.203125 C-96.03088353 173.76133593 -89.4450975 144.88129261 -68.44262695 120.76855469 C-55.21884068 106.0729312 -39.12535611 95.26742837 -20.23046875 89.203125 C-19.59866699 88.99574707 -18.96686523 88.78836914 -18.31591797 88.57470703 C1.57867751 82.31901146 26.0052496 82.5417061 45.76953125 89.203125 C46.47287598 89.43918457 47.1762207 89.67524414 47.90087891 89.91845703 C74.92020927 99.35059329 96.98554873 118.49928584 109.76953125 144.203125 C122.00673817 171.28231575 123.95649856 202.09645111 113.74902344 230.2097168 C106.11116017 249.77215575 92.68209317 268.80422196 74.76953125 280.203125 C76.34761148 283.35928545 79.57724996 283.9291329 82.70703125 285.203125 C120.10795144 301.12038858 150.13490911 329.11143757 168.76953125 365.203125 C169.12144531 365.88101074 169.47335937 366.55889648 169.8359375 367.25732422 C175.44415401 378.20731522 179.34922421 389.40047459 182.76953125 401.203125 C185.71544015 401.54516528 185.71544015 401.54516528 187.12890625 399.92822266 C187.5878125 399.33058105 188.04671875 398.73293945 188.51953125 398.1171875 C189.0400708 397.44284668 189.56061035 396.76850586 190.09692383 396.07373047 C190.64888428 395.33268066 191.20084473 394.59163086 191.76953125 393.828125 C192.34405029 393.06516113 192.91856934 392.30219727 193.51049805 391.51611328 C199.50750093 383.41813365 204.75759817 374.93671072 209.76953125 366.203125 C210.13916992 365.56697266 210.50880859 364.93082031 210.88964844 364.27539062 C227.27826151 335.84832168 237.69245293 300.91460127 238.0078125 268.05078125 C238.01760635 267.2014653 238.02740021 266.35214935 238.03749084 265.47709656 C238.21226359 246.38075421 238.02091429 227.92021091 233.76953125 209.203125 C233.44807129 207.78362549 233.44807129 207.78362549 233.12011719 206.33544922 C221.4982695 156.87915852 193.35151478 110.26186973 152.76953125 79.203125 C152.21040039 78.77290039 151.65126953 78.34267578 151.07519531 77.89941406 C142.02165142 70.97033022 132.68598629 64.82114301 122.76953125 59.203125 C122.17736816 58.8618457 121.58520508 58.52056641 120.97509766 58.16894531 C98.69744555 45.3952024 74.00351744 37.49561598 48.76953125 33.203125 C47.50882812 32.98785156 46.248125 32.77257813 44.94921875 32.55078125 C-25.93665868 21.87895135 -96.50605262 47.64937142 -147.37280273 97.11108398 Z M-42.23046875 137.203125 C-58.03244432 154.2263889 -64.99979396 173.8582025 -64.53515625 196.84375 C-63.77600145 214.54899669 -56.13362558 231.19433898 -44.23046875 244.203125 C-43.64007813 244.88503906 -43.0496875 245.56695312 -42.44140625 246.26953125 C-29.67617091 260.14832967 -10.57159692 268.36841432 8.0625 269.5234375 C29.29676638 270.32643341 49.00216293 263.63040958 64.76953125 249.203125 C65.79240234 248.31753906 65.79240234 248.31753906 66.8359375 247.4140625 C80.50185224 234.84463016 89.11534508 215.67673965 90.08984375 197.2734375 C90.81744972 174.37698139 83.87547521 155.5504455 68.76953125 138.203125 C54.80784028 123.4421959 35.40095892 115.50256865 15.3515625 114.2421875 C-6.50379056 114.00385213 -26.31681969 122.22135629 -42.23046875 137.203125 Z M-98.23046875 352.203125 C-116.48284267 373.00919428 -127.8695149 399.440131 -131.73046875 426.73828125 C-131.19652409 430.4383509 -131.02061015 430.84016817 -128.36328125 433.125 C-127.04583792 434.0933858 -125.70818477 435.03465487 -124.35546875 435.953125 C-123.6394751 436.46262695 -122.92348145 436.97212891 -122.18579102 437.49707031 C-114.12619038 443.1451575 -105.75123689 448.28587072 -97.23046875 453.203125 C-96.59286621 453.57421387 -95.95526367 453.94530273 -95.29833984 454.32763672 C-46.58153907 482.40808872 14.32427881 488.9535156 68.45825195 475.13427734 C98.6368509 466.96978561 125.86742781 453.75739856 150.609375 434.63671875 C152.61381793 433.09312426 154.66451383 431.60646995 156.76953125 430.203125 C157.39644556 424.33153728 156.03113932 418.89148129 154.64453125 413.203125 C154.41789795 412.27322754 154.19126465 411.34333008 153.95776367 410.38525391 C148.99761164 390.7646457 139.73243867 371.78374393 126.76953125 356.203125 C126.06111084 355.33880859 126.06111084 355.33880859 125.33837891 354.45703125 C119.60631231 347.48046644 113.89810797 340.7977042 106.76953125 335.203125 C105.37541016 334.05457031 105.37541016 334.05457031 103.953125 332.8828125 C42.07679517 282.72357243 -46.12840955 294.49962525 -98.23046875 352.203125 Z " fill="#8D8D8D" transform="translate(243.23046875,-0.203125)"/>
</svg>
