<?xml version="1.0" encoding="UTF-8"?>
<svg version="1.1" xmlns="http://www.w3.org/2000/svg" width="512" height="512">
<path d="M0 0 C1.01790619 0.00215515 2.03581238 0.0043103 3.08456421 0.00653076 C17.69363523 0.05620146 32.02575853 0.30709809 46.375 3.3125 C47.34985352 3.51117676 48.32470703 3.70985352 49.32910156 3.91455078 C88.38660539 12.08468046 124.82400319 27.71035417 156.375 52.3125 C157.25929688 52.98539063 158.14359375 53.65828125 159.0546875 54.3515625 C174.64162389 66.45260257 189.26666068 80.75087979 201.375 96.3125 C202.15101563 97.2715625 202.92703125 98.230625 203.7265625 99.21875 C238.25804162 142.62975232 256.81395322 197.76040062 256.69067383 253.03979492 C256.6875221 255.97938487 256.71104926 258.9179558 256.73632812 261.85742188 C256.78098737 275.23056192 255.57551542 288.12666711 253.375 301.3125 C253.09281616 303.01805054 253.09281616 303.01805054 252.80493164 304.75805664 C245.77946967 343.86954746 228.79665906 381.05202178 204.375 412.3125 C203.61574219 413.28445313 202.85648437 414.25640625 202.07421875 415.2578125 C189.73986402 430.63741644 175.93895499 445.19015196 160.375 457.3125 C159.43914062 458.07691406 158.50328125 458.84132813 157.5390625 459.62890625 C125.58628299 485.2157721 86.41988322 501.72551276 46.375 509.3125 C45.56562988 509.47621094 44.75625977 509.63992188 43.92236328 509.80859375 C13.88110013 515.67977137 -20.7615176 514.58512909 -50.625 508.3125 C-52.14794678 507.99901611 -52.14794678 507.99901611 -53.70166016 507.67919922 C-90.84546555 499.78695344 -125.70945445 483.68345578 -155.625 460.3125 C-156.59695312 459.55324219 -157.56890625 458.79398437 -158.5703125 458.01171875 C-173.94991644 445.67736402 -188.50265196 431.87645499 -200.625 416.3125 C-201.77162109 414.90871094 -201.77162109 414.90871094 -202.94140625 413.4765625 C-228.5282721 381.52378299 -245.03801276 342.35738322 -252.625 302.3125 C-252.78871094 301.50312988 -252.95242187 300.69375977 -253.12109375 299.85986328 C-258.59069558 271.87335724 -258.46977511 238.21828161 -252.625 210.3125 C-252.42632324 209.33764648 -252.22764648 208.36279297 -252.02294922 207.35839844 C-241.7272891 158.1397446 -219.29081567 114.71000304 -184.625 78.3125 C-184.05475098 77.71356934 -183.48450195 77.11463867 -182.89697266 76.49755859 C-174.89671874 68.15723469 -166.68033043 60.51197864 -157.39306641 53.62744141 C-155.58557641 52.28318 -153.79826388 50.91490873 -152.01171875 49.54296875 C-143.60452986 43.15390681 -134.86138957 37.61168285 -125.65234375 32.45166016 C-123.78933792 31.40484113 -121.94116361 30.33571119 -120.09375 29.26171875 C-83.4933446 8.69459905 -41.63834482 -0.15855121 0 0 Z M-54.625 131.3125 C-68.0753954 148.40973307 -75.37526612 167.71628844 -73 189.6875 C-69.86758183 209.60804169 -60.41368159 227.8206756 -43.92163086 239.95117188 C-26.9183676 251.89095423 -7.08740244 257.16115389 13.5078125 253.6875 C34.63527163 249.40757846 50.66952907 237.26114164 63.08984375 219.91796875 C72.89224706 204.87764 76.18428902 185.52961312 73.1875 167.9609375 C68.40551169 146.48797076 57.03343208 129.35092944 38.375 117.3125 C7.26964949 100.45611761 -30.02381731 105.04209329 -54.625 131.3125 Z M-84.625 261.3125 C-85.15899414 261.69841309 -85.69298828 262.08432617 -86.24316406 262.48193359 C-106.00431539 276.87835389 -121.30628139 294.68652275 -132.625 316.3125 C-133.23085937 317.47007812 -133.83671875 318.62765625 -134.4609375 319.8203125 C-143.16356572 337.10312937 -151.69964288 361.69839889 -148.625 381.3125 C-146.78521079 385.60534149 -145.54592962 386.90630234 -141.27734375 388.7890625 C-135.54945474 390.81432197 -129.63111818 391.98024662 -123.6875 393.1875 C-121.79124878 393.5738562 -121.79124878 393.5738562 -119.85668945 393.96801758 C-80.46422538 401.86474553 -40.60181774 405.54311104 -0.4375 405.5 C0.61125305 405.49939575 1.6600061 405.4987915 2.74053955 405.49816895 C78.19802551 407.41929212 78.19802551 407.41929212 147.375 385.3125 C152.5900481 377.7529346 148.90817378 364.85875222 147.3984375 356.39453125 C143.14527834 334.41706823 134.21009463 313.0004058 120.375 295.3125 C119.69308594 294.41144531 119.01117188 293.51039063 118.30859375 292.58203125 C107.12180037 278.30496346 89.25894732 257.64855716 70.75 253.5 C65.85374303 253.75374076 62.47473347 256.72766143 58.6394043 259.53881836 C37.21841888 275.2292715 11.15635939 281.31044594 -15.13061523 277.54101562 C-32.08118268 274.71364301 -47.30990965 267.64267488 -61 257.3125 C-64.51981662 254.82859689 -67.13596379 253.18080056 -71.51953125 253.64453125 C-76.46462025 255.21338138 -80.48225434 258.27200158 -84.625 261.3125 Z " fill="#26D0FE" transform="translate(255.625,-0.3125)"/>
<path d="M0 0 C0.825 0.49628906 1.65 0.99257813 2.5 1.50390625 C31.95972918 18.9514341 65.07986934 27.4134814 99 19 C114.53899081 14.83426595 128.29860152 8.32623446 142 0 C161.91975883 14.4426402 176.99541722 31.38633561 187 54 C187.72316406 55.63388672 187.72316406 55.63388672 188.4609375 57.30078125 C190.96302002 63.38918204 192.77188149 69.55052408 194.3125 75.9375 C194.48426758 76.64769287 194.65603516 77.35788574 194.83300781 78.08959961 C195.74945534 82.13086537 196.17493484 85.85987541 196 90 C173.6610483 94.978553 151.2806686 98.53497982 128.5 100.6875 C127.23800781 100.80689941 125.97601563 100.92629883 124.67578125 101.04931641 C107.05983988 102.62608007 89.49552677 103.20742267 71.8125 103.1875 C70.81143219 103.18689575 69.81036438 103.1862915 68.77896118 103.18566895 C28.12391841 103.11953237 -14.51889367 100.53473829 -54 90 C-53.35612257 63.42542252 -39.70410812 38.12313969 -22 19 C-21.54334961 18.50483887 -21.08669922 18.00967773 -20.61621094 17.49951172 C-14.33078086 10.76512235 -7.62985695 5.15052239 0 0 Z " fill="#34C4FE" transform="translate(185,279)"/>
<path d="M0 0 C10.28806659 9.49476989 16.5849184 22.57099874 17.41015625 36.51953125 C17.23154901 51.34393203 13.08331571 63.23688706 3.375 74.4375 C-6.94584657 84.5016091 -19.17004655 89.3745407 -33.4375 89.75 C-47.30617006 89.49648668 -59.5630531 84.93736853 -69.78125 75.41015625 C-79.73582356 64.75960615 -83.92583354 52.90150605 -84.625 38.4375 C-83.88009472 23.64802644 -78.74094528 12.13473741 -68.625 1.4375 C-48.80482199 -15.93163309 -20.74809279 -15.83532599 0 0 Z " fill="#1CD9FE" transform="translate(289.625,141.5625)"/>
</svg>
